Bold-Italic.sfdir
StartChar: exclam
Encoding: 33 33 1
Width: 367
Flags: MW
LayerCount: 2
Fore
SplineSet
240 695 m 1xe0
 371 695 l 1xe0
 273 217 l 1
 168 217 l 1xd0
 233 652 l 5
 240 695 l 1xe0
EndSplineSet
Refer: 14 46 N 1 0 0 1 31 0 2
EndChar
StartChar: quotedbl
Encoding: 34 34 2
Width: 550
Flags: MW
LayerCount: 2
Fore
SplineSet
236.546875 695 m 1
 373.546875 695 l 1
 289.001953125 397 l 1
 289.001953125 397 l 1
 216.001953125 397 l 1
 236.546875 695 l 1
419.546875 695 m 1
 556.546875 695 l 1
 472.001953125 397 l 1
 399.001953125 397 l 1
 399.001953125 397 l 1
 419.546875 695 l 1
EndSplineSet
EndChar
StartChar: numbersign
Encoding: 35 35 3
Width: 917
Flags: MW
LayerCount: 2
Fore
SplineSet
86.5673828125 145 m 0
 89.388671875 161 96.798828125 169 105.680664062 174 c 0
 117.915039062 181 132.915039062 181 146.915039062 181 c 2
 306.915039062 181 l 1
 385.008789062 346 l 1
 173.008789062 346 l 2
 154.008789062 346 140.538085938 349 132.94921875 357 c 0
 128.006835938 363 126.241210938 370 128.356445312 382 c 0
 130.649414062 395 137.236328125 404 144.118164062 409 c 0
 160.057617188 420 181.880859375 419 188.880859375 419 c 2
 420.880859375 419 l 1
 537.728515625 662 l 2
 541.962890625 669 545.020507812 675 548.725585938 679 c 0
 559.018554688 692 567.37109375 694 579.37109375 694 c 0
 599.37109375 694 612.197265625 676 609.19921875 659 c 0
 608.670898438 656 604.907226562 646 598.438476562 632 c 2
 496.880859375 419 l 1
 658.880859375 419 l 1
 775.375976562 660 l 2
 781.315429688 671 786.725585938 679 791.607421875 684 c 0
 800.018554688 692 807.37109375 694 818.37109375 694 c 0
 838.37109375 694 850.197265625 676 847.19921875 659 c 0
 846.494140625 655 840.025390625 641 831.67578125 622 c 2
 734.880859375 419 l 1
 878.880859375 419 l 2
 891.880859375 419 904.705078125 418 913.470703125 411 c 0
 920.588867188 406 923.825195312 396 921.356445312 382 c 0
 918.888671875 368 911.301757812 359 903.419921875 354 c 0
 890.008789062 346 873.008789062 346 866.008789062 346 c 2
 700.008789062 346 l 1
 621.915039062 181 l 1
 833.915039062 181 l 2
 851.915039062 181 865.5625 179 873.328125 172 c 0
 879.446289062 167 881.859375 158 879.567382812 145 c 0
 877.275390625 132 871.688476562 123 863.806640625 118 c 0
 850.219726562 109 832.219726562 109 819.219726562 109 c 2
 586.219726562 109 l 1
 473.783203125 -126 l 2
 463.609375 -144 456.668945312 -155 449.788085938 -160 c 0
 442.90625 -165 436.729492188 -166 427.729492188 -166 c 0
 405.729492188 -166 394.903320312 -148 398.077148438 -130 c 0
 398.606445312 -127 399.48828125 -122 408.837890625 -103 c 2
 510.219726562 109 l 1
 348.219726562 109 l 1
 232.724609375 -132 l 2
 225.609375 -144 220.375 -151 215.493164062 -156 c 0
 207.08203125 -164 199.729492188 -166 189.729492188 -166 c 0
 166.729492188 -166 156.903320312 -148 160.077148438 -130 c 0
 160.606445312 -127 162.311523438 -123 170.309570312 -106 c 2
 272.219726562 109 l 1
 131.219726562 109 l 2
 116.219726562 109 105.572265625 111 97.27734375 115 c 0
 88.1591796875 120 83.74609375 129 86.5673828125 145 c 0
382.915039062 181 m 1
 545.915039062 181 l 1
 624.008789062 346 l 1
 461.008789062 346 l 1
 382.915039062 181 l 1
EndSplineSet
EndChar
StartChar: dollar
Encoding: 36 36 4
Width: 550
Flags: MW
LayerCount: 2
Fore
SplineSet
58.2265625 58 m 1
 96.623046875 168 l 1
 138.098632812 131 168.514648438 105 254.045898438 91 c 1
 289.83984375 294 l 1
 287.016601562 295 285.016601562 295 282.192382812 296 c 0
 159.834960938 328 134.762695312 424 148.516601562 502 c 0
 177.081054688 664 287.723632812 696 362.133789062 704 c 1
 370.245117188 750 l 1
 442.245117188 750 l 1
 434.133789062 704 l 1
 496.428710938 700 539.079101562 681 583.612304688 650 c 1
 547.098632812 545 l 1
 518.977539062 567 485.267578125 597 416.325195312 603 c 1
 385.64453125 429 l 1
 511.354492188 399 539.83984375 294 524.323242188 206 c 0
 504.221679688 92 440.529296875 3 308.413085938 -9 c 1
 300.125976562 -56 l 1
 228.125976562 -56 l 1
 236.236328125 -10 l 1
 233.765625 -7 151.060546875 -11 58.2265625 58 c 1
270.571289062 525 m 0
 260.344726562 467 309.346679688 450 316.641601562 446 c 1
 344.1484375 602 l 1
 343.1484375 602 l 1
 331.620117188 599 281.50390625 587 270.571289062 525 c 0
326.575195312 94 m 1
 341.280273438 98 390.572265625 111 403.267578125 183 c 0
 413.142578125 239 380.903320312 266 359.666015625 276 c 1
 353.375976562 246 l 1
 326.575195312 94 l 1
EndSplineSet
EndChar
StartChar: percent
Encoding: 37 37 5
Width: 1029
Flags: MW
LayerCount: 2
Fore
SplineSet
156.803710938 549 m 0
 167.3828125 609 189.610351562 667 235.310546875 705 c 0
 268.248046875 733 313.245117188 750 375.245117188 750 c 0
 435.245117188 750 473.071289062 732 495.310546875 705 c 0
 528.2578125 665 528.325195312 603 518.451171875 547 c 0
 508.047851562 488 486.702148438 435 448.354492188 399 c 0
 414.711914062 367 366.185546875 347 302.185546875 347 c 0
 247.185546875 347 203.830078125 362 177.649414062 395 c 0
 152.291992188 427 144.108398438 477 156.803710938 549 c 0
275.392578125 541 m 2
 270.75 509 262.874023438 470 272.465820312 445 c 0
 278.8203125 430 291.057617188 420 315.057617188 420 c 0
 337.057617188 420 353.997070312 431 366.818359375 447 c 0
 390.108398438 477 399.21875 523 403.803710938 549 c 0
 411.73828125 594 415.025390625 641 394.905273438 663 c 0
 387.4921875 672 376.373046875 677 360.373046875 677 c 0
 340.373046875 677 325.138671875 670 314.19921875 659 c 0
 292.3203125 637 286.443359375 598 279.625 565 c 2
 275.392578125 541 l 2
198.53125 -14 m 0
 201.176757812 1 211.116210938 12 219.703125 21 c 2
 873.484375 723 l 2
 877.189453125 727 894.245117188 750 919.245117188 750 c 0
 944.245117188 750 956.541992188 729 952.83984375 708 c 0
 950.723632812 696 944.13671875 687 934.373046875 677 c 2
 275.357421875 -32 l 2
 271.65234375 -36 255.301757812 -55 232.301757812 -55 c 0
 209.301757812 -55 194.475585938 -37 198.53125 -14 c 0
630.919921875 147 m 0
 641.67578125 208 662.610351562 253 691.252929688 285 c 0
 731.01171875 329 785.185546875 347 849.185546875 347 c 0
 908.185546875 347 945.1875 330 967.779296875 305 c 0
 1000.25585938 268 1001.55761719 213 994.565429688 162 c 2
 988.5703125 128 l 2
 977.75390625 78 956.408203125 25 914.060546875 -11 c 0
 882.299804688 -38 838.125976562 -56 776.125976562 -56 c 0
 717.125976562 -56 671.947265625 -40 646.823242188 -1 c 0
 625.642578125 32 619.106445312 80 630.919921875 147 c 0
749.333007812 138 m 2
 744.162109375 103 735.755859375 61 748.524414062 37 c 0
 755.408203125 25 767.998046875 17 788.998046875 17 c 0
 809.998046875 17 825.760742188 27 838.229492188 41 c 0
 863.342773438 70 872.983398438 119 877.744140625 146 c 0
 884.973632812 187 887.37890625 229 873.610351562 253 c 0
 865.903320312 266 854.313476562 274 834.313476562 274 c 0
 812.313476562 274 796.903320312 266 785.610351562 253 c 0
 765.731445312 231 760.20703125 194 753.565429688 162 c 2
 749.333007812 138 l 2
EndSplineSet
EndChar
StartChar: ampersand
Encoding: 38 38 6
Width: 831
Flags: MW
LayerCount: 2
Fore
SplineSet
71 148 m 0xe8
 88 243 175 284 252 332 c 1
 243 377 236 426 247 489 c 0xd8
 269 611 358 717 464 717 c 0
 557 717 625 643 609 553 c 0
 602 515 574 479 536 445 c 0
 493 406 438 370 384 336 c 1
 420 248 487 175 494 163 c 1
 495 163 l 1
 549 207 592 249 614 281 c 0
 643 324 679 376 710 444 c 1
 806 417 l 1
 779 357 744 295 696 235 c 0
 660 189 616 144 565 102 c 1
 580 94 595 88 611 84 c 0
 624 81 639 78 657 78 c 0
 682 78 704 81 725 85 c 0
 747 89 767 95 786 101 c 1
 767 -5 l 1
 748 -10 730 -14 711 -17 c 0
 687 -21 663 -23 640 -23 c 0
 596 -23 559 -14 531 -4 c 0
 493 10 480 18 458 33 c 9
 458 33 l 17
 381 -9 294 -22 243 -22 c 0
 125 -22 55 55 71 148 c 0xe8
213 174 m 0xe8
 206 134 209 78 263 78 c 0
 306 78 352 91 381 100 c 1
 343 145 304 194 273 267 c 1
 249 252 223 231 213 174 c 0xe8
361 546 m 0
 351 491 358 436 364 403 c 1
 390 420 428 444 457 479 c 0
 475 500 488 524 493 552 c 0
 499 584 498 644 450 644 c 0xd8
 422 644 374 619 361 546 c 0
EndSplineSet
EndChar
StartChar: quotesingle
Encoding: 39 39 7
Width: 306
Flags: MW
LayerCount: 2
Fore
SplineSet
205.546875 695 m 1
 342.546875 695 l 1
 289.75 509 l 1
 258.001953125 397 l 1
 258.001953125 397 l 1
 185.001953125 397 l 1
 185.001953125 397 l 1
 205.546875 695 l 1
EndSplineSet
EndChar
StartChar: parenleft
Encoding: 40 40 8
Width: 428
Flags: MW
LayerCount: 2
Fore
SplineSet
131.374023438 263 m 0
 165.7578125 458 258.615234375 633 425.245117188 750 c 1
 497.245117188 750 l 1
 470.484375 723 437.3125 688 403.3203125 637 c 4
 352.919921875 561 300.818359375 447 268.55078125 264 c 0
 204.719726562 -98 317.439453125 -196 325.678710938 -223 c 1
 253.678710938 -223 l 1
 128.485351562 -105 97.6953125 72 131.374023438 263 c 0
EndSplineSet
EndChar
StartChar: parenright
Encoding: 41 41 9
Width: 428
Flags: MW
LayerCount: 2
Fore
SplineSet
20.6787109375 -223 m 1
 44.9111328125 -199 73.201171875 -169 103.606445312 -127 c 4
 158.006835938 -51 215.4609375 65 250.55078125 264 c 0
 314.028320312 624 200.836914062 725 192.245117188 750 c 1
 265.245117188 750 l 1
 389.615234375 633 420.405273438 456 386.374023438 263 c 0
 352.342773438 70 259.309570312 -106 93.6787109375 -223 c 1
 20.6787109375 -223 l 1
EndSplineSet
EndChar
StartChar: asterisk
Encoding: 42 42 10
Width: 550
Flags: MW
LayerCount: 2
Fore
SplineSet
142.115234375 426 m 0
 145.818359375 447 164.462890625 462 178.16796875 466 c 2
 324.631835938 514 l 1
 324.631835938 514 l 1
 187.272460938 563 166.095703125 562 173.1484375 602 c 0
 178.0859375 630 206.375976562 660 236.375976562 660 c 0
 261.375976562 660 269.497070312 638 350.979492188 550 c 1
 348.677734375 605 344.489257812 689 347.83984375 708 c 0
 352.776367188 736 384.245117188 750 406.245117188 750 c 0
 430.245117188 750 455.423828125 734 450.487304688 706 c 0
 447.841796875 691 439.020507812 675 390.979492188 550 c 1
 523.670898438 656 524.375976562 660 544.375976562 660 c 0
 574.375976562 660 592.0859375 630 587.1484375 602 c 0
 583.622070312 582 577.682617188 571 551.095703125 562 c 2
 404.631835938 514 l 1
 404.631835938 514 l 1
 540.9921875 465 563.344726562 467 556.115234375 426 c 0
 551.177734375 398 523.064453125 369 493.064453125 369 c 0
 468.064453125 369 459.944335938 391 378.284179688 478 c 1
 381.291992188 427 384.01171875 329 382.77734375 322 c 0
 377.83984375 294 347.018554688 278 323.018554688 278 c 0
 298.018554688 278 274.192382812 296 278.77734375 322 c 0
 281.598632812 338 295.536132812 366 338.284179688 478 c 1
 206.59375 372 205.064453125 369 186.064453125 369 c 0
 155.064453125 369 137.177734375 398 142.115234375 426 c 0
EndSplineSet
EndChar
StartChar: plus
Encoding: 43 43 11
Width: 672
Flags: MW
LayerCount: 2
Fore
SplineSet
106.55078125 264 m 0
 109.1953125 279 122.6640625 293 138.545898438 298 c 0
 148.07421875 301 156.8984375 300 164.8984375 300 c 2
 351.8984375 300 l 1
 384.6953125 486 l 2
 386.282226562 495 386.869140625 504 390.279296875 512 c 0
 397.924804688 527 414.040039062 539 430.040039062 539 c 0
 446.040039062 539 458.100585938 528 459.456054688 513 c 0
 460.869140625 504 458.282226562 495 456.87109375 487 c 2
 423.8984375 300 l 1
 609.8984375 300 l 2
 618.8984375 300 628.07421875 301 635.545898438 298 c 0
 649.83984375 294 658.37109375 280 655.55078125 264 c 0
 652.729492188 248 639.260742188 234 623.37890625 229 c 0
 615.026367188 227 606.026367188 227 598.026367188 227 c 2
 411.026367188 227 l 1
 378.229492188 41 l 2
 375.87890625 22 370.057617188 6 358.470703125 -3 c 4
 351.58984375 -8 343.060546875 -11 333.060546875 -11 c 0
 317.060546875 -11 305 0 302.64453125 15 c 0
 302.055664062 23 304.642578125 32 306.052734375 40 c 2
 339.026367188 227 l 1
 153.026367188 227 l 2
 151.026367188 227 148.026367188 227 146.026367188 227 c 0
 139.026367188 227 133.202148438 228 127.37890625 229 c 0
 113.260742188 234 103.729492188 248 106.55078125 264 c 0
EndSplineSet
EndChar
StartChar: comma
Encoding: 44 44 12
Width: 306
Flags: MW
LayerCount: 2
Fore
SplineSet
86 0 m 1
 109 131 l 1
 240 131 l 1
 220 19 l 25
 220 19 218 6 216 2 c 1
 212 -11 132 -111 132 -111 c 5
 66 -111 l 1
 126 0 l 1
 86 0 l 1
EndSplineSet
EndChar
StartChar: hyphen
Encoding: 45 45 13
Width: 367
Flags: MW
LayerCount: 2
Fore
SplineSet
47.265625 200 m 1
 60.1376953125 273 l 1
 353.137695312 273 l 1
 340.265625 200 l 1
 47.265625 200 l 1
EndSplineSet
EndChar
StartChar: period
Encoding: 46 46 14
Width: 306
Flags: MW
LayerCount: 2
Fore
SplineSet
86 0 m 1
 109.098632812 131 l 1
 240.098632812 131 l 1
 217 0 l 1
 86 0 l 1
EndSplineSet
EndChar
StartChar: slash
Encoding: 47 47 15
Width: 550
Flags: MW
LayerCount: 2
Fore
SplineSet
28 -186 m 0
 30 -175 36 -165 41 -156 c 2
 532 704 l 2
 540 717 554 750 583 750 c 0
 602 750 617 736 613 714 c 0
 611 704 605 695 601 687 c 2
 110 -173 l 2
 103 -184 97 -201 84 -212 c 0
 78 -217 71 -221 63 -222 c 0
 61 -222 60 -222 58 -222 c 0
 41 -222 24 -208 28 -186 c 0
EndSplineSet
EndChar
StartChar: zero
Encoding: 48 48 16
Width: 550
Flags: MW
LayerCount: 2
Fore
SplineSet
103 344 m 0
 105 356 107 368 109 380 c 0
 134 509 177 664 319 706 c 0
 343 713 370 717 400 717 c 0
 457 717 516 700 550 654 c 0
 607 576 582 431 570 362 c 2
 568 352 l 2
 543 213 510 32 349 -12 c 4
 325 -18 299 -22 269 -22 c 0
 48 -22 74 180 103 344 c 0
241 352 m 0
 206 155 202 91 249 60 c 0
 258 55 269 50 283 50 c 0
 289 50 315 51 342 76 c 0
 391 120 402 200 432 357 c 0
 434 368 437 380 439 393 c 0
 452 468 465 559 453 595 c 0
 444 623 420 644 388 644 c 0
 294 644 270 516 249 396 c 0
 246 381 243 366 241 352 c 0
EndSplineSet
EndChar
StartChar: one
Encoding: 49 49 17
Width: 550
Flags: MW
LayerCount: 2
Fore
SplineSet
177 575 m 1
 190 648 l 1
 306 648 382 670 446 717 c 1
 481 717 l 1
 368 73 l 1
 486 73 l 1
 473 0 l 1
 91 0 l 1
 104 73 l 1
 230 73 l 1
 321 591 l 1
 273 579 225 575 177 575 c 1
EndSplineSet
EndChar
StartChar: two
Encoding: 50 50 18
Width: 550
Flags: MW
LayerCount: 2
Fore
SplineSet
146 574 m 1
 186 643 256 717 384 717 c 0
 537 717 600 603 580 487 c 0
 562 385 477 333 327 229 c 2
 168 106 l 1
 513 108 l 1
 494 0 l 1
 54 0 l 1
 72 100 l 1
 252 254 l 2
 305 297 420 378 439 485 c 0
 451 552 424 617 351 617 c 0
 272 617 229 551 200 486 c 1
 146 574 l 1
EndSplineSet
EndChar
StartChar: three
Encoding: 51 51 19
Width: 550
Flags: MW
LayerCount: 2
Fore
SplineSet
55 58 m 1
 89 151 l 1
 116 124 146 102 184 88 c 0
 209 79 237 73 270 73 c 0
 305 73 329 83 347 99 c 0
 374 124 384 162 390 197 c 2
 393 216 l 2xe8
 401 261 397 289 387 307 c 0
 367 345 322 337 303 339 c 2
 243 339 l 1
 255 411 l 1
 292 414 305 414 318 417 c 0
 364 426 414 470 428 547 c 0
 432 572 434 596 422 611 c 0
 413 622 398 628 372 628 c 0xf0
 341 628 315 621 292 610 c 0
 268 599 249 584 235 571 c 0
 222 559 213 548 209 543 c 1
 169 619 l 1
 202 652 241 680 287 698 c 0
 318 710 352 717 390 717 c 0
 468 717 514 698 540 670 c 0
 575 634 575 583 568 544 c 0xf0
 560 501 540 468 517 443 c 0
 486 409 449 389 428 378 c 1
 447 373 494 361 522 319 c 0
 539 293 548 256 539 203 c 0
 527 133 495 62 425 19 c 4
 385 -6 330 -22 259 -22 c 0
 219 -22 184 -16 153 -5 c 0
 115 9 83 30 55 58 c 1
EndSplineSet
EndChar
StartChar: four
Encoding: 52 52 20
Width: 550
Flags: MW
LayerCount: 2
Fore
SplineSet
56.8017578125 152 m 1
 73.552734375 247 l 1
 73.552734375 247 l 1
 395.546875 695 l 1
 550.546875 695 l 1
 471.552734375 247 l 1
 561.552734375 247 l 1
 544.801757812 152 l 1
 454.801757812 152 l 1
 428 0 l 1
 304 0 l 1
 330.801757812 152 l 1
 56.8017578125 152 l 1
178.552734375 247 m 1
 352.552734375 247 l 1
 413.385742188 592 l 1
 384.100585938 528 336.16796875 466 178.552734375 247 c 1
EndSplineSet
EndChar
StartChar: five
Encoding: 53 53 21
Width: 550
Flags: MW
LayerCount: 2
Fore
SplineSet
50.458984375 82 m 1
 118.798828125 169 l 1
 123.036132812 159 126.44921875 150 131.685546875 140 c 0
 143.806640625 118 160.985351562 102 180.045898438 91 c 0
 202.75390625 78 229.6953125 72 254.6953125 72 c 0
 298.6953125 72 325.98828125 85 345.04296875 108 c 0
 367.803710938 135 376.857421875 175 384.791992188 220 c 2
 389.729492188 248 l 2
 396.782226562 288 402.01171875 329 391.419921875 354 c 0
 385.064453125 369 371.828125 379 348.828125 379 c 0
 276.828125 379 237.192382812 296 236.192382812 296 c 2
 134.192382812 296 l 1
 204.546875 695 l 1
 579.546875 695 l 1
 561.73828125 594 l 1
 317.73828125 594 l 1
 289.702148438 435 l 1
 311.2890625 444 331.700195312 452 366.700195312 452 c 0
 424.700195312 452 470.231445312 438 500.588867188 406 c 4
 535.064453125 369 548.485351562 309 532.615234375 219 c 0
 517.627929688 134 483.75390625 78 439.229492188 41 c 0
 382.942382812 -6 310.12109375 -22 242.12109375 -22 c 0
 201.12109375 -22 167.53125 -14 141.647460938 -2 c 0
 86.87890625 22 60.9326171875 62 50.458984375 82 c 1
EndSplineSet
EndChar
StartChar: six
Encoding: 54 54 22
Width: 550
Flags: MW
LayerCount: 2
Fore
SplineSet
105.303710938 342 m 0
 133.33984375 501 176.80078125 566 212.20703125 608 c 0
 274.254882812 682 363.426757812 717 461.426757812 717 c 0
 499.426757812 717 521.544921875 712 554.723632812 696 c 1
 538.501953125 604 l 1
 510.146484375 619 487.733398438 628 448.733398438 628 c 0
 376.733398438 628 334.033203125 590 317.153320312 568 c 0
 295.040039062 539 272.223632812 489 254.944335938 391 c 1
 284.759765625 441 333.9296875 493 407.9296875 493 c 0
 491.9296875 493 519.228515625 455 535.762695312 424 c 0
 563.888671875 368 558.366210938 314 547.08203125 250 c 2
 546.0234375 244 l 2
 536.326171875 189 524.393554688 127 479.51953125 71 c 0
 404.473632812 -20 320.12109375 -22 273.12109375 -22 c 0
 197.12109375 -22 150.881835938 5 124.111328125 46 c 0
 70.3935546875 127 91.197265625 262 105.303710938 342 c 0
231.610351562 253 m 0
 230.200195312 245 228.7890625 237 227.37890625 229 c 4
 214.096679688 148 212.6953125 72 292.6953125 72 c 0
 356.6953125 72 379.629882812 117 391.975585938 170 c 0
 397.03125 193 400.262695312 217 405.318359375 240 c 2
 411.313476562 274 l 2
 417.190429688 313 424.890625 351 418.651367188 378 c 0
 413.059570312 403 396.057617188 420 356.057617188 420 c 0
 291.057617188 420 255.772460938 356 238.782226562 288 c 0
 235.666015625 276 233.7265625 265 231.610351562 253 c 0
EndSplineSet
EndChar
StartChar: seven
Encoding: 55 55 23
Width: 550
Flags: MW
LayerCount: 2
Fore
SplineSet
149 587 m 1
 168 695 l 1
 626 695 l 1
 608 594 l 1
 433 422 319 200 282 -11 c 1
 140 -11 l 1
 180 214 315 433 528 588 c 1
 149 587 l 1
EndSplineSet
EndChar
StartChar: eight
Encoding: 56 56 24
Width: 550
Flags: MW
LayerCount: 2
Fore
SplineSet
80 201 m 0xf2
 95 287 144 351 235 375 c 1
 215 384 131 406 152 523 c 0
 169 620 229 717 400 717 c 2
 401 717 l 2
 572 717 597 620 580 522 c 0xec
 557 394 447 379 445 375 c 1
 528 351 553 287 538 201 c 0
 518 89 453 -22 270 -22 c 0
 87 -22 60 90 80 201 c 0xf2
219 190 m 2
 213 152 208 116 225 94 c 0
 236 81 254 73 286 73 c 0
 314 73 335 80 350 90 c 4
 388 116 392 166 399 198 c 2
 403 219 l 2xf2
 409 260 411 295 396 316 c 0
 386 331 366 339 334 339 c 0
 302 339 280 330 265 316 c 0
 233 287 229 239 223 213 c 2
 219 190 l 2
278 511 m 2xec
 272 475 272 449 284 432 c 0
 295 418 314 411 345 411 c 0
 378 411 400 419 415 432 c 0
 438 452 445 482 450 512 c 2
 453 530 l 2
 459 562 459 586 451 602 c 0
 442 620 422 628 386 628 c 0
 354 628 333 621 318 610 c 0
 291 590 287 557 281 529 c 2
 278 511 l 2xec
EndSplineSet
EndChar
StartChar: nine
Encoding: 57 57 25
Width: 550
Flags: MW
LayerCount: 2
Fore
SplineSet
123 443 m 0
 135 513 146 573 199 632 c 0
 244 682 298 717 402 717 c 0
 468 717 513 695 540 662 c 0
 603 585 581 444 566 359 c 0
 548 255 516 124 420 45 c 0
 362 -3 288 -22 222 -22 c 0
 160 -22 124 -5 84 26 c 1
 146 110 l 1
 172 87 194 73 239 73 c 0
 287 73 332 96 358 131 c 0
 378 159 399 213 414 296 c 2
 416 305 l 1
 393 264 344 202 263 202 c 0
 179 202 149 241 134 273 c 0
 107 328 112 381 123 443 c 0
264 450 m 2
 246 335 248 318 260 298 c 0
 272 281 292 275 314 275 c 0
 338 275 370 284 397 324 c 4
 415 350 431 389 441 448 c 0
 455 525 472 628 385 628 c 0
 362 628 343 623 329 614 c 0
 284 586 280 522 270 482 c 2
 264 450 l 2
EndSplineSet
EndChar
StartChar: less
Encoding: 60 60 28
Width: 672
Flags: MW
LayerCount: 2
Fore
SplineSet
137 263 m 1
 141 277 142 282 173 304 c 2
 620 611 l 2
 627 616 639 624 653 624 c 0
 671 624 687 610 683 589 c 0
 680 570 666 561 654 553 c 2
 232 263 l 1
 251 249 267 233 284 218 c 2
 552 -25 l 2
 559 -31 571 -42 568 -61 c 0
 564 -83 544 -97 526 -97 c 0
 514 -97 507 -92 498 -84 c 2
 159 223 l 2
 130 249 139 255 137 263 c 1
EndSplineSet
EndChar
StartChar: equal
Encoding: 61 61 29
Width: 672
Flags: MW
LayerCount: 2
Fore
SplineSet
128.356445312 382 m 0
 130.649414062 395 137.059570312 403 143.94140625 408 c 0
 158.880859375 419 178.705078125 418 179.880859375 419 c 1
 637.880859375 419 l 1
 649.528320312 417 662.17578125 415 669.94140625 408 c 0
 676.059570312 403 678.649414062 395 676.356445312 382 c 0
 673.888671875 368 667.477539062 360 659.595703125 355 c 0
 644.833007812 345 627.185546875 347 626.008789062 346 c 1
 165.008789062 346 l 2
 154.185546875 347 141.538085938 349 133.772460938 356 c 0
 128.654296875 361 126.064453125 369 128.356445312 382 c 0
86.5673828125 145 m 0
 89.0361328125 159 95.4462890625 167 103.328125 172 c 0
 118.091796875 182 135.739257812 180 135.915039062 181 c 1
 145.915039062 181 l 1
 596.915039062 181 l 2
 606.739257812 180 617.5625 179 625.680664062 174 c 0
 632.798828125 169 637.211914062 160 634.567382812 145 c 0
 631.922851562 130 623.3359375 121 614.454101562 116 c 0
 600.04296875 108 583.395507812 110 583.219726562 109 c 1
 124.219726562 109 l 2
 113.395507812 110 100.749023438 112 92.9833984375 119 c 0
 86.8642578125 124 84.275390625 132 86.5673828125 145 c 0
EndSplineSet
EndChar
StartChar: greater
Encoding: 62 62 30
Width: 672
Flags: MW
LayerCount: 2
Fore
SplineSet
80.244140625 -61 m 0
 83.41796875 -43 97.0048828125 -34 109.591796875 -25 c 2
 530.55078125 264 l 1
 513.018554688 278 495.83984375 294 479.661132812 310 c 2
 211.33203125 552 l 2
 198.625 565 192.211914062 574 194.856445312 589 c 0
 198.559570312 610 219.028320312 624 238.028320312 624 c 0
 250.028320312 624 256.146484375 619 264.735351562 611 c 2
 604.603515625 304 l 2
 633.018554688 278 623.9609375 272 625.55078125 264 c 1
 622.2578125 251 622.200195312 245 590.497070312 224 c 2
 143.188476562 -84 l 2
 131.954101562 -91 122.896484375 -97 110.896484375 -97 c 0
 91.896484375 -97 76.365234375 -83 80.244140625 -61 c 0
EndSplineSet
EndChar
StartChar: question
Encoding: 63 63 31
Width: 519
Flags: MW
LayerCount: 2
Fore
SplineSet
175.846679688 657 m 1
 230.784179688 685 290.133789062 704 363.487304688 706 c 2
 375.487304688 706 l 2xd8
 530.487304688 706 570.5546875 644 555.213867188 557 c 0
 539.697265625 469 479.759765625 441 461.467773438 428 c 0
 358.595703125 355 346.077148438 284 340.08203125 250 c 2
 334.262695312 217 l 1
 229.262695312 217 l 1
 234.905273438 249 l 2
 263.293945312 410 376.4609375 479 401.103515625 511 c 0
 413.100585938 528 418.33203125 552 420.095703125 562 c 0
 430.499023438 621 413.615234375 633 358.615234375 633 c 0
 288.615234375 633 235.1484375 602 194.095703125 562 c 1
 175.846679688 657 l 1
EndSplineSet
Refer: 14 46 S 1 0 0 1 92 0 2
EndChar
StartChar: at
Encoding: 64 64 32
Width: 733
Flags: MW
LayerCount: 2
Fore
SplineSet
121.008789062 346 m 0
 153.629882812 531 257.487304688 706 548.487304688 706 c 0
 769.487304688 706 769.56640625 559 734.477539062 360 c 0
 724.250976562 302 706.96875 221 638.446289062 167 c 0
 591.922851562 130 533.806640625 118 479.806640625 118 c 0
 300.806640625 118 285.7890625 237 305.538085938 349 c 0
 327.754882812 475 394.564453125 576 557.740234375 577 c 2
 593.387695312 575 l 1
 623.682617188 571 l 1
 605.204101562 625 562.615234375 633 532.615234375 633 c 0
 436.615234375 633 284.915039062 595 241.185546875 347 c 0
 215.265625 200 240.755859375 61 438.755859375 61 c 0
 521.755859375 61 580.340820312 87 595.693359375 89 c 2
 610.869140625 90 l 1
 686.869140625 90 l 1
 623.34765625 36 530.060546875 -11 420.060546875 -11 c 0
 238.060546875 -11 70.580078125 60 121.008789062 346 c 0
424.774414062 339 m 0
 403.028320312 210 453.501953125 190 490.501953125 190 c 0
 516.501953125 190 554.793945312 203 580.905273438 249 c 0
 598.724609375 282 605.366210938 314 612.419921875 354 c 0
 635.166015625 483 583.869140625 504 546.869140625 504 c 0
 514.869140625 504 480.87109375 487 457.641601562 446 c 0
 438.646484375 412 432.00390625 380 424.774414062 339 c 0
EndSplineSet
EndChar
StartChar: A
Encoding: 65 65 33
Width: 733
Flags: MW
LayerCount: 2
Fore
SplineSet
30 0 m 1
 394.546875 695 l 1
 581.546875 695 l 1
 701 0 l 1
 548 0 l 1
 521.44921875 150 l 1
 244.44921875 150 l 1
 166 0 l 1
 30 0 l 1
290.7890625 237 m 1
 506.7890625 237 l 1
 461.866210938 521 l 1
 457.330078125 569 l 1
 434.279296875 512 401.581054688 457 290.7890625 237 c 1
EndSplineSet
EndChar
StartChar: B
Encoding: 66 66 34
Width: 733
Flags: MW
LayerCount: 2
Fore
SplineSet
91 0 m 1
 213.546875 695 l 1
 466.546875 695 l 2
 538.546875 695 613.546875 695 671.375976562 660 c 0
 741.146484375 619 737.451171875 547 731.631835938 514 c 0xf8
 710.47265625 394 582.064453125 369 558.006835938 363 c 1
 607.772460938 356 729.01171875 329 705.03125 193 c 0xf4
 691.27734375 115 642.698242188 55 566.408203125 25 c 0
 533.116210938 12 500.057617188 6 466.529296875 3 c 0
 434 0 402 0 371 0 c 2
 91 0 l 1
248.340820312 87 m 1
 377.340820312 87 l 2
 445.340820312 87 495.750976562 95 531.922851562 130 c 0
 551.096679688 148 562.504882812 173 566.736328125 197 c 0xf4
 575.0234375 244 559.1953125 279 530.721679688 299 c 0
 507.366210938 314 479.424804688 320 450.954101562 323 c 0
 435.129882812 324 418.306640625 325 402.306640625 325 c 2
 291.306640625 325 l 25
 284.134765625 290 l 17
 248.340820312 87 l 1
303.177734375 398 m 1
 401.177734375 398 l 2
 466.177734375 398 524.412109375 405 561.818359375 447 c 0
 576.462890625 462 589.518554688 485 594.103515625 511 c 0xf8
 600.979492188 550 586.20703125 608 462.20703125 608 c 2
 341.20703125 608 l 25
 334.564453125 576 l 17
 303.177734375 398 l 1
EndSplineSet
EndChar
StartChar: C
Encoding: 67 67 35
Width: 703
Flags: MW
LayerCount: 2
Fore
SplineSet
121 346 m 0
 173 643 360 717 557 717 c 0
 638 717 690 705 754 682 c 1
 708 551 l 1
 676 577 638 616 538 616 c 0
 368 616 296 497 270 349 c 0
 244 203 266 78 445 78 c 0
 548 78 583 98 662 144 c 1
 652 33 l 1
 559 -13 517 -23 425 -23 c 0
 225 -23 70 59 121 346 c 0
EndSplineSet
EndChar
StartChar: D
Encoding: 68 68 36
Width: 794
Flags: MW
LayerCount: 2
Fore
SplineSet
91 0 m 1
 214 695 l 1
 504 695 l 2
 571 695 632 687 682 664 c 0
 774 621 825 528 792 340 c 0
 748 89 602 19 459 4 c 0
 433 1 407 0 382 0 c 2
 91 0 l 1
251 87 m 1
 354 87 l 2
 429 87 518 90 580 166 c 0
 618 212 633 267 643 320 c 0
 654 381 664 431 656 482 c 0
 648 533 624 564 593 582 c 0
 551 606 497 608 455 608 c 2
 343 608 l 1
 251 87 l 1
EndSplineSet
EndChar
StartChar: E
Encoding: 69 69 37
Width: 642
Flags: MW
LayerCount: 2
Fore
SplineSet
91 0 m 1
 213.018554688 692 l 1x6c
 702.018554688 692 l 1
 683.50390625 587 l 1x34
 343.033203125 590 l 1
 310.764648438 407 l 1
 620.764648438 407 l 1
 604.013671875 312 l 1
 294.013671875 312 l 1
 257.8671875 107 l 1xac
 614.572265625 111 l 1
 595 0 l 1x64
 91 0 l 1
EndSplineSet
EndChar
StartChar: F
Encoding: 70 70 38
Width: 611
Flags: MW
LayerCount: 2
Fore
SplineSet
91 0 m 1
 213.018554688 692 l 1xd8
 687.018554688 692 l 1
 668.50390625 587 l 1xe8
 343.033203125 590 l 1
 308.47265625 394 l 1xd8
 588.47265625 394 l 1
 571.721679688 299 l 1
 291.721679688 299 l 1
 239 0 l 1
 91 0 l 1
EndSplineSet
EndChar
StartChar: G
Encoding: 71 71 39
Width: 733
Flags: MW
LayerCount: 2
Fore
SplineSet
121.361328125 348 m 0
 161.387695312 575 290.426757812 717 553.426757812 717 c 0
 642.426757812 717 696.958007812 703 766.786132812 668 c 1
 720.6875 537 l 1
 694.095703125 562 652.793945312 617 536.793945312 617 c 0
 356.793945312 617 293.166015625 483 269.361328125 348 c 0
 244.147460938 205 265.75390625 78 443.75390625 78 c 0
 489.75390625 78 528.340820312 87 537.516601562 88 c 1
 563.083984375 233 l 1
 467.083984375 233 l 1
 483.834960938 328 l 1
 716.834960938 328 l 1
 663.584960938 26 l 1
 593.823242188 -1 515.12109375 -22 422.12109375 -22 c 0
 129.12109375 -22 87.5068359375 156 121.361328125 348 c 0
EndSplineSet
EndChar
StartChar: H
Encoding: 72 72 40
Width: 794
Flags: MW
LayerCount: 2
Fore
SplineSet
91 0 m 1
 214 695 l 1
 362 695 l 1
 311 409 l 1
 626 409 l 1
 677 695 l 1
 825 695 l 1
 702 0 l 1
 554 0 l 1
 609 314 l 1
 294 314 l 1
 239 0 l 1
 91 0 l 1
EndSplineSet
EndChar
StartChar: I
Encoding: 73 73 41
Width: 331
Flags: MW
LayerCount: 2
Fore
SplineSet
91 0 m 1
 214 695 l 1
 362 695 l 1
 239 0 l 1
 91 0 l 1
EndSplineSet
EndChar
StartChar: J
Encoding: 74 74 42
Width: 519
Flags: MW
LayerCount: 2
Fore
SplineSet
48 19 m 1
 91 140 l 1
 102 121 126 75 196 75 c 0
 289 75 305 130 309 152 c 2
 405 695 l 1
 550 695 l 1
 454 155 l 2
 429 13 320 -22 229 -22 c 0
 173 -22 112 -12 48 19 c 1
EndSplineSet
EndChar
StartChar: K
Encoding: 75 75 43
Width: 764
Flags: MW
LayerCount: 2
Fore
SplineSet
91 0 m 1
 213.546875 695 l 1
 343.546875 695 l 1
 287.298828125 376 l 1
 664.546875 695 l 1
 823.546875 695 l 1
 497.880859375 419 l 1
 497.705078125 418 l 1
 717 0 l 1
 568 0 l 1
 394.364257812 331 l 1
 259.439453125 218 l 1
 221 0 l 1
 91 0 l 1
EndSplineSet
EndChar
StartChar: L
Encoding: 76 76 44
Width: 581
Flags: MW
LayerCount: 2
Fore
SplineSet
91 0 m 1x70
 214 695 l 1
 362 695 l 1
 257 101 l 1xb0
 553 105 l 1
 534 0 l 1x70
 91 0 l 1x70
EndSplineSet
EndChar
StartChar: M
Encoding: 77 77 45
Width: 978
Flags: MW
LayerCount: 2
Fore
SplineSet
91 0 m 1
 214 695 l 1
 395 695 l 1
 479 327 l 2
 492 269 510 172 513 148 c 1
 514 148 l 1
 539 203 603 312 612 327 c 2
 826 695 l 1
 1009 695 l 1
 886 0 l 1
 762 0 l 1
 856 531 l 1
 860 553 862 569 862 569 c 1
 856 555 850 543 844 532 c 10
 752 369 l 17
 550 22 l 1
 432 22 l 1
 356 353 l 2
 333 460 317 525 314 569 c 1
 214 0 l 1
 91 0 l 1
EndSplineSet
EndChar
StartChar: N
Encoding: 78 78 46
Width: 794
Flags: MW
LayerCount: 2
Fore
SplineSet
91 0 m 1
 214 695 l 1
 406 695 l 1
 574 196 l 1
 599 120 l 1
 701 695 l 1
 825 695 l 1
 702 0 l 1
 510 0 l 1
 334 518 l 1
 315 574 l 1
 214 0 l 1
 91 0 l 1
EndSplineSet
EndChar
StartChar: O
Encoding: 79 79 47
Width: 794
Flags: MW
LayerCount: 2
Fore
SplineSet
121 345 m 0
 171 629 337 717 521 717 c 0
 723 717 840 617 792 343 c 0
 759 154 661 -22 393 -22 c 0
 116 -22 89 161 121 345 c 0
268 348 m 0
 243 204 252 62 407 62 c 0
 557 62 618 199 644 346 c 0
 682 560 620 638 507 638 c 0
 404 638 307 570 268 348 c 0
EndSplineSet
EndChar
StartChar: P
Encoding: 80 80 48
Width: 703
Flags: MW
LayerCount: 2
Fore
SplineSet
91 0 m 1
 214 695 l 1
 494 695 l 2
 577 695 657 685 700 626 c 0
 730 586 734 531 725 478 c 0
 697 318 574 280 489 271 c 0
 468 269 448 268 434 268 c 2
 286 268 l 1
 239 0 l 1
 91 0 l 1
297 347 m 1
 410 347 l 2
 506 347 565 365 585 477 c 0
 605 592 551 608 456 608 c 2
 343 608 l 1
 297 347 l 1
EndSplineSet
EndChar
StartChar: Q
Encoding: 81 81 49
Width: 794
Flags: MW
LayerCount: 2
Fore
SplineSet
120.303710938 342 m 0
 158.919921875 561 263.959960938 686 451.544921875 712 c 0
 475.07421875 715 499.426757812 717 525.426757812 717 c 0
 634.426757812 717 703.959960938 686 746.497070312 638 c 0
 808.977539062 567 812.405273438 456 792.48046875 343 c 0
 764.796875 186 702.811523438 84 601.584960938 26 c 1
 681.427734375 -111 l 1
 507.427734375 -111 l 1
 462.826171875 -18 l 1
 427.296875 -21 420.12109375 -22 392.12109375 -22 c 0
 301.12109375 -22 236.647460938 -2 192.642578125 32 c 0
 106.280273438 98 98.2626953125 217 120.303710938 342 c 0
264.774414062 339 m 2
 250.2578125 251 222.3984375 93 359.755859375 61 c 0
 374.05078125 57 389.874023438 56 405.874023438 56 c 0
 411.874023438 56 418.874023438 56 426.05078125 57 c 1
 358.383789062 195 l 1
 502.383789062 195 l 1
 550.749023438 112 l 1
 551.749023438 112 l 1
 605.446289062 167 627.731445312 231 647.303710938 342 c 0
 665.465820312 445 674.979492188 550 613.501953125 604 c 0
 586.733398438 628 548.672851562 639 509.672851562 639 c 0
 504.672851562 639 498.497070312 638 493.497070312 638 c 0
 449.967773438 635 402.146484375 619 365.798828125 583 c 0
 298.866210938 521 277.470703125 411 268.830078125 362 c 2
 264.774414062 339 l 2
EndSplineSet
EndChar
StartChar: R
Encoding: 82 82 50
Width: 703
Flags: MW
LayerCount: 2
Fore
SplineSet
91 0 m 1
 214 695 l 1
 465 695 l 2
 530 695 597 694 652 666 c 0
 736 625 737 544 729 497 c 0
 712 400 637 340 540 321 c 1
 671 0 l 1
 523 0 l 1
 401 311 l 1
 291 311 l 1
 236 0 l 1
 91 0 l 1
304 384 m 1
 423 384 l 2
 469 384 506 387 534 404 c 0
 561 420 580 448 588 496 c 0
 597 545 588 573 565 589 c 0
 543 604 508 608 463 608 c 2
 343 608 l 1
 304 384 l 1
EndSplineSet
EndChar
StartChar: S
Encoding: 83 83 51
Width: 611
Flags: MW
LayerCount: 2
Fore
SplineSet
56 47 m 1
 103 179 l 1
 161 124 219 87 319 87 c 0
 422 87 448 145 455 184 c 0
 464 235 430 265 400 277 c 0
 342 299 215 294 163 402 c 0
 150 429 142 464 150 509 c 0
 169 615 238 716 426 717 c 2
 430 717 l 2
 512 717 563 705 633 668 c 1
 587 537 l 1
 562 561 523 613 411 613 c 0
 312 613 285 561 279 527 c 0
 271 479 301 458 344 444 c 4
 386 431 438 425 474 409 c 0
 546 378 603 305 584 199 c 0
 564 88 496 -22 300 -22 c 0
 207 -22 126 3 56 47 c 1
EndSplineSet
EndChar
StartChar: T
Encoding: 84 84 52
Width: 733
Flags: MW
LayerCount: 2
Fore
SplineSet
142 584 m 1
 160 689 l 1
 814 689 l 1
 796 584 l 1
 544 588 l 1
 440 0 l 1
 292 0 l 1
 396 588 l 1
 142 584 l 1
EndSplineSet
EndChar
StartChar: U
Encoding: 85 85 53
Width: 764
Flags: MW
LayerCount: 2
Fore
SplineSet
134 246 m 2
 214 695 l 1
 362 695 l 1
 280 230 l 2
 276 209 273 190 272 172 c 0
 270 139 275 111 295 92 c 0
 314 74 345 64 395 64 c 0
 451 64 488 77 514 98 c 0
 556 132 567 185 575 232 c 2
 657 695 l 1
 794 695 l 1
 714 242 l 2
 700 164 672 93 611 44 c 0
 561 3 487 -22 382 -22 c 0
 287 -22 225 -3 186 27 c 0
 138 64 124 120 127 181 c 0
 128 202 130 224 134 246 c 2
EndSplineSet
EndChar
StartChar: V
Encoding: 86 86 54
Width: 733
Flags: MW
LayerCount: 2
Fore
SplineSet
137.546875 695 m 1
 292.546875 695 l 1
 352.00390625 380 l 2
 380.202148438 228 390.209960938 177 396.041015625 125 c 1
 427.03125 193 462.963867188 255 496.424804688 320 c 2
 699.546875 695 l 1
 839.546875 695 l 1
 461 0 l 1
 271 0 l 1
 137.546875 695 l 1
EndSplineSet
EndChar
StartChar: W
Encoding: 87 87 55
Width: 1039
Flags: MW
LayerCount: 2
Fore
SplineSet
138 695 m 1
 270 695 l 1
 270 695 304 344 310 247 c 2
 317 125 l 1
 337 185 331 165 398 321 c 2
 564 695 l 1
 728 695 l 1
 728 695 752 452 761 358 c 2
 772 240 l 2
 777 184 778 136 777 125 c 1
 789 161 834 263 852 303 c 2
 1027 695 l 1
 1146 695 l 1
 835 0 l 1
 666 0 l 1
 635 324 l 2
 620 487 620 505 616 569 c 1
 601 529 563 439 546 402 c 2
 366 0 l 1
 203 0 l 1
 138 695 l 1
EndSplineSet
EndChar
StartChar: X
Encoding: 88 88 56
Width: 733
Flags: MW
LayerCount: 2
Fore
SplineSet
15 0 m 1
 348 369 l 1
 348 369 l 1
 154 695 l 1
 330 695 l 1
 444 487 l 1
 627 695 l 1
 794 695 l 1
 499 368 l 1
 499 368 l 1
 717 0 l 1
 540 0 l 1
 405 261 l 1
 404 261 l 1
 182 0 l 1
 15 0 l 1
EndSplineSet
EndChar
StartChar: Y
Encoding: 89 89 57
Width: 733
Flags: MW
LayerCount: 2
Fore
SplineSet
124.546875 695 m 1
 301.546875 695 l 1
 392.984375 516 l 2
 425.5234375 451 439.41015625 422 445.059570312 403 c 1
 470.818359375 447 682.431640625 683 691.546875 695 c 1
 850.546875 695 l 1
 487.018554688 278 l 1
 438 0 l 1
 293 0 l 1
 342.018554688 278 l 1
 124.546875 695 l 1
EndSplineSet
EndChar
StartChar: Z
Encoding: 90 90 58
Width: 672
Flags: MW
LayerCount: 2
Fore
SplineSet
60 0 m 1
 71.8134765625 67 l 1
 71.8134765625 67 l 1
 531.620117188 599 l 1
 179.915039062 595 l 1
 197.546875 695 l 1
 732.546875 695 l 1
 721.262695312 631 l 1
 721.262695312 631 l 1
 262.80859375 101 l 1
 634.514648438 105 l 1
 616 0 l 1
 60 0 l 1
EndSplineSet
EndChar
StartChar: bracketleft
Encoding: 91 91 59
Width: 343
Flags: MW
LayerCount: 2
Fore
SplineSet
44.85546875 -222 m 1
 216.245117188 750 l 1
 449.245117188 750 l 1
 436.549804688 678 l 1
 337.549804688 678 l 1
 191.55078125 -150 l 1
 290.55078125 -150 l 1
 277.85546875 -222 l 1
 44.85546875 -222 l 1
EndSplineSet
EndChar
StartChar: backslash
Encoding: 92 92 60
Width: 550
Flags: MW
LayerCount: 2
Fore
SplineSet
187 714 m 0
 191 735 211 750 228 750 c 0
 254 750 258 727 262 713 c 2
 455 -175 l 2
 455 -178 455 -182 454 -186 c 0
 451 -204 433 -222 412 -222 c 0
 387 -222 382 -199 378 -180 c 2
 189 685 l 2
 188 694 185 703 187 714 c 0
EndSplineSet
EndChar
StartChar: bracketright
Encoding: 93 93 61
Width: 343
Flags: MW
LayerCount: 2
Fore
SplineSet
-2.44921875 -150 m 1
 97.55078125 -150 l 1
 243.549804688 678 l 1
 143.549804688 678 l 1
 156.245117188 750 l 1
 389.245117188 750 l 1
 217.85546875 -222 l 1
 -15.14453125 -222 l 1
 -2.44921875 -150 l 1
EndSplineSet
EndChar
StartChar: asciicircum
Encoding: 94 94 62
Width: 672
Flags: MW
LayerCount: 2
Fore
SplineSet
252.2265625 472 m 1
 390.322265625 620 l 1
 499.322265625 620 l 1
 585.2265625 472 l 1
 512.2265625 472 l 1
 433.390625 558 l 1
 325.2265625 472 l 1
 252.2265625 472 l 1
EndSplineSet
EndChar
StartChar: underscore
Encoding: 95 95 63
Width: 856
Flags: MW
LayerCount: 2
Fore
SplineSet
39.630859375 -297 m 0
 42.4521484375 -281 56.0361328125 -255 96.0361328125 -255 c 2
 663.036132812 -255 l 2
 710.036132812 -255 712.62890625 -280 709.630859375 -297 c 0
 706.986328125 -312 695.225585938 -339 650.225585938 -339 c 2
 82.2255859375 -339 l 2
 37.2255859375 -339 37.162109375 -311 39.630859375 -297 c 0
EndSplineSet
EndChar
StartChar: grave
Encoding: 96 96 64
Width: 550
Flags: MW
LayerCount: 2
Fore
SplineSet
226.079101562 681 m 1
 363.079101562 681 l 1
 436.569335938 542 l 1
 363.569335938 542 l 1
 226.079101562 681 l 1
EndSplineSet
EndChar
StartChar: a
Encoding: 97 97 65
Width: 525
Flags: MW
LayerCount: 2
Fore
SplineSet
52.74609375 129 m 0
 79.1953125 279 374.079101562 267 375.608398438 270 c 1
 382.837890625 311 l 2
 385.364257812 331 394.416992188 371 381.001953125 397 c 0
 373.646484375 412 358.41015625 422 330.41015625 422 c 0
 235.41015625 422 180.241210938 370 151.008789062 346 c 1
 160.641601562 446 l 1
 225.931640625 476 275.223632812 489 346.223632812 489 c 0
 503.223632812 489 538.057617188 420 519.54296875 315 c 2
 464 0 l 1
 330 0 l 1
 342.166992188 69 l 1
 297.998046875 17 229.060546875 -11 167.060546875 -11 c 0
 82.060546875 -11 40.580078125 60 52.74609375 129 c 0
185.098632812 131 m 0
 178.575195312 94 199.932617188 62 241.932617188 62 c 0
 273.932617188 62 342.106445312 80 355.154296875 154 c 2
 368.37890625 229 l 1
 303.497070312 224 199.028320312 210 185.098632812 131 c 0
EndSplineSet
EndChar
StartChar: b
Encoding: 98 98 66
Width: 561
Flags: MW
LayerCount: 2
Fore
SplineSet
60 0 m 1
 183 695 l 1
 317 695 l 1
 269 424 l 1
 314 456 370 483 439 483 c 0x7c
 574 483 587 366 564 234 c 0
 533 58 442 -11 323 -11 c 0xbc
 265 -11 231 12 205 44 c 1
 197 0 l 1
 60 0 l 1
214 97 m 1
 217 93 222 87 230 80 c 4
 241 71 258 62 285 62 c 0
 389 62 410 138 427 232 c 0
 444 331 456 411 357 411 c 0
 320 411 294 398 264 378 c 1
 214 97 l 1
EndSplineSet
EndChar
StartChar: c
Encoding: 99 99 67
Width: 489
Flags: MW
LayerCount: 2
Fore
SplineSet
77.7890625 237 m 0
 113.407226562 439 235.223632812 489 365.223632812 489 c 0
 442.223632812 489 474.284179688 478 529.641601562 446 c 1
 496.890625 351 l 1
 460.533203125 383 440.470703125 411 352.470703125 411 c 0
 251.470703125 411 231.482421875 326 218.31640625 257 c 2
 213.202148438 228 l 2
 196.275390625 132 202.813476562 67 289.813476562 67 c 0
 381.813476562 67 442.749023438 112 472.451171875 133 c 1
 463.171875 35 l 1
 399.705078125 4 346.060546875 -11 273.060546875 -11 c 0
 82.060546875 -11 54.8671875 107 77.7890625 237 c 0
EndSplineSet
EndChar
StartChar: d
Encoding: 100 100 68
Width: 561
Flags: MW
LayerCount: 2
Fore
SplineSet
78 238 m 0
 92 316 118 398 183 445 c 0
 219 472 263 483 305 483 c 0xbc
 368 483 410 458 440 428 c 1
 488 695 l 1
 622 695 l 1xba
 499 0 l 1
 362 0 l 1
 371 52 l 1
 327 15 280 -11 217 -11 c 0
 186 -11 110 -5 81 72 c 0
 64 118 66 172 78 238 c 0
217 250 m 0
 203 169 196 124 214 94 c 0
 228 72 256 61 284 61 c 0
 344 61 377 102 380 103 c 1
 429 382 l 1xbc
 424 387 418 390 413 394 c 4
 401 403 388 408 371 410 c 0
 367 410 362 411 357 411 c 0
 251 411 231 328 217 250 c 0
EndSplineSet
EndChar
StartChar: e
Encoding: 101 101 69
Width: 511
Flags: MW
LayerCount: 2
Fore
SplineSet
72.318359375 240 m 0
 94.888671875 368 164.223632812 489 355.223632812 489 c 0
 543.223632812 489 542.477539062 360 523.08203125 250 c 1
 523.08203125 250 l 1
 202.08203125 250 l 1
 193.618164062 202 186.272460938 149 208.04296875 108 c 0
 217.045898438 91 239.932617188 62 299.932617188 62 c 0
 384.932617188 62 451.162109375 103 488.74609375 129 c 1
 479.700195312 38 l 1
 443.350585938 19 376.060546875 -11 280.060546875 -11 c 0
 151.060546875 -11 36.876953125 39 72.318359375 240 c 0
215.603515625 304 m 1
 419.603515625 304 l 1
 426.001953125 397 381.3515625 416 343.3515625 416 c 0
 257.3515625 416 225.364257812 331 215.603515625 304 c 1
EndSplineSet
EndChar
StartChar: f
Encoding: 102 102 70
Width: 336
Flags: MW
LayerCount: 2
Fore
SplineSet
101 400 m 1
 113 472 l 1
 169 472 l 1
 181 540 l 2
 183 554 187 567 191 579 c 0
 205 619 227 647 256 667 c 0
 298 696 353 706 412 706 c 0
 446 706 468 703 504 695 c 1
 486 594 l 1
 463 618 444 633 400 633 c 0
 377 633 359 628 347 620 c 4
 325 606 319 583 316 567 c 2
 299 472 l 1
 398 472 l 1
 386 400 l 1
 290 400 l 1
 219 0 l 1
 86 0 l 1
 157 400 l 1
 101 400 l 1
EndSplineSet
EndChar
StartChar: g
Encoding: 103 103 71
Width: 550
Flags: MW
LayerCount: 2
Fore
SplineSet
222.016601562 295 m 2xea80
 217.431640625 269 214.0234375 244 227.202148438 228 c 0
 235.262695312 217 252.205078125 211 278.205078125 211 c 0
 307.205078125 211 326.262695312 217 339.202148438 228 c 0
 358.0234375 244 363.431640625 269 368.192382812 296 c 2
 371.190429688 313 l 2
 375.598632812 338 377.830078125 362 366.651367188 378 c 0
 358.767578125 390 343.001953125 397 315.001953125 397 c 0
 281.001953125 397 261.415039062 388 248.946289062 374 c 0
 234.125 358 229.069335938 335 225.013671875 312 c 2
 222.016601562 295 l 2xea80
115.891601562 -63 m 0xe440
 111.659179688 -87 120.837890625 -103 137.8984375 -114 c 0
 163.077148438 -130 204.372070312 -134 248.372070312 -134 c 2
 254.372070312 -134 l 2
 318.372070312 -134 356.311523438 -123 378.95703125 -108 c 0
 398.249023438 -95 405.893554688 -80 408.186523438 -67 c 0
 415.239257812 -27 369.001953125 -17 276.001953125 -17 c 2
 203.001953125 -17 l 1
 182.001953125 -17 l 2
 152.001953125 -17 123.296875 -21 115.891601562 -63 c 0xe440
12.5390625 -65 m 0xec40
 22.4130859375 -9 60.998046875 17 85.11328125 29 c 1
 67.6376953125 66 70.2216796875 92 73.04296875 108 c 0xe9
 78.685546875 140 93.2705078125 166 114.501953125 190 c 1
 114.854492188 192 l 1
 97.91015625 215 85.08203125 250 94.4267578125 303 c 0
 101.48046875 343 119.649414062 395 171.8203125 430 c 0
 205.875976562 453 255.697265625 469 325.697265625 469 c 2
 327.697265625 469 l 2xea
 418.697265625 469 436.465820312 445 453.465820312 445 c 0
 465.465820312 445 537.521484375 468 600.521484375 468 c 1
 606.47265625 394 l 1xf2
 593.47265625 394 560.177734375 398 544.177734375 398 c 2
 490.001953125 397 l 1xea40
 503.359375 365 503.24609375 336 497.603515625 304 c 0xe880
 490.7265625 265 472.734375 214 423.5625 179 c 0
 389.331054688 155 339.333007812 138 266.333007812 138 c 0
 226.333007812 138 195.038085938 142 155.036132812 159 c 1xec80
 152.978515625 153 150.919921875 147 149.862304688 141 c 0xe9
 146.51171875 122 149.221679688 92 198.221679688 92 c 2
 305.221679688 92 l 2
 363.221679688 92 420.516601562 88 459.813476562 67 c 4
 490.993164062 51 512.408203125 25 514.826171875 -18 c 1
 515.534179688 -31 514.888671875 -46 511.891601562 -63 c 0
 504.309570312 -106 476.31640625 -157 398.379882812 -185 c 0
 345.029296875 -204 290.676757812 -206 237.676757812 -206 c 0
 197.676757812 -206 124.676757812 -206 72.2607421875 -180 c 0
 45.5537109375 -167 24.080078125 -147 15.3701171875 -117 c 0
 10.19140625 -101 9.365234375 -83 12.5390625 -65 c 0xec40
EndSplineSet
EndChar
StartChar: h
Encoding: 104 104 72
Width: 561
Flags: MW
LayerCount: 2
Fore
SplineSet
59 0 m 1
 181.546875 695 l 1
 315.546875 695 l 1
 259.828125 379 l 1
 284.528320312 417 342.166015625 483 439.166015625 483 c 0
 578.166015625 483 572.236328125 404 556.366210938 314 c 0
 553.8984375 300 550.4296875 286 548.137695312 273 c 2
 500 0 l 1
 364 0 l 1
 421.659179688 327 l 2
 429.946289062 374 427.470703125 411 368.470703125 411 c 0
 300.470703125 411 260.127929688 341 247.311523438 291 c 2
 196 0 l 1
 59 0 l 1
EndSplineSet
EndChar
StartChar: i
Encoding: 105 105 73
Width: 256
Flags: MW
LayerCount: 2
Fore
SplineSet
161 573 m 1
 183 695 l 1
 317 695 l 1
 295 573 l 1
 161 573 l 1
EndSplineSet
Refer: 137 305 S 1 0 0 1 0 0 2
EndChar
StartChar: j
Encoding: 106 106 74
Width: 286
Flags: MW
LayerCount: 2
Fore
SplineSet
-96 -148 m 5
 -62 -76 l 5
 -36 -88 -20 -93 10 -93 c 4
 50 -93 68 -85 76 -72 c 4
 79 -67 81 -61 82 -55 c 6
 175 472 l 5
 309 472 l 5
 220 -34 l 6
 214 -63 208 -110 169 -143 c 4
 144 -164 107 -178 48 -178 c 4
 -12 -178 -58 -165 -96 -148 c 5
193 573 m 1
 215 695 l 1
 349 695 l 1
 327 573 l 1
 193 573 l 1
EndSplineSet
EndChar
StartChar: k
Encoding: 107 107 75
Width: 531
Flags: MW
LayerCount: 2
Fore
SplineSet
68 0 m 1
 190.546875 695 l 1
 308.546875 695 l 1
 241.719726562 316 l 1
 418.2265625 472 l 1
 570.2265625 472 l 1
 366.6640625 293 l 1
 511 0 l 1
 376 0 l 1
 272.852539062 209 l 1
 210.331054688 155 l 1
 183 0 l 1
 68 0 l 1
EndSplineSet
EndChar
StartChar: l
Encoding: 108 108 76
Width: 256
Flags: MW
LayerCount: 2
Fore
SplineSet
60 0 m 1
 182.546875 695 l 1
 316.546875 695 l 1
 194 0 l 1
 60 0 l 1
EndSplineSet
EndChar
StartChar: m
Encoding: 109 109 77
Width: 867
Flags: MW
LayerCount: 2
Fore
SplineSet
59 0 m 1xdc
 143 478 l 1
 274 478 l 1
 263 415 l 1
 257 373 l 1
 282 414 341 483 439 483 c 0xec
 573 483 561 410 566 379 c 1
 591 417 648 484 744 484 c 0
 788 484 817 476 837 463 c 4
 881 433 873 376 862 314 c 0
 860 300 856 286 854 273 c 2
 806 0 l 1
 670 0 l 1
 728 327 l 2
 736 375 732 411 674 411 c 0
 605 411 565 341 552 291 c 2
 501 0 l 1
 364 0 l 1
 422 327 l 2
 430 375 427 411 368 411 c 0
 300 411 260 341 247 291 c 2
 196 0 l 1
 59 0 l 1xdc
EndSplineSet
EndChar
StartChar: n
Encoding: 110 110 78
Width: 561
Flags: MW
LayerCount: 2
Fore
SplineSet
59 0 m 1xd8
 143 478 l 1
 274 478 l 1
 263 415 l 1
 257 373 l 1
 282 415 341 483 439 483 c 0
 492 483 524 471 543 452 c 4
 573 421 567 370 557 315 c 0
 555 301 550 288 548 274 c 2
 500 0 l 1
 364 0 l 1
 422 327 l 2xe8
 430 374 427 411 368 411 c 0
 300 411 260 341 247 291 c 2
 196 0 l 1
 59 0 l 1xd8
EndSplineSet
EndChar
StartChar: o
Encoding: 111 111 79
Width: 550
Flags: MW
LayerCount: 2
Fore
SplineSet
72 239 m 0
 107 436 236 489 360 489 c 0
 484 489 595 436 560 239 c 0
 523 28 396 -11 272 -11 c 0
 148 -11 35 28 72 239 c 0
208 241 m 0
 194 164 179 67 287 67 c 0
 395 67 410 164 424 241 c 0
 438 323 455 416 347 416 c 0
 239 416 222 323 208 241 c 0
EndSplineSet
EndChar
StartChar: p
Encoding: 112 112 80
Width: 561
Flags: MW
LayerCount: 2
Fore
SplineSet
30.5537109375 -167 m 1
 143.2265625 472 l 1
 277.2265625 472 l 1
 268.41015625 422 l 1
 285.526367188 434 305.641601562 446 326.405273438 456 c 0
 362.2265625 472 403.166015625 483 449.166015625 483 c 0
 501.166015625 483 540.639648438 463 560.3515625 416 c 0
 576.475585938 377 579.248046875 319 564.965820312 238 c 0
 551.036132812 159 525.985351562 102 491.932617188 62 c 0
 447.939453125 11 390.060546875 -11 324.060546875 -11 c 0
 288.060546875 -11 261.647460938 -2 240.116210938 12 c 0
 226.703125 21 214.642578125 32 204.758789062 44 c 1
 167.553710938 -167 l 1
 30.5537109375 -167 l 1
213.927734375 96 m 1
 217.3984375 93 226.9296875 79 246.342773438 70 c 0
 256.4609375 65 268.932617188 62 283.932617188 62 c 0
 321.932617188 62 357.106445312 80 380.395507812 110 c 0
 416.506835938 156 421.147460938 205 429.552734375 247 c 2
 432.784179688 271 l 2
 435.016601562 295 437.893554688 334 424.182617188 364 c 4
 413.23828125 387 393.412109375 405 354.412109375 405 c 0
 335.412109375 405 317.70703125 401 303.825195312 396 c 0
 279.23828125 387 263.946289062 374 262.946289062 374 c 1
 213.927734375 96 l 1
EndSplineSet
EndChar
StartChar: q
Encoding: 113 113 81
Width: 561
Flags: MW
LayerCount: 2
Fore
SplineSet
77 235 m 0
 108 413 200 483 319 483 c 0
 398 483 425 433 437 411 c 1
 450 483 l 1
 584 483 l 1xf4
 470 -167 l 1
 333 -167 l 1
 371 53 l 1xf8
 329 13 276 -11 220 -11 c 0
 174 -11 124 4 97 42 c 0
 59 96 67 176 77 235 c 0
214 235 m 0xf4
 204 181 202 127 222 94 c 4
 233 74 254 62 286 62 c 0
 327 62 358 83 384 108 c 1
 424 334 l 2
 430 370 400 405 355 405 c 0
 326 405 280 393 248 338 c 0
 228 306 220 270 214 235 c 0xf4
EndSplineSet
EndChar
StartChar: r
Encoding: 114 114 82
Width: 372
Flags: MW
LayerCount: 2
Fore
SplineSet
60 0 m 1xd0
 144.284179688 478 l 1
 272.284179688 478 l 1
 259.059570312 403 l 1xe0
 251.94921875 357 l 1
 276.883789062 402 338.813476562 481 441.166015625 483 c 1
 423.180664062 381 l 1
 308.828125 379 251.956054688 306 239.844726562 260 c 2
 194 0 l 1
 60 0 l 1xd0
EndSplineSet
EndChar
StartChar: s
Encoding: 115 115 83
Width: 422
Flags: MW
LayerCount: 2
Fore
SplineSet
36 36 m 1
 75 146 l 1
 86 133 128 68 229 68 c 0
 295 68 314 99 318 124 c 0
 323 152 303 170 280 178 c 0
 256 186 215 188 176 204 c 0
 149 215 122 233 106 265 c 0
 100 278 89 304 96 342 c 0
 108 408 139 445 180 466 c 4
 215 484 258 489 300 489 c 0
 364 489 402 482 460 456 c 1
 426 360 l 1
 381 399 348 417 276 417 c 0
 218 417 205 387 201 367 c 0
 191 313 252 313 311 300 c 0
 374 286 437 235 421 143 c 0
 411 87 388 50 357 26 c 0
 319 -2 269 -11 216 -11 c 0
 144 -11 90 5 36 36 c 1
EndSplineSet
EndChar
StartChar: t
Encoding: 116 116 84
Width: 404
Flags: MW
LayerCount: 2
Fore
SplineSet
91 400 m 1
 103 472 l 1
 173 472 l 1
 197 607 l 1
 325 607 l 1
 301 472 l 1xd0
 438 472 l 1
 426 400 l 1
 289 400 l 1
 246 158 l 2
 240 126 239 102 246 86 c 4
 252 74 263 67 282 67 c 0xe0
 333 67 370 103 373 103 c 1
 379 33 l 1
 319 7 259 -11 185 -11 c 0
 153 -11 133 0 121 16 c 0
 97 49 106 106 112 142 c 2
 158 400 l 1xe0
 91 400 l 1
EndSplineSet
EndChar
StartChar: u
Encoding: 117 117 85
Width: 561
Flags: MW
LayerCount: 2
Fore
SplineSet
82 130 m 2
 142 472 l 1
 279 472 l 1
 219 130 l 2
 213 93 209 71 221 60 c 0
 229 53 243 50 268 50 c 0
 290 50 316 57 339 75 c 0
 357 89 375 110 386 140 c 0
 390 151 393 162 395 175 c 2
 447 472 l 1
 583 472 l 1
 500 0 l 1
 367 0 l 1
 375 46 l 1
 380 80 l 1
 367 62 345 36 309 16 c 0
 281 1 246 -11 204 -11 c 0
 156 -11 126 -4 106 10 c 0
 71 34 73 77 82 130 c 2
EndSplineSet
EndChar
StartChar: v
Encoding: 118 118 86
Width: 500
Flags: MW
LayerCount: 2
Fore
SplineSet
98 472 m 1
 222 472 l 1
 254 248 l 2
 267 156 272 142 272 117 c 1
 298 165 427 436 446 472 c 1
 567 472 l 1
 335 0 l 1
 164 0 l 1
 98 472 l 1
EndSplineSet
EndChar
StartChar: w
Encoding: 119 119 87
Width: 744
Flags: MW
LayerCount: 2
Fore
SplineSet
98 472 m 1
 220 472 l 1
 251 192 252 164 253 133 c 1
 279 198 398 457 404 472 c 1
 499 472 l 1
 521 247 l 2
 530 152 532 139 534 117 c 1
 558 174 682 452 692 472 c 1
 812 472 l 1
 600 0 l 1
 431 0 l 1
 407 296 405 268 411 336 c 1
 393 268 290 31 273 0 c 1
 143 0 l 1
 98 472 l 1
EndSplineSet
EndChar
StartChar: x
Encoding: 120 120 88
Width: 500
Flags: MW
LayerCount: 2
Fore
SplineSet
0 0 m 1
 235 243 l 1
 236 247 l 1
 89 472 l 1
 226 472 l 1
 305 337 l 1
 307 337 l 1
 428 472 l 1
 564 472 l 1
 344 245 l 1
 344 244 l 1
 500 0 l 1
 362 0 l 1
 277 170 l 1
 136 0 l 1
 0 0 l 1
EndSplineSet
EndChar
StartChar: y
Encoding: 121 121 89
Width: 500
Flags: MW
LayerCount: 2
Fore
SplineSet
98.2265625 472 m 1
 227.2265625 472 l 1
 306.5625 179 291.857421875 175 293.157226562 137 c 1
 306.970703125 204 435.11328125 443 446.2265625 472 c 1
 567.2265625 472 l 1
 306.123046875 -39 l 2
 280.483398438 -88 248.840820312 -120 214.961914062 -142 c 4
 173.201171875 -169 128.614257812 -178 92.6142578125 -178 c 0
 61.6142578125 -178 30.3193359375 -174 14.84765625 -171 c 1
 23.8330078125 -69 l 1
 46.8935546875 -80 70.6015625 -93 109.6015625 -93 c 0
 136.6015625 -93 155.659179688 -87 170.422851562 -77 c 0
 197.596679688 -59 208.239257812 -27 223 0 c 1
 223 0 l 1
 223 0 l 1
 98.2265625 472 l 1
EndSplineSet
EndChar
StartChar: z
Encoding: 122 122 90
Width: 476
Flags: MW
LayerCount: 2
Fore
SplineSet
30 0 m 1
 38.6396484375 49 l 1
 357.236328125 404 l 1
 115.883789062 402 l 1
 128.2265625 472 l 1
 522.2265625 472 l 1
 514.291992188 427 l 1
 198.047851562 74 l 1
 455.400390625 76 l 1
 442 0 l 1
 30 0 l 1
EndSplineSet
EndChar
StartChar: braceleft
Encoding: 123 123 91
Width: 550
Flags: MW
LayerCount: 2
Fore
SplineSet
95 227 m 1
 108 300 l 1
 193 301 261 346 277 403 c 2
 282 426 l 1
 317 624 l 2
 321 642 324 669 349 694 c 4
 365 710 389 724 427 735 c 0
 475 749 523 750 570 750 c 2
 627 750 l 1
 615 678 l 1
 596 678 l 2
 479 678 460 660 454 627 c 2
 418 426 l 2
 415 408 412 390 403 373 c 0
 366 303 273 268 193 264 c 1
 192 263 l 1
 283 259 353 217 364 155 c 0
 367 138 364 120 361 101 c 2
 326 -99 l 2
 319 -139 347 -150 449 -150 c 2
 469 -150 l 1
 456 -222 l 1
 399 -222 l 2
 354 -222 294 -220 249 -203 c 0
 210 -189 183 -163 186 -120 c 2
 225 102 l 2
 227 121 231 132 226 151 c 0
 214 201 157 227 95 227 c 1
EndSplineSet
EndChar
StartChar: bar
Encoding: 124 124 92
Width: 306
Flags: MW
LayerCount: 2
Fore
SplineSet
79 -173 m 2
 234 701 l 2
 237 718 244 730 252 737 c 0
 264 748 277 750 284 750 c 0
 293 750 304 748 311 738 c 0
 317 730 320 717 316 696 c 2
 161 -184 l 2
 158 -195 151 -204 143 -211 c 4
 134 -218 123 -222 113 -222 c 0
 104 -222 92 -219 85 -209 c 0
 79 -202 76 -190 79 -173 c 2
EndSplineSet
EndChar
StartChar: braceright
Encoding: 125 125 93
Width: 550
Flags: MW
LayerCount: 2
Fore
SplineSet
28.55078125 -150 m 1
 48.55078125 -150 l 2
 135.55078125 -150 168.137695312 -141 181.6640625 -121 c 0
 185.72265625 -115 188.1328125 -107 189.543945312 -99 c 2
 224.985351562 102 l 2
 228.159179688 120 231.333007812 138 241.506835938 156 c 0
 277.673828125 225 370.844726562 260 450.374023438 263 c 1
 450.55078125 264 l 1
 371.255859375 268 291.426757812 303 279.59375 372 c 0
 275.767578125 390 278.94140625 408 282.115234375 426 c 2
 317.556640625 627 l 2
 324.610351562 667 301.373046875 677 174.549804688 678 c 1
 187.245117188 750 l 1
 245.245117188 750 l 2
 300.245117188 750 462.245117188 750 456.436523438 649 c 2
 453.028320312 624 l 1
 418.115234375 426 l 2
 415.588867188 406 412.649414062 395 417.475585938 377 c 0
 422.419921875 354 451.07421875 301 547.8984375 300 c 1
 535.026367188 227 l 1
 438.026367188 227 390.680664062 174 377.625 151 c 0
 363.74609375 129 363.749023438 112 360.985351562 102 c 2
 325.896484375 -97 l 2
 323.604492188 -110 321.25390625 -129 308.903320312 -148 c 4
 295.024414062 -170 269.145507812 -192 216.5 -207 c 0
 168.03125 -221 119.85546875 -222 72.85546875 -222 c 2
 15.85546875 -222 l 1
 28.55078125 -150 l 1
EndSplineSet
EndChar
StartChar: asciitilde
Encoding: 126 126 94
Width: 672
Flags: MW
LayerCount: 2
Fore
SplineSet
191 566 m 1x58
 208 646 282 695 357 695 c 0x38
 457 695 490 639 552 639 c 0x58
 567 639 615 645 630 695 c 1x98
 702 695 l 1x38
 685 614 611 566 536 566 c 0x58
 438 566 403 622 342 622 c 0x38
 326 622 278 616 264 566 c 1x98
 191 566 l 1x58
EndSplineSet
EndChar
StartChar: exclamdown
Encoding: 161 161 100
Width: 367
Flags: MW
LayerCount: 2
Fore
SplineSet
88 -167 m 1xe0
 185 311 l 1
 290 311 l 1xd0
 225 -124 l 5
 219 -167 l 1
 88 -167 l 1xe0
EndSplineSet
Refer: 14 46 N 1 0 0 1 101 397 2
EndChar
StartChar: cent
Encoding: 162 162 101
Width: 550
Flags: MW
LayerCount: 2
Fore
SplineSet
77.61328125 236 m 0
 113.231445312 438 256.166015625 483 355.047851562 488 c 1
 367.919921875 561 l 1
 439.919921875 561 l 1
 427.223632812 489 l 1
 496.518554688 485 525.108398438 477 591.641601562 446 c 1
 557.890625 351 l 1
 500.296875 393 479.588867188 406 413.293945312 410 c 1
 352.990234375 68 l 1
 424.577148438 77 460.693359375 89 533.451171875 133 c 1
 524.171875 35 l 1
 435.647460938 -2 384.942382812 -6 339.236328125 -10 c 1
 326.365234375 -83 l 1
 254.365234375 -83 l 1
 267.236328125 -10 l 1
 162 0 42.876953125 39 77.61328125 236 c 0
211.791992188 220 m 2
 201.154296875 154 202.340820312 87 281.342773438 70 c 1
 340.94140625 408 l 1
 233.23828125 387 223.37109375 280 215.670898438 242 c 2
 211.791992188 220 l 2
EndSplineSet
EndChar
StartChar: sterling
Encoding: 163 163 102
Width: 703
Flags: MW
LayerCount: 2
Fore
SplineSet
69.345703125 53 m 0
 78.5146484375 105 141.509765625 139 232.509765625 139 c 0xbc
 241.509765625 139 250.509765625 139 259.333007812 138 c 1
 272.5 207 l 1
 290.837890625 311 l 1
 236.837890625 311 l 1
 249.709960938 384 l 1
 303.709960938 384 l 1
 326.279296875 512 l 2
 338.622070312 582 364.083984375 647 415.666015625 690 c 0
 454.307617188 722 508.834960938 742 583.834960938 742 c 0
 713.834960938 742 748.264648438 614 732.571289062 525 c 0
 723.40234375 473 684.344726562 467 665.9921875 465 c 1
 631.697265625 469 591.518554688 485 595.866210938 521 c 1
 595.866210938 521 l 1
 597.629882812 531 l 2
 616.143554688 636 607.962890625 669 570.962890625 669 c 0
 545.962890625 669 527.551757812 661 514.436523438 649 c 0
 488.380859375 626 480.561523438 593 480.561523438 593 c 1
 474.03515625 573 470.33203125 552 466.805664062 532 c 2
 440.709960938 384 l 1
 525.709960938 384 l 1
 512.837890625 311 l 1
 427.837890625 311 l 1
 410.91015625 215 l 2
 403.5625 179 397.21484375 143 384.924804688 113 c 1
 397.690429688 106 466.458984375 82 525.458984375 82 c 0
 542.458984375 82 553.690429688 106 559.509765625 139 c 1
 695.509765625 139 l 1xbc
 675.052734375 40 577.060546875 -11 487.060546875 -11 c 0x7c
 417.060546875 -11 327.173828125 18 305.055664062 23 c 1
 286.116210938 12 241.060546875 -11 155.060546875 -11 c 0
 96.060546875 -11 62.64453125 15 69.345703125 53 c 0
205.81640625 50 m 0
 208.28515625 64 196.282226562 81 198.282226562 81 c 0
 204.282226562 81 221.874023438 56 221.874023438 56 c 1
 199.698242188 55 197.993164062 51 195.993164062 51 c 0
 190.993164062 51 206.345703125 53 205.81640625 50 c 0
EndSplineSet
EndChar
StartChar: currency
Encoding: 164 164 106
Width: 808
Flags: MW
LayerCount: 2
Fore
SplineSet
29.7685546875 -24 m 0
 31.1787109375 -16 34.236328125 -10 39.294921875 -4 c 0
 46.8818359375 5 57.46875 14 71.5849609375 26 c 0
 96.287109375 47 116.637695312 66 159.80859375 101 c 9
 159.80859375 101 l 17
 148.216796875 126 121.091796875 182 142.603515625 304 c 0
 163.939453125 425 210.813476562 481 231.221679688 506 c 9
 231.221679688 506 l 17
 158.561523438 593 141.559570312 610 145.262695312 631 c 0
 149.670898438 656 173.66796875 673 194.66796875 673 c 0
 199.66796875 673 204.4921875 672 209.138671875 670 c 0
 227.551757812 661 243.438476562 632 301.625 565 c 1
 373.735351562 611 454.146484375 619 515.146484375 619 c 0
 635.146484375 619 687.916992188 578 705.625 565 c 1
 705.625 565 l 1
 810.494140625 655 l 2
 818.728515625 662 832.66796875 673 849.66796875 673 c 0
 870.66796875 673 888.670898438 656 884.262695312 631 c 0
 879.1484375 602 848.856445312 589 754.221679688 506 c 1
 765.813476562 481 792.939453125 425 771.426757812 303 c 0
 750.091796875 182 703.216796875 126 682.80859375 101 c 1
 765.352539062 2 772.823242188 -1 768.768554688 -24 c 0
 766.65234375 -36 759.712890625 -47 750.478515625 -54 c 0
 741.244140625 -61 730.5390625 -65 719.5390625 -65 c 0
 713.5390625 -65 708.71484375 -64 703.244140625 -61 c 0
 686.831054688 -52 659.883789062 -12 613.405273438 42 c 9
 613.405273438 42 l 17
 541.470703125 -3 457.060546875 -11 402.060546875 -11 c 0
 281.060546875 -11 230.584960938 26 208.405273438 42 c 1
 96.654296875 -53 87.5390625 -65 64.5390625 -65 c 0
 39.5390625 -65 26.0654296875 -45 29.7685546875 -24 c 0
225.426757812 303 m 0
 202.15234375 171 236.6953125 72 412.6953125 72 c 2
 429.6953125 72 l 2
 548.400390625 76 655.983398438 119 688.603515625 304 c 0
 712.0546875 437 677.334960938 535 501.334960938 535 c 2
 484.334960938 535 l 2
 366.629882812 531 258.223632812 489 225.426757812 303 c 0
EndSplineSet
EndChar
StartChar: yen
Encoding: 165 165 95
Width: 733
Flags: MW
LayerCount: 2
Fore
SplineSet
5 214 m 0
 6 222 11 233 22 241 c 0
 30 246 42 250 58 250 c 2
 338 250 l 1
 343 277 l 17
 272 414 l 1
 88 414 l 2
 82 414 75 414 69 415 c 0
 60 417 54 422 50 428 c 4
 45 435 45 443 46 450 c 0
 48 461 55 470 64 477 c 0
 69 481 75 483 80 485 c 0
 85 486 91 487 97 487 c 0
 99 487 101 487 103 487 c 2
 234 487 l 1
 127 695 l 1
 303 695 l 1
 409 487 l 1
 513 487 l 1
 693 695 l 1
 852 695 l 1
 671 487 l 1
 802 487 l 2
 810 487 818 487 825 485 c 0
 840 480 848 466 845 450 c 0
 843 438 832 420 810 415 c 0
 804 414 797 414 791 414 c 2
 607 414 l 1
 488 278 l 1
 483 250 l 1
 768 250 l 2
 777 250 784 248 789 245 c 0
 802 238 806 224 804 213 c 0
 802 203 795 190 778 183 c 0
 770 180 762 178 751 178 c 2
 470 178 l 1
 439 0 l 1
 294 0 l 1
 325 178 l 1
 44 178 l 2
 42 178 40 177 38 177 c 0
 34 177 30 177 27 178 c 0
 20 180 15 183 12 187 c 0
 5 195 3 205 5 214 c 0
443 414 m 1
 446 403 l 1
 453 414 l 1
 443 414 l 1
EndSplineSet
EndChar
StartChar: brokenbar
Encoding: 166 166 96
Width: 183
Flags: MW
LayerCount: 2
Fore
SplineSet
72.98046875 136 m 2
 80.9150390625 181 110.796875 186 123.796875 186 c 0
 139.796875 186 163.385742188 178 156.157226562 137 c 2
 102.024414062 -170 l 2
 93.7373046875 -217 65.85546875 -222 51.85546875 -222 c 0
 36.85546875 -222 11.265625 -214 18.4951171875 -173 c 2
 72.98046875 136 l 2
117.944335938 391 m 2
 172.076171875 698 l 2
 180.1875 744 209.245117188 750 223.245117188 750 c 0
 239.245117188 750 262.658203125 741 255.428710938 700 c 2
 201.296875 393 l 2
 193.185546875 347 164.127929688 341 151.127929688 341 c 0
 136.127929688 341 110.361328125 348 117.944335938 391 c 2
EndSplineSet
EndChar
StartChar: section
Encoding: 167 167 105
Width: 533
Flags: MW
LayerCount: 2
Fore
SplineSet
29 -109 m 1
 67 1 l 1
 89 -35 124 -105 242 -105 c 0
 297 -105 322 -46 327 -15 c 0
 338 47 273 50 215 88 c 0
 195 101 103 161 122 269 c 0
 125 285 134 318 162 352 c 0
 175 368 192 383 215 398 c 1
 215 399 l 1
 183 430 159 477 170 539 c 0
 186 629 278 706 393 706 c 0
 475 706 523 682 567 650 c 1
 546 590 l 1
 530 545 l 1
 517 566 484 633 383 633 c 0
 326 633 302 571 297 543 c 0
 291 511 307 494 331 480 c 0
 354 467 383 456 409 439 c 0
 453 411 518 353 501 258 c 0
 496 231 485 205 467 182 c 4
 451 162 433 145 410 130 c 1
 410 129 l 1
 444 94 464 45 454 -11 c 0
 438 -101 346 -178 232 -178 c 0
 146 -178 91 -158 29 -109 c 1
249 272 m 0
 244 244 255 226 279 211 c 0
 294 202 314 193 338 183 c 1
 343 189 367 212 375 256 c 0
 380 282 370 299 349 314 c 0
 334 324 314 334 287 345 c 1
 281 337 257 316 249 272 c 0
EndSplineSet
EndChar
StartChar: copyright
Encoding: 169 169 143
Width: 1143
Flags: MW
LayerCount: 2
Fore
SplineSet
106.55078125 264 m 4
 178.315429688 671 453.30078125 773 705.30078125 773 c 4
 1114.30078125 773 1171.51367188 519 1126.55078125 264 c 4
 1054.78515625 -143 779.799804688 -245 527.799804688 -245 c 4
 118.799804688 -245 61.5869140625 9 106.55078125 264 c 4
189.55078125 264 m 4
 142.823242188 -1 231.434570312 -162 540.434570312 -162 c 4
 845.434570312 -162 995.58984375 -8 1043.55078125 264 c 4
 1097.15332031 568 962.489257812 689 691.489257812 689 c 4
 460.489257812 689 249.501953125 604 189.55078125 264 c 4
307.0234375 244 m 0
 317.779296875 305 348.536132812 366 397.646484375 412 c 0
 488.634765625 497 634.75 509 733.75 509 c 0
 795.75 509 831.869140625 504 893.341796875 484 c 1
 847.243164062 353 l 1
 823.298828125 376 797.94140625 408 713.94140625 408 c 0
 514.94140625 408 466.485351562 309 454.84765625 243 c 0
 431.572265625 111 538.75390625 78 661.75390625 78 c 0
 747.75390625 78 778.103515625 97 833.5703125 128 c 1
 822.998046875 17 l 1
 769.942382812 -6 732.944335938 -23 644.944335938 -23 c 0
 481.944335938 -23 319.057617188 6 304.15234375 171 c 0
 301.383789062 195 302.615234375 219 307.0234375 244 c 0
EndSplineSet
EndChar
StartChar: ordfeminine
Encoding: 170 170 131
Width: 489
Flags: MW
LayerCount: 2
Fore
SplineSet
111 460 m 0
 117 495 159 501 184 505 c 0
 263 520 324 518 358 520 c 1
 371 594 l 2
 388 692 368 701 345 701 c 0
 258 701 199 619 199 619 c 1
 209 719 l 1
 260 751 302 767 366 767 c 0
 537 767 515 633 503 567 c 2
 469 375 l 1
 335 375 l 1
 346 439 l 1
 292 372 228 364 204 364 c 0
 131 364 104 422 111 460 c 0
244 463 m 0
 242 452 251 437 275 437 c 0
 308 437 333 466 343 480 c 9
 343 480 l 17
 279 476 258 474 249 470 c 0
 245 468 245 466 244 463 c 0
EndSplineSet
EndChar
StartChar: guillemotleft
Encoding: 171 171 108
Width: 733
Flags: MW
LayerCount: 2
Fore
SplineSet
114.7890625 237 m 5
 367.40234375 473 l 5
 474.40234375 473 l 5
 229.61328125 236 l 5
 391 0 l 5
 284 0 l 5
 114.7890625 237 l 5
346.7890625 237 m 5
 599.40234375 473 l 5
 706.40234375 473 l 5
 461.61328125 236 l 5
 623 0 l 5
 516 0 l 5
 346.7890625 237 l 5
EndSplineSet
EndChar
StartChar: logicalnot
Encoding: 172 172 144
Width: 672
Flags: MW
LayerCount: 2
Fore
SplineSet
123.654296875 361 m 0
 126.298828125 376 140.059570312 403 180.059570312 403 c 2
 631.059570312 403 l 2
 658.059570312 403 679.296875 393 672.419921875 354 c 2
 628.514648438 105 l 2
 620.403320312 59 591.345703125 53 577.345703125 53 c 0
 557.345703125 53 541.813476562 67 543.045898438 91 c 0
 543.6328125 100 545.395507812 110 547.159179688 120 c 2
 582.424804688 320 l 1
 179.424804688 320 l 2
 175.424804688 320 171.248046875 319 166.248046875 319 c 0
 121.248046875 319 121.890625 351 123.654296875 361 c 0
EndSplineSet
EndChar
StartChar: registered
Encoding: 174 174 145
Width: 1143
Flags: MW
LayerCount: 2
Fore
SplineSet
106.55078125 264 m 0
 178.315429688 671 453.30078125 773 705.30078125 773 c 0
 1114.30078125 773 1171.51367188 519 1126.55078125 264 c 0
 1054.78515625 -143 779.799804688 -245 527.799804688 -245 c 0
 118.799804688 -245 61.5869140625 9 106.55078125 264 c 0
189.55078125 264 m 0
 142.823242188 -1 231.434570312 -162 540.434570312 -162 c 0
 845.434570312 -162 995.58984375 -8 1043.55078125 264 c 0
 1097.15332031 568 962.489257812 689 691.489257812 689 c 0
 460.489257812 689 249.501953125 604 189.55078125 264 c 0
325 0 m 1
 410.6953125 486 l 1
 671.6953125 486 l 2
 728.6953125 486 801.518554688 485 855.815429688 464 c 0
 883.052734375 454 906.407226562 439 921.3515625 416 c 0
 934.649414062 395 939.888671875 368 934.951171875 340 c 0
 921.7265625 265 842.026367188 227 763.91015625 215 c 1
 906 0 l 1
 758 0 l 1
 626.5 207 l 1
 506.5 207 l 1
 470 0 l 1
 325 0 l 1
519.37109375 280 m 1
 629.37109375 280 l 2
 634.37109375 280 639.1953125 279 645.1953125 279 c 0
 689.1953125 279 725.724609375 282 751.311523438 291 c 4
 775.8984375 300 791.54296875 315 795.951171875 340 c 0
 804.415039062 388 761.53125 400 667.53125 400 c 2
 541.53125 400 l 1
 532.419921875 354 l 1
 519.37109375 280 l 1
EndSplineSet
EndChar
StartChar: macron
Encoding: 175 175 127
Width: 550
Flags: MW
LayerCount: 2
Fore
SplineSet
184.44140625 615 m 1
 199.428710938 700 l 1
 596.428710938 700 l 1
 581.44140625 615 l 1
 184.44140625 615 l 1
EndSplineSet
EndChar
StartChar: degree
Encoding: 176 176 146
Width: 367
Flags: MW
LayerCount: 2
Fore
SplineSet
160.859375 572 m 0
 175.141601562 653 232.546875 695 304.546875 695 c 0
 379.546875 695 418.7890625 651 405.03515625 573 c 0
 390.576171875 491 333.346679688 450 261.346679688 450 c 0
 181.346679688 450 148.33984375 501 160.859375 572 c 0
243.859375 572 m 0
 238.040039062 539 254.158203125 534 275.158203125 534 c 2
 278.158203125 534 l 2
 308.158203125 534 317.979492188 550 322.03515625 573 c 0
 326.620117188 599 318.735351562 611 291.735351562 611 c 0
 268.735351562 611 250.030273438 607 243.859375 572 c 0
EndSplineSet
EndChar
StartChar: plusminus
Encoding: 177 177 147
Width: 672
Flags: MW
LayerCount: 2
Fore
SplineSet
82.51171875 122 m 0
 86.390625 144 103.859375 158 120.565429688 162 c 0
 128.91796875 164 138.741210938 163 147.741210938 163 c 2
 321.741210938 163 l 1
 348.366210938 314 l 1
 155.366210938 314 l 2
 144.366210938 314 134.424804688 320 128.659179688 327 c 0
 123.069335938 335 120.65625 344 122.595703125 355 c 0
 124.536132812 366 130.298828125 376 138.709960938 384 c 0
 147.120117188 392 159.001953125 397 170.001953125 397 c 2
 363.001953125 397 l 1
 392.80078125 566 l 1
 398.208984375 591 l 2
 403.264648438 614 425.0859375 630 446.0859375 630 c 2
 447.0859375 630 l 2
 468.0859375 630 483.088867188 613 480.033203125 590 c 2
 476.625 565 l 1
 447.001953125 397 l 1
 624.001953125 397 l 2
 638.001953125 397 647.001953125 397 655.120117188 392 c 0
 667.885742188 385 674.416992188 371 671.595703125 355 c 0
 669.833007812 345 665.24609375 336 658.01171875 329 c 0
 649.424804688 320 637.54296875 315 625.366210938 314 c 2
 432.366210938 314 l 1
 405.741210938 163 l 1
 582.741210938 163 l 2
 594.741210938 163 607.741210938 163 617.506835938 156 c 0
 622.978515625 153 627.096679688 148 629.685546875 140 c 0
 631.627929688 134 631.5703125 128 630.51171875 122 c 0
 628.04296875 108 621.280273438 98 613.221679688 92 c 0
 599.282226562 81 581.106445312 80 573.106445312 80 c 2
 126.106445312 80 l 2
 80.1064453125 80 80.2197265625 109 82.51171875 122 c 0
EndSplineSet
EndChar
StartChar: two.superior
Encoding: 178 178 148
Width: 489
Flags: MW
LayerCount: 2
Fore
SplineSet
171.955078125 720 m 1
 233.950195312 754 287.30078125 773 362.30078125 773 c 0
 483.30078125 773 557.015625 709 540.44140625 615 c 0
 526.334960938 535 429.158203125 534 352.397460938 507 c 0
 326.810546875 498 326.634765625 497 226.052734375 454 c 1
 360.052734375 454 l 1
 382.228515625 455 l 1
 512.228515625 455 l 1
 493.185546875 347 l 1
 115.185546875 347 l 1
 133.875976562 453 l 1
 242.221679688 506 l 2
 318.6875 537 388.685546875 554 398.912109375 612 c 0
 405.083984375 647 377.4921875 672 329.4921875 672 c 0
 270.4921875 672 234.849609375 640 221.91015625 629 c 1
 171.955078125 720 l 1
EndSplineSet
EndChar
StartChar: three.superior
Encoding: 179 179 149
Width: 489
Flags: MW
LayerCount: 2
Fore
SplineSet
110.064453125 369 m 1
 141.462890625 462 l 1
 141.462890625 462 196.997070312 431 246.997070312 431 c 2
 294.997070312 431 l 0
 320.997070312 431 341.172851562 432 355.583984375 440 c 0
 366.641601562 446 374.7578125 458 378.108398438 477 c 0
 381.282226562 495 377.397460938 507 368.631835938 514 c 4
 359.866210938 521 345.21875 523 327.21875 523 c 2
 274.21875 523 l 1
 287.090820312 596 l 1
 323.795898438 600 344.620117188 599 367.322265625 620 c 0
 377.91015625 629 384.025390625 641 385.96484375 652 c 0
 390.725585938 679 374.431640625 683 352.431640625 683 c 0
 303.431640625 683 268.844726562 674 226.0234375 658 c 1
 189.776367188 736 l 1
 250.008789062 760 305.30078125 773 368.30078125 773 c 0
 496.30078125 773 538.661132812 724 525.612304688 650 c 0
 516.090820312 596 474.03515625 573 450.743164062 560 c 1
 486.15625 551 534.27734375 529 524.754882812 475 c 0
 520.875976562 453 503.825195312 396 440.182617188 364 c 0
 385.24609375 336 327.24609375 336 271.24609375 336 c 2
 221.24609375 336 l 2
 171.24609375 336 110.064453125 369 110.064453125 369 c 1
EndSplineSet
EndChar
StartChar: acute
Encoding: 180 180 216
Width: 550
Flags: MW
LayerCount: 2
Fore
SplineSet
302.569335938 542 m 1
 426.079101562 681 l 1
 562.079101562 681 l 1
 375.569335938 542 l 1
 302.569335938 542 l 1
EndSplineSet
EndChar
StartChar: micro
Encoding: 181 181 150
Width: 561
Flags: MW
LayerCount: 2
Fore
SplineSet
29.5537109375 -167 m 1
 142.2265625 472 l 1
 279.2265625 472 l 1
 218.922851562 130 l 2
 209.342773438 70 201.81640625 50 267.81640625 50 c 0
 307.81640625 50 361.047851562 74 385.685546875 140 c 4
 389.625 151 392.565429688 162 394.857421875 175 c 2
 447.2265625 472 l 1
 583.2265625 472 l 1
 500 0 l 1
 367 0 l 1
 375.111328125 46 l 1
 380.106445312 80 l 1
 316.765625 -7 234.060546875 -11 202.060546875 -11 c 2
 194.060546875 -11 l 1
 166.553710938 -167 l 1
 29.5537109375 -167 l 1
EndSplineSet
EndChar
StartChar: paragraph
Encoding: 182 182 117
Width: 672
Flags: MW
LayerCount: 2
Fore
SplineSet
140.7578125 458 m 0
 159.625 565 261.549804688 678 430.194335938 693 c 0
 443.37109375 694 456.546875 695 469.546875 695 c 2
 711.546875 695 l 2
 755.546875 695 757.2578125 665 755.141601562 653 c 0
 752.672851562 639 742.204101562 625 726.793945312 617 c 0
 715.735351562 611 704.735351562 611 693.735351562 611 c 2
 655.735351562 611 l 1
 528.250976562 -112 l 2
 527.016601562 -119 526.783203125 -126 523.548828125 -133 c 0
 516.198242188 -152 496.729492188 -166 477.729492188 -166 c 0
 457.729492188 -166 443.198242188 -152 442.548828125 -133 c 0
 442.783203125 -126 444.016601562 -119 445.250976562 -112 c 2
 572.735351562 611 l 1
 495.735351562 611 l 1
 367.370117188 -117 l 2
 364.196289062 -135 357.080078125 -147 348.845703125 -154 c 4
 337.08203125 -164 323.729492188 -166 317.729492188 -166 c 0
 309.729492188 -166 300.08203125 -164 292.31640625 -157 c 0
 285.55078125 -150 280.490234375 -139 283.6640625 -121 c 2
 344.497070312 224 l 1
 185.200195312 245 122.067382812 352 140.7578125 458 c 0
EndSplineSet
EndChar
StartChar: periodcentered
Encoding: 183 183 116
Width: 219
Flags: MW
LayerCount: 2
Fore
SplineSet
87 194 m 1
 107 306 l 1
 219 306 l 1
 199 194 l 1
 87 194 l 1
EndSplineSet
EndChar
StartChar: cedilla
Encoding: 184 184 129
Width: 489
Flags: MW
LayerCount: 2
Fore
SplineSet
85.376953125 -168 m 1
 202.944335938 -23 l 1
 275.944335938 -23 l 1
 189.376953125 -168 l 1
 85.376953125 -168 l 1
EndSplineSet
EndChar
StartChar: one.superior
Encoding: 185 185 151
Width: 489
Flags: MW
LayerCount: 2
Fore
SplineSet
186 625 m 1
 199 698 l 1
 328 699 387 740 427 773 c 1
 461 773 l 1
 399 420 l 1
 486 420 l 1
 473 347 l 1
 153 347 l 1
 166 420 l 1
 261 420 l 1
 300 639 l 1
 266 631 236 625 186 625 c 1
EndSplineSet
EndChar
StartChar: ordmasculine
Encoding: 186 186 135
Width: 489
Flags: MW
LayerCount: 2
Fore
SplineSet
128 558 m 0
 157 725 268 767 380 767 c 0
 486 767 585 726 555 558 c 0
 528 405 423 368 324 364 c 2
 291 364 l 2
 197 368 101 403 128 558 c 0
265 560 m 2
 258 519 256 489 264 469 c 0
 272 451 290 442 321 442 c 0
 348 442 367 448 380 461 c 0
 404 483 412 523 422 580 c 0
 430 628 431 660 416 677 c 0
 406 689 390 694 365 694 c 0
 337 694 318 686 305 673 c 0
 284 653 275 620 268 581 c 2
 265 560 l 2
EndSplineSet
EndChar
StartChar: guillemotright
Encoding: 187 187 122
Width: 733
Flags: MW
LayerCount: 2
Fore
SplineSet
109 0 m 5
 354 237 l 5
 192 473 l 5
 298 473 l 5
 469 236 l 5
 215 0 l 5
 109 0 l 5
341 0 m 5
 586 237 l 5
 424 473 l 5
 531 473 l 5
 701 236 l 5
 448 0 l 5
 341 0 l 5
EndSplineSet
EndChar
StartChar: onequarter
Encoding: 188 188 152
Width: 489
Flags: MW
LayerCount: 2
Fore
SplineSet
41 292 m 0
 43 303 49 312 56 319 c 0
 64 327 77 332 89 333 c 2
 115 334 l 1
 499 334 l 2
 515 334 529 333 539 326 c 0
 544 322 547 317 550 309 c 0
 551 303 551 298 550 292 c 0
 548 283 544 270 532 261 c 0
 524 255 511 250 494 250 c 2
 83 250 l 2
 66 250 56 255 50 261 c 0
 40 271 40 285 41 292 c 0
23 -46 m 1
 230 167 l 1
 397 167 l 1xfa
 360 -46 l 1
 450 -46 l 1
 433 -141 l 1
 343 -141 l 1
 339 -167 l 1
 215 -167 l 1
 219 -141 l 1
 6 -141 l 1
 23 -46 l 1
195 667 m 1
 207 740 l 1
 281 740 394 754 443 773 c 9
 462 773 l 1
 412 490 l 1
 499 490 l 1
 487 417 l 1
 166 417 l 1
 178 490 l 1
 274 490 l 1
 306 672 l 1xfc
 271 669 217 667 195 667 c 1
141 -46 m 1
 241 -46 l 1xfa
 263 80 l 1
 141 -46 l 1
EndSplineSet
EndChar
StartChar: onehalf
Encoding: 189 189 153
Width: 489
Flags: MW
LayerCount: 2
Fore
SplineSet
41.4873046875 292 m 0
 43.4267578125 303 49.013671875 312 56.248046875 319 c 0
 64.6591796875 327 76.541015625 332 88.716796875 333 c 2
 114.893554688 334 l 1
 498.893554688 334 l 2
 514.893554688 334 529.716796875 333 539.482421875 326 c 0
 544.77734375 322 547.895507812 317 550.485351562 309 c 0
 551.426757812 303 551.545898438 298 550.487304688 292 c 0
 548.900390625 283 543.608398438 270 532.021484375 261 c 0
 523.963867188 255 511.08203125 250 494.08203125 250 c 2
 83.08203125 250 l 2
 66.08203125 250 55.9638671875 255 50.021484375 261 c 0
 39.7841796875 271 40.2529296875 285 41.4873046875 292 c 0
194.610351562 667 m 1
 207.482421875 740 l 1
 281.482421875 740 393.950195312 754 443.30078125 773 c 9
 462.30078125 773 l 1
 412.400390625 490 l 1
 499.400390625 490 l 1
 486.528320312 417 l 1
 165.528320312 417 l 1
 178.400390625 490 l 1
 274.400390625 490 l 1
 306.4921875 672 l 1xfc
 271.962890625 669 216.610351562 667 194.610351562 667 c 1
70.390625 144 m 1
 131.328125 172 184.326171875 189 259.326171875 189 c 0
 380.326171875 189 455.803710938 135 442.05078125 57 c 0
 430.236328125 -10 333.236328125 -10 257.181640625 -33 c 0
 231.770507812 -41 231.594726562 -42 132.24609375 -78 c 1
 266.24609375 -78 l 1
 288.422851562 -77 l 1
 418.422851562 -77 l 1
 402.553710938 -167 l 1
 24.5537109375 -167 l 1
 40.24609375 -78 l 1
 147.004882812 -34 l 2
 222.58984375 -8 292.057617188 6 300.521484375 54 c 0
 305.634765625 83 277.337890625 104 229.337890625 104 c 0
 170.337890625 104 135.577148438 77 122.990234375 68 c 1
 70.390625 144 l 1
EndSplineSet
EndChar
StartChar: threequarters
Encoding: 190 190 154
Width: 489
Flags: MW
LayerCount: 2
Fore
SplineSet
23 -46 m 1
 230 167 l 1
 397 167 l 1xfa
 360 -46 l 1
 450 -46 l 1
 433 -141 l 1
 343 -141 l 1
 339 -167 l 1
 215 -167 l 1
 219 -141 l 1
 6 -141 l 1
 23 -46 l 1
119 422 m 1
 149 502 l 1
 149 502 205 475 255 475 c 2
 303 475 l 0
 329 475 349 476 363 483 c 0
 374 489 382 498 385 515 c 0
 388 531 384 542 375 548 c 0
 366 554 351 556 333 556 c 2
 280 556 l 1
 291 619 l 1
 328 622 349 622 371 640 c 0
 381 648 387 658 389 668 c 0
 393 691 377 695 355 695 c 0
 306 695 271 687 229 673 c 1
 191 741 l 1
 251 762 305 773 368 773 c 0
 496 773 539 730 528 666 c 0
 520 619 479 599 456 588 c 1
 492 580 540 561 532 514 c 0
 529 495 513 445 450 417 c 0
 396 393 337 393 281 393 c 2
 231 393 l 2
 181 393 119 422 119 422 c 1
141 -46 m 1
 241 -46 l 1xfa
 263 80 l 1
 141 -46 l 1
41 292 m 0
 43 303 49 312 56 319 c 0
 64 327 77 332 89 333 c 2
 115 334 l 1
 499 334 l 2
 515 334 529 333 539 326 c 0
 544 322 547 317 550 309 c 0
 551 303 551 298 550 292 c 0
 548 283 544 270 532 261 c 0
 524 255 511 250 494 250 c 2
 83 250 l 2
 66 250 56 255 50 261 c 0
 40 271 40 285 41 292 c 0
EndSplineSet
EndChar
StartChar: questiondown
Encoding: 191 191 125
Width: 519
Flags: MW
LayerCount: 2
Fore
SplineSet
54.88671875 -29 m 0xe0
 70.05078125 57 115.282226562 81 137.6328125 100 c 0
 168.041015625 125 190.801757812 152 207.091796875 182 c 0
 223.205078125 211 233.84765625 243 240.018554688 278 c 2
 245.837890625 311 l 1
 350.837890625 311 l 1
 345.018554688 278 l 2xc8
 339.200195312 245 332.028320312 210 300.154296875 154 c 0
 285.393554688 127 263.927734375 96 235.2265625 58 c 0
 209.408203125 25 200.173828125 18 191.534179688 -31 c 0xe0
 186.067382812 -62 182.717773438 -81 188.778320312 -92 c 4
 193.19140625 -101 204.485351562 -105 225.485351562 -105 c 0
 338.485351562 -105 412.828125 -35 416.828125 -35 c 1
 434.25390625 -129 l 1
 324.790039062 -177 254.142578125 -175 222.614257812 -178 c 2
 193.614257812 -178 l 2
 146.966796875 -176 103.376953125 -168 77.1376953125 -141 c 0
 55.0166015625 -119 45.365234375 -83 54.88671875 -29 c 0xe0
EndSplineSet
Refer: 14 46 N 1 0 0 1 162.002 397 2
EndChar
StartChar: Agrave
Encoding: 192 192 155
Width: 733
Flags: MW
LayerCount: 2
Fore
SplineSet
342 863 m 1
 535 863 l 1
 640 764 l 1
 553 764 l 1
 537 765 l 1
 524 770 l 1
 342 863 l 1
EndSplineSet
Refer: 33 65 N 1 0 0 1 0 0 2
EndChar
StartChar: Aacute
Encoding: 193 193 156
Width: 733
Flags: MW
LayerCount: 2
Fore
SplineSet
361.890625 765 m 1
 501.169921875 863 l 1
 694.169921875 863 l 1
 480.948242188 771 l 1
 467.243164062 767 l 1
 451.890625 765 l 9
 391.890625 765 l 1
 361.890625 765 l 1
EndSplineSet
Refer: 33 65 N 1 0 0 1 0 0 2
EndChar
StartChar: Acircumflex
Encoding: 194 194 157
Width: 733
Flags: MW
LayerCount: 2
Fore
SplineSet
312.541992188 729 m 1
 464.163085938 914 l 1
 584.163085938 914 l 1
 659.541992188 729 l 1
 587.541992188 729 l 1
 505.114257812 840 l 1
 384.541992188 729 l 1
 312.541992188 729 l 1
EndSplineSet
Refer: 33 65 N 1 0 0 1 0 0 2
EndChar
StartChar: Atilde
Encoding: 195 195 158
Width: 733
Flags: MW
LayerCount: 2
Fore
SplineSet
316 770 m 1xd7
 332 849 388 903 450 903 c 0xcf
 519 903 536 849 579 843 c 0xd7
 592 842 595 845 599 846 c 1
 616 857 626 867 633 903 c 1xe7
 706 903 l 1xcf
 690 824 634 770 572 770 c 0xd7
 503 770 486 824 443 829 c 0xcf
 429 831 431 828 423 826 c 1
 406 815 396 806 389 770 c 1xe7
 316 770 l 1xd7
EndSplineSet
Refer: 33 65 N 1 0 0 1 0 0 2
EndChar
StartChar: Adieresis
Encoding: 196 196 159
Width: 733
Flags: MW
LayerCount: 2
Fore
SplineSet
342 788 m 1
 362 900 l 1
 474 900 l 1
 454 788 l 1
 342 788 l 1
556 788 m 1
 576 900 l 1
 688 900 l 1
 668 788 l 1
 556 788 l 1
EndSplineSet
Refer: 33 65 N 1 0 0 1 0 0 2
EndChar
StartChar: Aring
Encoding: 197 197 160
Width: 733
Flags: MW
LayerCount: 2
Fore
SplineSet
377.7109375 781 m 0
 388.643554688 843 424.223632812 903 523.223632812 903 c 0
 593.223632812 903 638.404296875 870 622.358398438 779 c 0
 611.25 716 575.846679688 657 477.846679688 657 c 0
 406.846679688 657 361.489257812 689 377.7109375 781 c 0
439.53515625 780 m 0
 435.65625 758 438.36328125 745 446.12890625 738 c 0
 454.541992188 729 470.541992188 729 488.541992188 729 c 2
 489.541992188 729 l 2
 509.71875 730 528.71875 730 542.658203125 741 c 0
 550.892578125 748 557.83203125 759 561.358398438 779 c 0
 565.061523438 800 563.177734375 812 556.412109375 819 c 0
 547.174804688 829 531.3515625 830 511.3515625 830 c 2xdf
 509.3515625 830 l 2
 486.3515625 830 470.174804688 829 458.587890625 820 c 0
 449.353515625 813 443.061523438 800 439.53515625 780 c 0
EndSplineSet
Refer: 33 65 N 1 0 0 1 0 0 2
EndChar
StartChar: AE
Encoding: 198 198 130
Width: 947
Flags: MW
LayerCount: 2
Fore
SplineSet
30 0 m 1
 404 695 l 1xec
 1008 695 l 1
 989 590 l 1xf4
 954 590 l 1
 937 591 l 1
 733 593 l 5
 712 593 l 1
 679 409 l 1
 926 409 l 1
 909 314 l 1
 662 314 l 1
 626 107 l 1
 678 108 l 1
 694 108 l 1
 872 110 l 1
 890 110 l 1
 920 111 l 1
 900 0 l 1
 460 0 l 1
 494 191 l 1
 269 191 l 1
 166 0 l 1
 30 0 l 1
316 278 m 1
 509 278 l 1xec
 565 594 l 1
 486 594 l 1
 316 278 l 1
EndSplineSet
EndChar
StartChar: Egrave
Encoding: 200 200 162
Width: 642
Flags: MW
LayerCount: 2
Fore
SplineSet
281.169921875 863 m 1
 474.169921875 863 l 1
 578.713867188 764 l 1
 491.713867188 764 l 1
 475.890625 765 l 1
 462.771484375 770 l 1
 281.169921875 863 l 1
EndSplineSet
Refer: 37 69 N 1 0 0 1 0 0 2
EndChar
StartChar: Eacute
Encoding: 201 201 163
Width: 642
Flags: MW
LayerCount: 2
Fore
SplineSet
347 764 m 1
 486 862 l 1
 679 862 l 1
 466 770 l 1
 452 766 l 1
 437 764 l 9
 377 764 l 1
 347 764 l 1
EndSplineSet
Refer: 37 69 N 1 0 0 1 0 0 2
EndChar
StartChar: Ecircumflex
Encoding: 202 202 164
Width: 642
Flags: MW
LayerCount: 2
Fore
SplineSet
299 729 m 1x25
 450 914 l 1
 560 914 l 1
 646 729 l 1
 574 729 l 1
 492 840 l 1
 372 729 l 1
 299 729 l 1x25
EndSplineSet
Refer: 37 69 N 1 0 0 1 0 0 2
EndChar
StartChar: Edieresis
Encoding: 203 203 165
Width: 642
Flags: MW
LayerCount: 2
Fore
SplineSet
323.9453125 788 m 1
 343.694335938 900 l 1
 455.694335938 900 l 1
 435.9453125 788 l 1
 323.9453125 788 l 1
537.9453125 788 m 1
 557.694335938 900 l 1
 669.694335938 900 l 1
 649.9453125 788 l 1
 537.9453125 788 l 1
EndSplineSet
Refer: 37 69 N 1 0 0 1 0 0 2
EndChar
StartChar: Igrave
Encoding: 204 204 166
Width: 331
Flags: MW
LayerCount: 2
Fore
SplineSet
126.169921875 863 m 5
 319.169921875 863 l 5
 423.713867188 764 l 5
 336.713867188 764 l 5
 320.890625 765 l 5
 307.771484375 770 l 5
 126.169921875 863 l 5
EndSplineSet
Refer: 41 73 S 1 0 0 1 1 0 2
EndChar
StartChar: Iacute
Encoding: 205 205 167
Width: 331
Flags: MW
LayerCount: 2
Fore
SplineSet
206.713867188 764 m 1
 345.994140625 862 l 1
 538.994140625 862 l 1
 325.771484375 770 l 1
 312.06640625 766 l 1
 296.713867188 764 l 9
 236.713867188 764 l 1
 206.713867188 764 l 1
EndSplineSet
Refer: 41 73 N 1 0 0 1 0 0 2
EndChar
StartChar: Icircumflex
Encoding: 206 206 168
Width: 331
Flags: MW
LayerCount: 2
Fore
SplineSet
121 729 m 1
 272 914 l 1
 382 914 l 1
 469 729 l 1
 396 729 l 1
 314 840 l 1xf0
 194 729 l 1
 121 729 l 1
EndSplineSet
Refer: 41 73 S 1 0 0 1 1 0 2
EndChar
StartChar: Idieresis
Encoding: 207 207 169
Width: 331
Flags: MW
LayerCount: 2
Fore
SplineSet
141 788 m 1
 161 900 l 1
 273 900 l 1
 253 788 l 1
 141 788 l 1
355 788 m 1
 375 900 l 1
 487 900 l 1
 467 788 l 1
 355 788 l 1
EndSplineSet
Refer: 41 73 N 1 0 0 1 0 0 2
EndChar
StartChar: Ntilde
Encoding: 209 209 171
Width: 794
Flags: MW
LayerCount: 2
Fore
SplineSet
347 770 m 1xd7
 363 849 419 903 481 903 c 0xcf
 550 903 567 849 610 843 c 0xd7
 623 842 626 845 630 846 c 1
 647 857 657 867 664 903 c 1xe7
 737 903 l 1xcf
 721 824 665 770 603 770 c 0xd7
 534 770 517 824 474 829 c 0xcf
 460 831 462 828 454 826 c 1
 437 815 427 806 420 770 c 1xe7
 347 770 l 1xd7
EndSplineSet
Refer: 46 78 N 1 0 0 1 0 0 2
EndChar
StartChar: Ograve
Encoding: 210 210 172
Width: 794
Flags: MW
LayerCount: 2
Fore
SplineSet
372.169921875 863 m 5
 565.169921875 863 l 5
 669.713867188 764 l 5
 582.713867188 764 l 5
 566.890625 765 l 5
 553.771484375 770 l 5
 372.169921875 863 l 5
EndSplineSet
Refer: 47 79 S 1 0 0 1 0 0 2
EndChar
StartChar: Oacute
Encoding: 211 211 173
Width: 794
Flags: MW
LayerCount: 2
Fore
SplineSet
392.890625 765 m 1
 532.169921875 863 l 1
 725.169921875 863 l 1
 511.948242188 771 l 1
 498.243164062 767 l 1
 482.890625 765 l 9
 422.890625 765 l 1
 392.890625 765 l 1
EndSplineSet
Refer: 47 79 N 1 0 0 1 0 0 2
EndChar
StartChar: Ocircumflex
Encoding: 212 212 174
Width: 794
Flags: MW
LayerCount: 2
Fore
SplineSet
350.541992188 729 m 1
 502.163085938 914 l 1
 612.163085938 914 l 1
 698.541992188 729 l 1
 626.541992188 729 l 1
 544.114257812 840 l 1
 423.541992188 729 l 1
 350.541992188 729 l 1
EndSplineSet
Refer: 47 79 S 1 0 0 1 0 0 2
EndChar
StartChar: Otilde
Encoding: 213 213 175
Width: 794
Flags: MW
LayerCount: 2
Fore
SplineSet
346 770 m 1xd7
 362 849 418 903 480 903 c 0xcf
 549 903 566 849 609 843 c 0xd7
 622 842 625 845 629 846 c 1
 646 857 656 867 663 903 c 1xe7
 736 903 l 1xcf
 720 824 664 770 602 770 c 0xd7
 533 770 516 824 473 829 c 0xcf
 459 831 461 828 453 826 c 1
 436 815 426 806 419 770 c 1xe7
 346 770 l 1xd7
EndSplineSet
Refer: 47 79 N 1 0 0 1 0 0 2
EndChar
StartChar: Odieresis
Encoding: 214 214 176
Width: 794
Flags: MW
LayerCount: 2
Fore
SplineSet
373 788 m 1
 393 900 l 1
 505 900 l 1
 485 788 l 1
 373 788 l 1
586 788 m 1
 606 900 l 1
 718 900 l 1
 698 788 l 1
 586 788 l 1
EndSplineSet
Refer: 47 79 N 1 0 0 1 0 0 2
EndChar
StartChar: multiply
Encoding: 215 215 177
Width: 672
Flags: MW
LayerCount: 2
Fore
SplineSet
146.280273438 98 m 0
 148.572265625 111 168.275390625 132 176.509765625 139 c 2
 323.55078125 264 l 1
 217.120117188 392 l 2
 207.236328125 404 204.470703125 411 203.528320312 417 c 2
 203.233398438 421 203.762695312 424 204.64453125 429 c 0
 208.170898438 449 227.344726562 467 247.874023438 470 c 1
 255.874023438 470 l 2
 268.697265625 469 278.462890625 462 289.170898438 449 c 2
 392.954101562 323 l 1
 539.994140625 448 l 2
 554.110351562 460 570.874023438 470 582.874023438 470 c 0
 604.874023438 470 621.875976562 453 617.64453125 429 c 0
 616.762695312 424 614.880859375 419 611.999023438 414 c 0
 607.94140625 408 601.70703125 401 592.120117188 392 c 2
 440.374023438 263 l 1
 539.567382812 145 l 2
 550.922851562 130 557.51171875 122 559.454101562 116 c 0
 561.395507812 110 560.690429688 106 559.456054688 99 c 0
 553.637695312 66 532.2265625 58 508.05078125 57 c 1
 496.2265625 58 487.28515625 64 475.577148438 77 c 2
 370.970703125 204 l 1
 216.872070312 73 l 2
 206.28515625 64 192.05078125 57 181.05078125 57 c 0
 158.05078125 57 142.400390625 76 146.280273438 98 c 0
EndSplineSet
EndChar
StartChar: Oslash
Encoding: 216 216 133
Width: 856
Flags: MW
LayerCount: 2
Fore
SplineSet
120.303710938 342 m 0
 145.6953125 486 202.916992188 578 275.967773438 635 c 0
 355.900390625 697 454.426757812 717 552.426757812 717 c 0
 612.426757812 717 662.192382812 710 707.37109375 694 c 1
 754.302734375 756 l 1
 755.302734375 756 l 1
 815.426757812 717 l 1
 772.375976562 660 l 1
 813.262695312 631 839.033203125 590 852.6875 537 c 0
 866.166015625 483 866.3515625 416 852.951171875 340 c 0
 833.908203125 232 790.393554688 127 700.2265625 58 c 0
 635.586914062 9 546.12109375 -22 423.12109375 -22 c 0
 372.12109375 -22 316.001953125 -17 267 0 c 1
 221.244140625 -61 l 1
 160.12109375 -22 l 1
 201.818359375 33 l 1
 122.869140625 90 93.6787109375 191 120.303710938 342 c 0
246.424804688 320 m 2
 236.610351562 253 228.033203125 176 266.806640625 118 c 1
 652.67578125 622 l 1
 623.143554688 636 586.5546875 644 539.5546875 644 c 0
 450.5546875 644 389.793945312 617 347.387695312 575 c 0
 287.984375 516 265.467773438 428 251.185546875 347 c 2
 246.424804688 320 l 2
322.51953125 71 m 1
 352.2265625 58 382.81640625 50 435.81640625 50 c 0
 528.81640625 50 589.9296875 79 631.3359375 121 c 0
 694.620117188 185 712.1953125 279 724.361328125 348 c 0
 733.177734375 398 740.2890625 444 735.87109375 487 c 0
 733.336914062 518 724.451171875 547 707.564453125 576 c 1
 707.564453125 576 l 1
 322.51953125 71 l 1
EndSplineSet
EndChar
StartChar: Ugrave
Encoding: 217 217 178
Width: 764
Flags: MW
LayerCount: 2
Fore
SplineSet
357.169921875 863 m 1
 550.169921875 863 l 1
 654.713867188 764 l 1
 567.713867188 764 l 1
 551.890625 765 l 1
 538.771484375 770 l 1
 357.169921875 863 l 1
EndSplineSet
Refer: 53 85 N 1 0 0 1 0 0 2
EndChar
StartChar: Uacute
Encoding: 218 218 179
Width: 764
Flags: MW
LayerCount: 2
Fore
SplineSet
424 765 m 5
 563 863 l 5
 756 863 l 5
 543 771 l 5
 529 767 l 5
 514 765 l 13
 454 765 l 5
 424 765 l 5
EndSplineSet
Refer: 53 85 N 1 0 0 1 0 0 2
EndChar
StartChar: Ucircumflex
Encoding: 219 219 180
Width: 764
Flags: MW
LayerCount: 2
Fore
SplineSet
339 729 m 1
 490 914 l 1
 594 914 l 1
 687 729 l 1
 614 729 l 1
 532 840 l 1xe8
 412 729 l 1
 339 729 l 1
EndSplineSet
Refer: 53 85 S 1 0 0 1 0 0 2
EndChar
StartChar: Udieresis
Encoding: 220 220 181
Width: 764
Flags: MW
LayerCount: 2
Fore
SplineSet
356.9453125 788 m 1
 376.694335938 900 l 1
 488.694335938 900 l 1
 468.9453125 788 l 1
 356.9453125 788 l 1
570.9453125 788 m 1
 590.694335938 900 l 1
 702.694335938 900 l 1
 682.9453125 788 l 1
 570.9453125 788 l 1
EndSplineSet
Refer: 53 85 N 1 0 0 1 0 0 2
EndChar
StartChar: Yacute
Encoding: 221 221 182
Width: 733
Flags: MW
LayerCount: 2
Fore
SplineSet
408 765 m 1
 547 863 l 1
 740 863 l 1
 527 771 l 1
 513 767 l 1
 498 765 l 9
 438 765 l 1
 408 765 l 1
EndSplineSet
Refer: 57 89 N 1 0 0 1 0 0 2
EndChar
StartChar: Thorn
Encoding: 222 222 183
Width: 642
Flags: MW
LayerCount: 2
Fore
SplineSet
91 0 m 1
 214 695 l 1
 356 695 l 1
 337 592 l 1
 440 592 l 2
 500 592 579 591 624 536 c 0
 655 497 657 441 648 388 c 0
 635 313 604 265 567 234 c 4
 504 182 421 180 374 180 c 2
 265 180 l 1
 233 0 l 1
 91 0 l 1
280 267 m 1
 356 267 l 2
 396 267 430 270 460 295 c 0
 475 306 498 331 508 386 c 0
 516 433 506 462 488 479 c 0
 462 504 421 505 399 505 c 2
 323 505 l 1
 316 471 l 1
 280 267 l 1
EndSplineSet
EndChar
StartChar: germandbls
Encoding: 223 223 141
Width: 565
Flags: MW
LayerCount: 2
Fore
SplineSet
60 0 m 25
 160.330078125 569 l 2
 187.484375 723 315.248046875 733 414.248046875 733 c 0
 541.248046875 733 626.428710938 700 603.330078125 569 c 0xf8
 579.526367188 434 508.94140625 408 454.059570312 403 c 0
 433.70703125 401 424.354492188 399 415.890625 351 c 0
 406.192382812 296 422.779296875 305 464.83984375 294 c 0
 520.37109375 280 566.849609375 226 551.685546875 140 c 0
 530.350585938 19 452.060546875 -11 381.060546875 -11 c 0
 316.060546875 -11 271.055664062 23 261.934570312 45 c 1
 302.390625 144 l 1
 305.922851562 130 342.990234375 68 391.990234375 68 c 0
 414.990234375 68 441.75390625 78 448.983398438 119 c 0xf4
 450.393554688 127 453.331054688 155 431.15234375 171 c 0
 407.796875 186 360.680664062 174 328.849609375 226 c 0
 309.963867188 255 306.487304688 292 313.716796875 333 c 0
 332.0546875 437 389.049804688 471 451.754882812 475 c 1
 452.63671875 480 454.518554688 485 455.576171875 491 c 0
 459.80859375 515 462.040039062 539 465.448242188 564 c 0
 472.501953125 604 490.375976562 660 398.375976562 660 c 0
 321.375976562 660 305.438476562 632 294.330078125 569 c 2
 194 0 l 25
 60 0 l 25
EndSplineSet
EndChar
StartChar: acircumflex
Encoding: 226 226 186
Width: 525
Flags: MW
LayerCount: 2
Fore
SplineSet
183 541 m 1
 329 692 l 1
 463 692 l 1
 530 541 l 1
 457 541 l 1
 372 631 l 1xe8
 256 541 l 1
 183 541 l 1
EndSplineSet
Refer: 65 97 S 1 0 0 1 0 0 2
EndChar
StartChar: ae
Encoding: 230 230 136
Width: 794
Flags: MW
LayerCount: 2
Fore
SplineSet
53 132 m 0
 62 181 97 214 143 235 c 0
 231 277 356 276 377 277 c 1
 381 303 l 1
 385 323 l 2
 391 357 399 422 331 422 c 0
 235 422 180 371 151 346 c 1
 161 446 l 1
 222 474 270 489 346 489 c 0xd8
 383 489 412 486 437 479 c 0
 458 473 475 463 491 449 c 1
 493 449 l 1
 547 483 610 489 651 489 c 0
 728 489 772 465 794 428 c 0
 822 383 819 317 807 250 c 1
 509 250 l 1
 497 184 491 123 527 86 c 0
 544 69 568 62 595 62 c 0
 687 62 754 115 772 129 c 1
 764 38 l 1
 703 6 645 -11 576 -11 c 0
 469 -11 427 25 407 44 c 1
 406 44 l 1
 330 -7 216 -11 171 -11 c 0
 72 -11 42 71 53 132 c 0
184 132 m 0
 180 111 187 62 244 62 c 0
 301 62 361 91 367 123 c 0
 370 138 358 157 368 222 c 1
 300 219 258 206 230 190 c 0
 200 172 187 151 184 132 c 0
522 304 m 1
 701 304 l 1
 703 329 702 355 695 376 c 0
 687 399 670 416 638 416 c 0xe8
 607 416 585 402 567 384 c 0
 548 365 532 328 522 304 c 1
EndSplineSet
EndChar
StartChar: ecircumflex
Encoding: 234 234 193
Width: 511
Flags: MW
LayerCount: 2
Fore
SplineSet
176.392578125 541 m 1
 322.018554688 692 l 1
 432.018554688 692 l 1
 524.392578125 541 l 1
 464.392578125 541 l 2
 442.569335938 542 447.626953125 548 365.262695312 631 c 1
 250.569335938 542 255.569335938 542 235.392578125 541 c 2
 176.392578125 541 l 1
EndSplineSet
Refer: 69 101 S 1 0 0 1 0 0 2
EndChar
StartChar: igrave
Encoding: 236 236 195
Width: 256
Flags: MW
LayerCount: 2
Fore
SplineSet
80.0791015625 681 m 1
 217.079101562 681 l 1
 290.569335938 542 l 1
 217.569335938 542 l 1
 80.0791015625 681 l 1
EndSplineSet
Refer: 137 305 N 1 0 0 1 0 0 2
EndChar
StartChar: iacute
Encoding: 237 237 196
Width: 256
Flags: MW
LayerCount: 2
Fore
SplineSet
125 542 m 1
 248 681 l 1
 384 681 l 1
 198 542 l 1
 125 542 l 1
EndSplineSet
Refer: 137 305 N 1 0 0 1 0 0 2
EndChar
StartChar: icircumflex
Encoding: 238 238 197
Width: 256
Flags: MW
LayerCount: 2
Fore
SplineSet
50 541 m 1
 196 692 l 1
 305 692 l 1
 397 541 l 1
 324 541 l 1
 240 631 l 1
 239 631 l 1xe0
 123 541 l 1
 50 541 l 1
EndSplineSet
Refer: 137 305 S 1 0 0 1 1 0 2
EndChar
StartChar: eth
Encoding: 240 240 199
Width: 550
Flags: MW
LayerCount: 2
Fore
SplineSet
71 231 m 0
 88 325 123 386 168 426 c 0
 222 474 291 489 359 489 c 0
 371 489 384 489 397 488 c 1
 382 513 366 537 344 555 c 1
 344 555 l 1
 269 516 l 1
 234 603 l 1
 253 614 l 1
 230 624 224 623 209 627 c 1
 301 695 l 1
 336 685 l 1
 365 675 l 2
 440 716 l 1
 477 625 l 1
 457 615 l 1
 533 546 581 443 573 323 c 0
 572 305 569 288 566 270 c 2
 561 243 l 2
 549 176 527 115 487 70 c 0
 443 20 376 -11 272 -11 c 0
 182 -11 127 13 97 52 c 0
 61 98 59 163 71 231 c 0
213 260 m 0
 200 189 191 127 216 94 c 0
 229 77 250 67 286 67 c 0
 321 67 347 76 368 96 c 0
 396 123 412 168 423 233 c 2
 426 247 l 2
 433 290 444 350 419 386 c 0
 406 404 384 416 347 416 c 0
 304 416 276 401 257 378 c 0
 232 348 221 303 213 260 c 0
EndSplineSet
EndChar
StartChar: divide
Encoding: 247 247 206
Width: 672
Flags: MW
LayerCount: 2
Fore
SplineSet
106 263 m 0
 110 283 127 302 151 305 c 2
 607 305 l 2
 624 305 634 305 644 297 c 0
 654 289 657 277 655 263 c 0
 654 255 650 245 642 237 c 4
 633 228 619 222 597 222 c 2
 148 222 l 2
 104 222 104 253 106 263 c 0
219 -51 m 2
 239 61 l 2
 247 108 282 111 296 111 c 2
 414 111 l 2
 459 111 456 79 452 59 c 2
 433 -53 l 2
 428 -80 414 -103 375 -103 c 2
 258 -103 l 2
 217 -103 215 -76 219 -51 c 2
311 468 m 2
 330 580 l 2
 338 627 372 630 387 630 c 2
 507 630 l 2
 548 630 548 600 544 578 c 2
 524 466 l 2
 519 439 505 416 466 416 c 2
 348 416 l 2
 308 416 307 443 311 468 c 2
EndSplineSet
EndChar
StartChar: oslash
Encoding: 248 248 139
Width: 550
Flags: MW
LayerCount: 2
Fore
SplineSet
71 232 m 0
 85 312 117 386 178 434 c 0
 222 468 281 489 360 489 c 0
 405 489 427 484 455 477 c 1
 528 574 l 1
 528 574 l 1
 585 538 l 1
 514 443 l 1
 541 420 583 368 559 230 c 0
 543 139 507 80 459 43 c 0
 406 2 339 -11 272 -11 c 0
 238 -11 209 -8 180 0 c 1
 104 -101 l 1
 48 -65 l 1
 118 31 l 1
 87 57 49 107 71 232 c 0
190 226 m 2
 187 208 183 186 182 166 c 0
 181 150 182 134 187 120 c 1
 402 406 l 1
 387 413 370 417 348 417 c 0
 304 417 272 404 250 382 c 0
 215 348 201 293 192 240 c 2
 190 226 l 2
232 70 m 1
 249 64 267 61 285 61 c 0
 341 61 374 80 396 108 c 0
 423 142 431 189 439 232 c 2
 440 239 l 2
 444 260 447 280 449 300 c 0
 450 317 449 333 445 352 c 1
 445 352 l 1
 232 70 l 1
EndSplineSet
EndChar
StartChar: thorn
Encoding: 254 254 212
Width: 561
Flags: MW
LayerCount: 2
Fore
SplineSet
30.5537109375 -167 m 1
 182.546875 695 l 1
 316.546875 695 l 1
 268.41015625 422 l 1
 315.228515625 455 375.166015625 483 449.166015625 483 c 0
 545.166015625 483 596.3515625 416 564.965820312 238 c 0
 533.403320312 59 442.060546875 -11 324.060546875 -11 c 0
 266.060546875 -11 231.116210938 12 204.758789062 44 c 1
 167.553710938 -167 l 1
 30.5537109375 -167 l 1
213.927734375 96 m 1
 219.045898438 91 237.932617188 62 283.932617188 62 c 0
 321.932617188 62 357.106445312 80 380.395507812 110 c 0
 416.506835938 156 421.147460938 205 429.552734375 247 c 2
 432.784179688 271 l 2
 435.545898438 298 438.65625 344 418.123046875 375 c 4
 406.296875 393 386.412109375 405 354.412109375 405 c 0
 302.412109375 405 263.946289062 374 262.946289062 374 c 1
 213.927734375 96 l 1
EndSplineSet
EndChar
StartChar: Amacron
Encoding: 256 256 236
Width: 733
Flags: MW
LayerCount: 2
Fore
SplineSet
174 809 m 0
 177 825 190 851 230 851 c 2
 797 851 l 2
 844 851 847 826 844 809 c 0
 841 794 829 767 784 767 c 2
 216 767 l 2
 171 767 172 795 174 809 c 0
EndSplineSet
Refer: 33 65 N 1 0 0 1 0 0 3
EndChar
StartChar: amacron
Encoding: 257 257 231
Width: 525
Flags: MW
LayerCount: 2
Fore
SplineSet
186 580 m 1
 201 665 l 1
 598 665 l 1
 583 580 l 1
 186 580 l 1
EndSplineSet
Refer: 65 97 N 1 0 0 1 0 0 3
EndChar
StartChar: Abreve
Encoding: 258 258 312
Width: 733
Flags: MW
LayerCount: 2
Fore
SplineSet
310 903 m 1
 383 903 l 1
 376 832 458 823 486 823 c 0
 514 823 597 832 616 903 c 1
 689 903 l 1
 667 793 562 730 470 730 c 0
 375 730 295 794 310 903 c 1
EndSplineSet
Refer: 33 65 S 1 0 0 1 0 0 2
EndChar
StartChar: abreve
Encoding: 259 259 325
Width: 525
Flags: MW
LayerCount: 2
Fore
SplineSet
205 680 m 5
 278 680 l 5
 273 616 353 611 383 611 c 4
 411 611 493 617 510 680 c 5
 583 680 l 5
 562 576 459 517 365 517 c 4
 273 517 190 576 205 680 c 5
EndSplineSet
Refer: 65 97 N 1 0 0 1 0 0 2
EndChar
StartChar: Aogonek
Encoding: 260 260 297
Width: 733
Flags: MW
LayerCount: 2
Fore
SplineSet
642 0 m 17
 610 0 528.360351562 -49 525.893554688 -80 c 1
 526.659179688 -87 l 1
 528.6015625 -93 l 1
 537.837890625 -103 547.1328125 -107 566.1328125 -107 c 0
 595.1328125 -107 625.896484375 -97 640.778320312 -92 c 1
 647.434570312 -162 l 1
 612.966796875 -176 572.673828125 -189 526.673828125 -189 c 0
 462.673828125 -189 418.611328125 -161 426.193359375 -118 c 0
 434.48046875 -71 500.591796875 -25 548 0 c 1
 642 0 l 17
EndSplineSet
Refer: 33 65 N 1 0 0 1 0 0 2
EndChar
StartChar: aogonek
Encoding: 261 261 304
Width: 525
Flags: MW
LayerCount: 2
Fore
SplineSet
424 0 m 17
 392 0 310.360351562 -49 307.893554688 -80 c 1
 308.659179688 -87 l 1
 310.6015625 -93 l 1
 319.837890625 -103 329.1328125 -107 348.1328125 -107 c 0
 377.1328125 -107 407.896484375 -97 422.778320312 -92 c 1
 429.434570312 -162 l 1
 394.966796875 -176 354.673828125 -189 308.673828125 -189 c 0
 244.673828125 -189 200.611328125 -161 208.193359375 -118 c 0
 216.48046875 -71 282.591796875 -25 330 0 c 1
 424 0 l 17
EndSplineSet
Refer: 65 97 N 1 0 0 1 0 0 2
EndChar
StartChar: Cacute
Encoding: 262 262 314
Width: 703
Flags: MW
LayerCount: 2
Fore
SplineSet
391.890625 765 m 1
 531.169921875 863 l 1
 724.169921875 863 l 1
 510.948242188 771 l 1
 497.243164062 767 l 1
 481.890625 765 l 9
 421.890625 765 l 1
 391.890625 765 l 1
EndSplineSet
Refer: 35 67 N 1 0 0 1 0 0 2
EndChar
StartChar: Cdotaccent
Encoding: 266 266 364
Width: 703
Flags: MW
LayerCount: 2
Fore
SplineSet
442.243164062 767 m 5
 468.338867188 915 l 5
 616.338867188 915 l 5
 590.243164062 767 l 5
 442.243164062 767 l 5
EndSplineSet
Refer: 35 67 N 1 0 0 1 0 0 3
EndChar
StartChar: cdotaccent
Encoding: 267 267 383
Width: 489
Flags: MW
LayerCount: 2
Fore
SplineSet
300.040039062 539 m 5
 326.13671875 687 l 5
 474.13671875 687 l 5
 448.040039062 539 l 5
 300.040039062 539 l 5
EndSplineSet
Refer: 67 99 N 1 0 0 1 0 0 3
EndChar
StartChar: Ccaron
Encoding: 268 268 315
Width: 703
Flags: MW
LayerCount: 2
Fore
SplineSet
356 903 m 1
 429 903 l 1
 518 800 l 1
 643 903 l 1
 715 903 l 1
 565 729 l 1
 446 729 l 1
 356 903 l 1
EndSplineSet
Refer: 35 67 N 1 0 0 1 0 0 2
EndChar
StartChar: ccaron
Encoding: 269 269 328
Width: 489
Flags: MW
LayerCount: 2
Fore
SplineSet
208.90234375 680 m 5
 281.90234375 680 l 5
 379.73828125 594 l 5
 506.90234375 680 l 5
 553.90234375 680 l 5
 579.90234375 680 l 5
 424.392578125 541 l 5
 315.392578125 541 l 5
 208.90234375 680 l 5
EndSplineSet
Refer: 67 99 S 1 0 0 1 0 0 2
EndChar
StartChar: Dcaron
Encoding: 270 270 317
Width: 794
Flags: MW
LayerCount: 2
Fore
SplineSet
372 903 m 5
 445 903 l 5
 534 800 l 5
 659 903 l 5
 732 903 l 5xec
 581 729 l 5
 463 729 l 5
 372 903 l 5
EndSplineSet
Refer: 36 68 N 1 0 0 1 0 0 2
EndChar
StartChar: dcaron
Encoding: 271 271 330
Width: 732
Flags: MW
LayerCount: 2
Fore
SplineSet
657.861328125 555 m 1
 709.91015625 629 l 1
 670.91015625 629 l 1
 694.008789062 760 l 1
 826.008789062 760 l 1
 805.202148438 642 l 1
 802.91015625 629 l 1
 722.861328125 555 l 1
 657.861328125 555 l 1
EndSplineSet
Refer: 68 100 N 1 0 0 1 0 0 2
EndChar
StartChar: dcroat
Encoding: 273 273 331
Width: 561
Flags: MW
LayerCount: 2
Fore
SplineSet
77.9658203125 238 m 0
 91.7197265625 316 118.177734375 398 183.465820312 445 c 0
 219.2265625 472 263.166015625 483 305.166015625 483 c 0
 368.166015625 483 410.7578125 458 440.467773438 428 c 1
 460.921875 544 l 1
 291.921875 544 l 1
 304.793945312 617 l 1
 473.793945312 617 l 1
 487.546875 695 l 1
 621.546875 695 l 1
 607.793945312 617 l 1
 693.793945312 617 l 1
 680.921875 544 l 1
 594.921875 544 l 1xfa
 499 0 l 1
 362 0 l 1
 371.168945312 52 l 1
 327.64453125 15 280.060546875 -11 217.060546875 -11 c 0
 186.060546875 -11 110.118164062 -5 80.6953125 72 c 0
 63.806640625 118 66.328125 172 77.9658203125 238 c 0
209.557617188 213 m 0
 203.5625 179 197.3359375 121 213.575195312 94 c 0
 227.6953125 72 255.755859375 61 283.755859375 61 c 0
 343.755859375 61 376.985351562 102 380.162109375 103 c 1
 429.356445312 382 l 1
 426.709960938 384 425.0625 386 422.415039062 388 c 0
 403.059570312 403 385.470703125 411 357.470703125 411 c 0xfc
 354.470703125 411 351.470703125 411 348.470703125 411 c 0
 315.118164062 409 291.354492188 399 272.533203125 383 c 0
 241.595703125 355 227.661132812 310 218.4921875 258 c 2
 214.083984375 233 l 1
 212.202148438 228 210.96875 221 209.557617188 213 c 0
EndSplineSet
EndChar
StartChar: Emacron
Encoding: 274 274 239
Width: 642
Flags: MW
LayerCount: 2
Fore
SplineSet
150.6484375 809 m 0
 153.469726562 825 167.0546875 851 207.0546875 851 c 2
 774.0546875 851 l 2
 821.0546875 851 823.646484375 826 820.6484375 809 c 0
 818.00390625 794 806.243164062 767 761.243164062 767 c 2
 193.243164062 767 l 2
 148.243164062 767 148.1796875 795 150.6484375 809 c 0
EndSplineSet
Refer: 37 69 N 1 0 0 1 0 0 3
EndChar
StartChar: emacron
Encoding: 275 275 234
Width: 511
Flags: MW
LayerCount: 2
Fore
SplineSet
173.26953125 580 m 1
 188.2578125 665 l 1
 585.2578125 665 l 1
 570.26953125 580 l 1
 173.26953125 580 l 1
EndSplineSet
Refer: 69 101 N 1 0 0 1 0 0 3
EndChar
StartChar: Edotaccent
Encoding: 278 278 365
Width: 642
Flags: MW
LayerCount: 2
Fore
SplineSet
404.243164062 767 m 5
 430.338867188 915 l 5
 578.338867188 915 l 5
 552.243164062 767 l 5
 404.243164062 767 l 5
EndSplineSet
Refer: 37 69 N 1 0 0 1 0 0 3
EndChar
StartChar: edotaccent
Encoding: 279 279 384
Width: 511
Flags: MW
LayerCount: 2
Fore
SplineSet
290 539 m 5
 316 687 l 5
 464 687 l 5
 438 539 l 5
 290 539 l 5
EndSplineSet
Refer: 69 101 N 1 0 0 1 0 0 3
EndChar
StartChar: Eogonek
Encoding: 280 280 316
Width: 642
Flags: MW
LayerCount: 2
Fore
SplineSet
561 0 m 17
 529 0 447.360351562 -49 444.893554688 -80 c 1
 445.659179688 -87 l 1
 447.6015625 -93 l 1
 456.837890625 -103 466.1328125 -107 485.1328125 -107 c 0
 514.1328125 -107 544.896484375 -97 559.778320312 -92 c 1
 566.434570312 -162 l 1
 531.966796875 -176 491.673828125 -189 445.673828125 -189 c 0
 381.673828125 -189 337.611328125 -161 345.193359375 -118 c 0
 353.48046875 -71 419.591796875 -25 467 0 c 1
 561 0 l 17
EndSplineSet
Refer: 37 69 N 1 0 0 1 0 0 2
EndChar
StartChar: eogonek
Encoding: 281 281 329
Width: 511
Flags: MW
LayerCount: 2
Fore
SplineSet
72.318359375 240 m 0
 90.8330078125 345 133.94140625 408 189.465820312 445 c 0
 239.284179688 478 297.223632812 489 355.223632812 489 c 0
 422.223632812 489 466.2265625 472 492.641601562 446 c 0
 540.354492188 399 535.600585938 321 523.08203125 250 c 1
 202.08203125 250 l 1
 193.618164062 202 186.272460938 149 208.04296875 108 c 0
 217.045898438 91 239.932617188 62 299.932617188 62 c 0
 384.932617188 62 451.162109375 103 488.74609375 129 c 1
 479.700195312 38 l 1
 399.647460938 -2 406.821289062 16 352.53125 -14 c 0
 339.296875 -21 322.534179688 -31 308.41796875 -43 c 0
 293.301757812 -55 280.657226562 -70 279.188476562 -84 c 1
 279.954101562 -91 281.896484375 -97 288.014648438 -102 c 0
 293.309570312 -106 301.95703125 -108 314.95703125 -108 c 0
 344.95703125 -108 385.424804688 -94 392.778320312 -92 c 1
 399.434570312 -162 l 1
 363.966796875 -176 324.673828125 -189 278.673828125 -189 c 0
 247.673828125 -189 221.908203125 -182 203.84765625 -171 c 4
 183.963867188 -159 174.137695312 -141 178.193359375 -118 c 0
 185.775390625 -75 236.475585938 -37 279.060546875 -11 c 1
 277.060546875 -11 276.060546875 -11 274.060546875 -11 c 0
 210.413085938 -9 150.705078125 4 112.229492188 41 c 0
 72.75390625 78 54.8623046875 141 72.318359375 240 c 0
215.603515625 304 m 1
 419.603515625 304 l 1
 421.951171875 340 417.359375 365 407.356445312 382 c 0
 392.118164062 409 366.3515625 416 343.3515625 416 c 0
 305.3515625 416 277.354492188 399 257.651367188 378 c 0
 233.067382812 352 221.248046875 319 215.603515625 304 c 1
EndSplineSet
EndChar
StartChar: Ecaron
Encoding: 282 282 265
Width: 642
Flags: MW
LayerCount: 2
Fore
SplineSet
335.223632812 903 m 1
 407.223632812 903 l 1
 497.061523438 800 l 1
 622.223632812 903 l 1
 694.223632812 903 l 1x25
 543.541992188 729 l 1
 424.541992188 729 l 1
 335.223632812 903 l 1
EndSplineSet
Refer: 37 69 N 1 0 0 1 0 0 2
EndChar
StartChar: ecaron
Encoding: 283 283 277
Width: 511
Flags: MW
LayerCount: 2
Fore
SplineSet
204 680 m 5
 277 680 l 5
 375 594 l 5
 502 680 l 5
 549 680 l 5
 575 680 l 5
 419 541 l 5
 310 541 l 5
 204 680 l 5
EndSplineSet
Refer: 69 101 N 1 0 0 1 0 0 2
EndChar
StartChar: Gbreve
Encoding: 286 286 366
Width: 733
Flags: MW
LayerCount: 2
Fore
SplineSet
347.223632812 903 m 5
 419.223632812 903 l 5
 412.704101562 832 493.29296875 824 522.29296875 824 c 4xfd
 550.29296875 824 632.704101562 832 651.223632812 903 c 5
 724.223632812 903 l 5
 701.827148438 793 598.71875 730 504.71875 730 c 4
 410.71875 730 331.1796875 795 347.223632812 903 c 5
EndSplineSet
Refer: 39 71 N 1 0 0 1 0 0 2
EndChar
StartChar: gbreve
Encoding: 287 287 386
Width: 561
Flags: MW
LayerCount: 2
Fore
SplineSet
224 685 m 5
 297 685 l 5
 292 621 372 616 402 616 c 4
 430 616 512 622 529 685 c 5
 602 685 l 5
 581 581 478 522 384 522 c 4
 292 522 209 581 224 685 c 5
EndSplineSet
Refer: 71 103 N 1 0 0 1 0 0 2
EndChar
StartChar: Gdotaccent
Encoding: 288 288 368
Width: 733
Flags: MW
LayerCount: 2
Fore
SplineSet
438.243164062 767 m 5
 464.338867188 915 l 5
 612.338867188 915 l 5
 586.243164062 767 l 5
 438.243164062 767 l 5
EndSplineSet
Refer: 39 71 N 1 0 0 1 0 0 3
EndChar
StartChar: gdotaccent
Encoding: 289 289 387
Width: 550
Flags: MW
LayerCount: 2
Fore
SplineSet
289 539 m 5
 315 687 l 5
 463 687 l 5
 437 539 l 5
 289 539 l 5
EndSplineSet
Refer: 71 103 N 1 0 0 1 0 0 3
EndChar
StartChar: Gcommaaccent
Encoding: 290 290 367
Width: 733
Flags: MW
LayerCount: 2
Fore
SplineSet
342.891601562 -63 m 1
 434.891601562 -63 l 1
 421.137695312 -141 l 2
 414.729492188 -166 422.080078125 -147 359.091796875 -232 c 1
 313.091796875 -232 l 1
 353.845703125 -154 l 1
 326.845703125 -154 l 1
 342.891601562 -63 l 1
EndSplineSet
Refer: 39 71 N 1 0 0 1 0 0 2
EndChar
StartChar: Hbar
Encoding: 294 294 354
Width: 794
Flags: MW
LayerCount: 2
Fore
SplineSet
135 587 m 0
 138 603 151 629 191 629 c 2
 202 629 l 1
 214 695 l 1
 362 695 l 1
 350 629 l 1
 665 629 l 1
 677 695 l 1
 825 695 l 1
 813 629 l 1
 827 629 l 2
 874 629 877 604 874 587 c 0
 871 572 859 545 814 545 c 2
 798 545 l 1
 702 0 l 1
 554 0 l 1
 609 314 l 1
 294 314 l 1
 239 0 l 1
 91 0 l 1
 187 545 l 1
 177 545 l 2
 132 545 133 573 135 587 c 0
650 545 m 1
 335 545 l 1
 311 409 l 1
 626 409 l 1
 650 545 l 1
EndSplineSet
EndChar
StartChar: hbar
Encoding: 295 295 413
Width: 617
Flags: MW
LayerCount: 2
Fore
SplineSet
84.103515625 511 m 1
 96.798828125 583 l 1
 218.798828125 583 l 1
 238.546875 695 l 1
 372.546875 695 l 1
 352.798828125 583 l 1
 507.798828125 583 l 1
 495.103515625 511 l 1
 340.103515625 511 l 1
 316.828125 379 l 1
 330.53125 400 354.8203125 430 389.700195312 452 c 0
 417.874023438 470 453.166015625 483 496.166015625 483 c 0
 549.166015625 483 581.049804688 471 599.700195312 452 c 0
 629.233398438 421 623.064453125 369 613.366210938 314 c 0
 610.8984375 300 607.4296875 286 605.137695312 273 c 2
 557 0 l 1
 421 0 l 1
 478.659179688 327 l 2
 482.890625 351 483.76953125 373 476.415039062 388 c 4
 468.883789062 402 454.470703125 411 425.470703125 411 c 0
 398.470703125 411 375.53125 400 357.709960938 384 c 0
 329.301757812 359 311.600585938 321 304.311523438 291 c 2
 253 0 l 1
 116 0 l 1
 206.103515625 511 l 1
 84.103515625 511 l 1
EndSplineSet
EndChar
StartChar: Itilde
Encoding: 296 296 270
Width: 331
Flags: MW
LayerCount: 2
Fore
SplineSet
125.353515625 813 m 1xd7
 141.283203125 892 197.805664062 946 259.805664062 946 c 0xcf
 328.805664062 946 345.283203125 892 388.225585938 886 c 0xd7
 401.049804688 885 404.578125 888 408.754882812 889 c 1
 425.694335938 900 435.458007812 910 442.805664062 946 c 1xe7
 515.805664062 946 l 1xcf
 499.875976562 867 443.353515625 813 381.353515625 813 c 0xd7
 312.353515625 813 295.875976562 867 252.756835938 872 c 0xcf
 239.109375 874 240.581054688 871 232.228515625 869 c 1
 215.288085938 858 205.701171875 849 198.353515625 813 c 1xe7
 125.353515625 813 l 1xd7
EndSplineSet
Refer: 41 73 N 1 0 0 1 0 0 2
EndChar
StartChar: imacron
Encoding: 299 299 232
Width: 256
Flags: MW
LayerCount: 2
Fore
SplineSet
102.26953125 580 m 1
 117.2578125 665 l 1
 373.2578125 665 l 1
 358.26953125 580 l 1
 102.26953125 580 l 1
EndSplineSet
Refer: 137 305 N 1 0 0 1 0 0 2
EndChar
StartChar: Iogonek
Encoding: 302 302 370
Width: 331
Flags: MW
LayerCount: 2
Fore
SplineSet
240 0 m 17
 208 0 126 -49 124 -80 c 1
 125 -87 l 1
 127 -93 l 1
 136 -103 145 -107 164 -107 c 0
 193 -107 224 -97 239 -92 c 1
 245 -162 l 1
 211 -176 171 -189 125 -189 c 0
 61 -189 16 -161 24 -118 c 0
 32 -71 99 -25 146 0 c 1
 240 0 l 17
EndSplineSet
Refer: 41 73 N 1 0 0 1 0 0 2
EndChar
StartChar: iogonek
Encoding: 303 303 388
Width: 256
Flags: MW
LayerCount: 2
Fore
SplineSet
194 0 m 17
 162 0 80 -49 78 -80 c 1
 79 -87 l 1
 81 -93 l 1
 90 -103 99 -107 118 -107 c 0
 147 -107 178 -97 193 -92 c 1
 199 -162 l 1
 165 -176 125 -189 79 -189 c 0
 15 -189 -30 -161 -22 -118 c 0
 -14 -71 53 -25 100 0 c 1
 194 0 l 17
EndSplineSet
Refer: 73 105 N 1 0 0 1 0 0 2
EndChar
StartChar: Idotaccent
Encoding: 304 304 369
Width: 331
Flags: MW
LayerCount: 2
Fore
SplineSet
230 786 m 5
 256 934 l 5
 404 934 l 5
 378 786 l 5
 230 786 l 5
EndSplineSet
Refer: 41 73 N 1 0 0 1 0 0 2
EndChar
StartChar: dotlessi
Encoding: 305 305 137
Width: 256
Flags: MW
LayerCount: 2
Fore
SplineSet
60 0 m 1
 143.2265625 472 l 1
 277.2265625 472 l 1
 194 0 l 1
 60 0 l 1
EndSplineSet
EndChar
StartChar: jcircumflex
Encoding: 309 309 347
Width: 286
Flags: MW
LayerCount: 2
Fore
SplineSet
-96.0966796875 -148 m 5
 -62.400390625 -76 l 5
 -36.5166015625 -88 -20.3984375 -93 9.6015625 -93 c 4
 49.6015625 -93 68.01171875 -85 76.3046875 -72 c 4
 79.1865234375 -67 81.244140625 -61 82.3017578125 -55 c 6
 175.2265625 472 l 5
 309.2265625 472 l 5
 220.004882812 -34 l 6
 213.891601562 -63 207.604492188 -110 168.78515625 -143 c 4
 144.08203125 -164 106.614257812 -178 47.6142578125 -178 c 4
 -12.3857421875 -178 -58.09375 -165 -96.0966796875 -148 c 5
EndSplineSet
Refer: 126 710 N 1 0 0 1 -116.353 -2 2
EndChar
StartChar: Kcommaaccent
Encoding: 310 310 371
Width: 764
Flags: MW
LayerCount: 2
Fore
SplineSet
298 -63 m 1
 390 -63 l 1
 376 -141 l 2
 370 -166 377 -147 314 -232 c 1
 268 -232 l 1
 309 -154 l 1
 282 -154 l 1
 298 -63 l 1
EndSplineSet
Refer: 43 75 N 1 0 0 1 0 0 2
EndChar
StartChar: kcommaaccent
Encoding: 311 311 389
Width: 531
Flags: MW
LayerCount: 2
Fore
SplineSet
199 -63 m 1
 291 -63 l 1
 277 -141 l 2
 271 -166 278 -147 215 -232 c 1
 169 -232 l 1
 210 -154 l 1
 183 -154 l 1
 199 -63 l 1
EndSplineSet
Refer: 75 107 N 1 0 0 1 0 0 2
EndChar
StartChar: kra
Encoding: 312 312 360
Width: 531
Flags: MW
LayerCount: 2
Fore
SplineSet
67 0 m 5
 150.2265625 472 l 5
 268.2265625 472 l 5
 240.54296875 315 l 5
 418.2265625 472 l 5
 570.2265625 472 l 5
 365.487304688 292 l 5
 511 0 l 5
 376 0 l 5
 272.028320312 210 l 5
 212.859375 158 l 5
 185 0 l 5
 67 0 l 5
EndSplineSet
EndChar
StartChar: Lacute
Encoding: 313 313 313
Width: 581
Flags: MW
LayerCount: 2
Fore
SplineSet
355.890625 765 m 1
 495.169921875 863 l 1
 688.169921875 863 l 1
 474.948242188 771 l 1
 461.243164062 767 l 1
 445.890625 765 l 9
 385.890625 765 l 1
 355.890625 765 l 1
EndSplineSet
Refer: 44 76 N 1 0 0 1 1 0 2
EndChar
StartChar: lacute
Encoding: 314 314 326
Width: 256
Flags: MW
LayerCount: 2
Fore
SplineSet
169 765 m 1
 308 863 l 1
 501 863 l 1
 288 771 l 1
 274 767 l 1
 259 765 l 9
 199 765 l 1
 169 765 l 1
EndSplineSet
Refer: 76 108 N 1 0 0 1 0 0 2
EndChar
StartChar: Lcommaaccent
Encoding: 315 315 373
Width: 581
Flags: MW
LayerCount: 2
Fore
SplineSet
238.891601562 -63 m 1
 330.891601562 -63 l 1
 317.137695312 -141 l 2
 310.729492188 -166 318.080078125 -147 255.091796875 -232 c 1
 209.091796875 -232 l 1
 249.845703125 -154 l 1
 222.845703125 -154 l 1
 238.891601562 -63 l 1
EndSplineSet
Refer: 44 76 N 1 0 0 1 0 0 2
EndChar
StartChar: lcommaaccent
Encoding: 316 316 391
Width: 256
Flags: MW
LayerCount: 2
Fore
SplineSet
73 -63 m 1
 165 -63 l 1
 151 -141 l 2
 145 -166 152 -147 89 -232 c 1
 43 -232 l 1
 84 -154 l 1
 57 -154 l 1
 73 -63 l 1
EndSplineSet
Refer: 76 108 N 1 0 0 1 0 0 2
EndChar
StartChar: Lcaron
Encoding: 317 317 298
Width: 581
Flags: MW
LayerCount: 2
Fore
SplineSet
439.499023438 621 m 1
 491.546875 695 l 1
 452.546875 695 l 1
 475.646484375 826 l 1
 607.646484375 826 l 1
 586.83984375 708 l 1
 584.546875 695 l 1
 504.499023438 621 l 1
 439.499023438 621 l 1
EndSplineSet
Refer: 44 76 N 1 0 0 1 0 0 2
EndChar
StartChar: lcaron
Encoding: 318 318 305
Width: 426
Flags: MW
LayerCount: 2
Fore
SplineSet
352.861328125 555 m 1
 404.91015625 629 l 1
 365.91015625 629 l 1
 389.008789062 760 l 1
 521.008789062 760 l 1
 500.202148438 642 l 1
 497.91015625 629 l 1
 417.861328125 555 l 1
 352.861328125 555 l 1
EndSplineSet
Refer: 76 108 N 1 0 0 1 0 0 2
EndChar
StartChar: Lslash
Encoding: 321 321 132
Width: 672
Flags: MW
LayerCount: 2
Fore
SplineSet
121 275 m 1
 247 362 l 1
 306 695 l 1x70
 454 695 l 1
 416 481 l 1
 556 581 l 1
 603 506 l 1
 394 360 l 1
 349 101 l 1x70
 540 104 l 5
 645 105 l 1
 626 0 l 1xb0
 183 0 l 1
 225 240 l 1
 168 200 l 1
 121 275 l 1
EndSplineSet
EndChar
StartChar: lslash
Encoding: 322 322 138
Width: 381
Flags: MW
LayerCount: 2
Fore
SplineSet
63.6083984375 270 m 1
 183.419921875 354 l 1
 243.546875 695 l 1
 377.546875 695 l 1
 336.287109375 461 l 1
 424.21875 523 l 1
 459.16796875 466 l 1
 319.888671875 368 l 1
 255 0 l 1
 121 0 l 1
 167.021484375 261 l 1
 98.5576171875 213 l 1
 63.6083984375 270 l 1
EndSplineSet
EndChar
StartChar: Nacute
Encoding: 323 323 318
Width: 794
Flags: MW
LayerCount: 2
Fore
SplineSet
393 764 m 1
 532 862 l 1
 725 862 l 1
 512 770 l 1
 498 766 l 1
 483 764 l 9
 423 764 l 1
 393 764 l 1
EndSplineSet
Refer: 46 78 N 1 0 0 1 0 0 2
EndChar
StartChar: Ncommaaccent
Encoding: 325 325 374
Width: 794
Flags: MW
LayerCount: 2
Fore
SplineSet
314.891601562 -63 m 1
 406.891601562 -63 l 1
 393.137695312 -141 l 2
 386.729492188 -166 394.080078125 -147 331.091796875 -232 c 1
 285.091796875 -232 l 1
 325.845703125 -154 l 1
 298.845703125 -154 l 1
 314.891601562 -63 l 1
EndSplineSet
Refer: 46 78 N 1 0 0 1 0 0 2
EndChar
StartChar: ncommaaccent
Encoding: 326 326 392
Width: 561
Flags: MW
LayerCount: 2
Fore
SplineSet
219 -63 m 1
 311 -63 l 1
 297 -141 l 2
 291 -166 298 -147 235 -232 c 1
 189 -232 l 1
 230 -154 l 1
 203 -154 l 1
 219 -63 l 1
EndSplineSet
Refer: 78 110 N 1 0 0 1 0 0 2
EndChar
StartChar: Ncaron
Encoding: 327 327 319
Width: 794
Flags: MW
LayerCount: 2
Fore
SplineSet
376.223632812 903 m 1
 449.223632812 903 l 1
 538.061523438 800 l 1
 663.223632812 903 l 1
 735.223632812 903 l 1
 584.541992188 729 l 1
 465.541992188 729 l 1
 376.223632812 903 l 1
EndSplineSet
Refer: 46 78 S 1 0 0 1 0 0 2
EndChar
StartChar: ncaron
Encoding: 328 328 333
Width: 561
Flags: MW
LayerCount: 2
Fore
SplineSet
206 680 m 5
 279 680 l 5
 377 594 l 5
 504 680 l 5
 551 680 l 5
 577 680 l 5
 421 541 l 5
 312 541 l 5
 206 680 l 5
EndSplineSet
Refer: 78 110 S 1 0 0 1 0 0 2
EndChar
StartChar: napostrophe
Encoding: 329 329 362
Width: 561
Flags: MW
LayerCount: 2
Fore
SplineSet
129.861328125 555 m 1
 181.91015625 629 l 1
 142.91015625 629 l 1
 166.008789062 760 l 1
 298.008789062 760 l 1
 277.202148438 642 l 1
 274.91015625 629 l 1
 194.861328125 555 l 1
 129.861328125 555 l 1
EndSplineSet
Refer: 78 110 N 1 0 0 1 0 0 2
EndChar
StartChar: Eng
Encoding: 330 330 357
Width: 794
Flags: MW
LayerCount: 2
Fore
SplineSet
554 0 m 1
 702 0 l 1
 697 -30 l 2
 687 -89 661 -129 630 -156 c 4
 591 -190 543 -202 503 -202 c 0
 440 -202 391 -183 353 -161 c 1
 396 -40 l 1
 407 -87 435 -105 468 -105 c 0
 487 -105 520 -99 538 -63 c 0
 543 -53 547 -40 550 -25 c 2
 554 0 l 1
91 0 m 1
 214 695 l 1
 406 695 l 1
 574 196 l 1
 599 120 l 1
 701 695 l 1
 825 695 l 1
 702 0 l 1
 510 0 l 1
 334 518 l 1
 315 574 l 1
 214 0 l 1
 91 0 l 1
EndSplineSet
EndChar
StartChar: Omacron
Encoding: 332 332 240
Width: 794
Flags: MW
LayerCount: 2
Fore
SplineSet
204 809 m 0
 207 825 220 851 260 851 c 2
 827 851 l 2
 874 851 877 826 874 809 c 0
 871 794 859 767 814 767 c 2
 246 767 l 2
 201 767 202 795 204 809 c 0
EndSplineSet
Refer: 47 79 N 1 0 0 1 0 0 3
EndChar
StartChar: omacron
Encoding: 333 333 235
Width: 550
Flags: MW
LayerCount: 2
Fore
SplineSet
178 580 m 1
 193 665 l 1
 590 665 l 1
 575 580 l 1
 178 580 l 1
EndSplineSet
Refer: 79 111 N 1 0 0 1 0 0 3
EndChar
StartChar: Ohungarumlaut
Encoding: 336 336 320
Width: 794
Flags: MW
LayerCount: 2
Fore
SplineSet
530 765 m 1
 669 863 l 1
 862 863 l 1
 649 771 l 1
 635 767 l 1
 620 765 l 9
 560 765 l 1
 530 765 l 1
347 765 m 1
 486 863 l 1
 679 863 l 1
 466 771 l 1
 452 767 l 1
 437 765 l 9
 377 765 l 1
 347 765 l 1
EndSplineSet
Refer: 47 79 N 1 0 0 1 0 0 2
EndChar
StartChar: OE
Encoding: 338 338 134
Width: 1069
Flags: MW
LayerCount: 2
Fore
SplineSet
90.65625 344 m 0
 119.221679688 506 190.1484375 602 277.670898438 656 c 0
 351.60546875 701 436.426757812 717 518.426757812 717 c 0x9380
 594.426757812 717 637.546875 695 726.546875 695 c 2x1580
 1130.546875 695 l 1
 1112.03320312 590 l 1x1980
 1062.03320312 590 l 1
 1042.20898438 591 l 1
 816.561523438 593 l 1
 768.561523438 593 l 1
 736.118164062 409 l 1
 1049.11816406 409 l 1
 1032.36621094 314 l 1
 719.366210938 314 l 1
 682.8671875 107 l 1x3580
 773.04296875 108 l 1
 799.04296875 108 l 1
 977.395507812 110 l 5
 999.572265625 111 l 1
 1042.57226562 111 l 1
 1023 0 l 1x5180
 604 0 l 2x3180
 516 0 465.12109375 -22 388.12109375 -22 c 0
 300.12109375 -22 216.118164062 -5 158.758789062 44 c 0
 96.2802734375 98 63.6787109375 191 90.65625 344 c 0
239.006835938 363 m 2
 231.54296875 315 l 2
 219.086914062 216 234.154296875 154 262.1015625 114 c 0
 298.932617188 62 357.81640625 50 408.81640625 50 c 0
 510.81640625 50 533.98828125 85 554.088867188 199 c 2
 605.047851562 488 l 2
 626.969726562 618 606.5546875 644 514.5546875 644 c 0x9380
 507.5546875 644 500.377929688 643 493.377929688 643 c 0
 425.672851562 639 376.44140625 615 340.622070312 582 c 0
 259.75 509 245.120117188 392 239.006835938 363 c 2
EndSplineSet
EndChar
StartChar: oe
Encoding: 339 339 140
Width: 856
Flags: MW
LayerCount: 2
Fore
SplineSet
72 239 m 0
 92 352 142 417 204 452 c 0
 252 479 306 489 361 489 c 0
 412 489 448 482 474 472 c 0
 503 461 521 446 533 434 c 1
 547 445 572 462 610 474 c 0
 638 483 671 489 713 489 c 0
 788 489 830 465 853 431 c 0
 870 405 876 372 877 342 c 4
 878 304 870 269 868 250 c 1
 570 250 l 1
 564 218 560 187 561 159 c 0
 562 130 569 105 588 86 c 0
 605 69 629 62 656 62 c 0
 748 62 815 115 833 129 c 1
 825 38 l 1
 764 6 705 -11 637 -11 c 0
 591 -11 558 -5 533 4 c 0
 498 16 479 34 465 46 c 1
 453 36 434 23 406 12 c 0
 375 -1 333 -11 275 -11 c 0
 197 -11 146 8 113 38 c 0
 63 85 58 160 72 239 c 0
203 238 m 0
 193 179 187 129 206 97 c 0
 219 75 245 62 288 62 c 0
 344 62 377 86 397 122 c 0
 416 155 424 199 431 241 c 2
 434 256 l 2
 451 350 438 369 426 389 c 1
 406 407 387 417 349 417 c 0
 307 417 279 405 258 385 c 0
 223 351 213 295 203 238 c 0
583 304 m 1
 762 304 l 1
 764 329 763 357 755 378 c 0
 747 400 730 416 699 416 c 0
 664 416 638 398 620 376 c 0
 595 346 585 310 583 304 c 1
EndSplineSet
EndChar
StartChar: Racute
Encoding: 340 340 311
Width: 703
Flags: MW
LayerCount: 2
Fore
SplineSet
331.713867188 764 m 1
 470.994140625 862 l 1
 663.994140625 862 l 1
 450.771484375 770 l 1
 437.06640625 766 l 1
 421.713867188 764 l 9
 361.713867188 764 l 1
 331.713867188 764 l 1
EndSplineSet
Refer: 50 82 N 1 0 0 1 0 0 2
EndChar
StartChar: Rcommaaccent
Encoding: 342 342 375
Width: 703
Flags: MW
LayerCount: 2
Fore
SplineSet
284 -63 m 1
 376 -63 l 1
 362 -141 l 2
 356 -166 363 -147 300 -232 c 1
 254 -232 l 1
 295 -154 l 1
 268 -154 l 1
 284 -63 l 1
EndSplineSet
Refer: 50 82 N 1 0 0 1 0 0 2
EndChar
StartChar: rcommaaccent
Encoding: 343 343 393
Width: 372
Flags: MW
LayerCount: 2
Fore
SplineSet
118 -63 m 1
 210 -63 l 1
 196 -141 l 2
 190 -166 197 -147 134 -232 c 1
 88 -232 l 1
 129 -154 l 1
 102 -154 l 1
 118 -63 l 1
EndSplineSet
Refer: 82 114 N 1 0 0 1 0 0 2
EndChar
StartChar: Rcaron
Encoding: 344 344 321
Width: 703
Flags: MW
LayerCount: 2
Fore
SplineSet
308 903 m 5
 381 903 l 5
 470 800 l 5
 595 903 l 5
 668 903 l 5xf4
 517 729 l 5
 399 729 l 5
 308 903 l 5
EndSplineSet
Refer: 50 82 N 1 0 0 1 0 0 2
EndChar
StartChar: rcaron
Encoding: 345 345 335
Width: 372
Flags: MW
LayerCount: 2
Fore
SplineSet
175 680 m 5
 248 680 l 5
 346 594 l 5
 473 680 l 5
 520 680 l 5
 546 680 l 5
 390 541 l 5
 281 541 l 5
 175 680 l 5
EndSplineSet
Refer: 82 114 S 1 0 0 1 1 0 2
EndChar
StartChar: Sacute
Encoding: 346 346 299
Width: 611
Flags: MW
LayerCount: 2
Fore
SplineSet
285.890625 765 m 1
 425.169921875 863 l 1
 618.169921875 863 l 1
 404.948242188 771 l 1
 391.243164062 767 l 1
 375.890625 765 l 9
 315.890625 765 l 1
 285.890625 765 l 1
EndSplineSet
Refer: 51 83 N 1 0 0 1 0 0 2
EndChar
StartChar: Scaron
Encoding: 352 352 217
Width: 611
Flags: MW
LayerCount: 2
Fore
SplineSet
284.223632812 903 m 1
 357.223632812 903 l 1
 446.061523438 800 l 1
 571.223632812 903 l 1
 644.223632812 903 l 1xe8
 492.541992188 729 l 1
 374.541992188 729 l 1
 284.223632812 903 l 1
EndSplineSet
Refer: 51 83 S 1 0 0 1 0 0 2
EndChar
StartChar: scaron
Encoding: 353 353 220
Width: 422
Flags: MW
LayerCount: 2
Fore
SplineSet
142 680 m 5
 215 680 l 5
 313 594 l 5
 440 680 l 5
 487 680 l 5
 513 680 l 5
 357 541 l 5
 248 541 l 5
 142 680 l 5
EndSplineSet
Refer: 83 115 N 1 0 0 1 0 0 2
EndChar
StartChar: tcedilla
Encoding: 355 355 337
Width: 404
Flags: MW
LayerCount: 2
Fore
SplineSet
91 400 m 1
 103 472 l 1
 173 472 l 1
 197 607 l 1
 325 607 l 1
 301 472 l 1xf4
 438 472 l 1
 426 400 l 1
 289 400 l 1
 244 150 l 2
 233 89 248 67 281 67 c 0xf8
 320 67 349 86 373 103 c 1
 379 33 l 1
 319 7 259 -11 185 -11 c 0
 88 -11 102 85 111 138 c 2
 158 400 l 1xf8
 91 400 l 1
EndSplineSet
Refer: 129 184 S 1 0 0 1 20 0 2
EndChar
StartChar: Tcaron
Encoding: 356 356 301
Width: 733
Flags: MW
LayerCount: 2
Fore
SplineSet
345 903 m 1
 418 903 l 1
 507 800 l 1
 632 903 l 1
 705 903 l 1xf0
 554 729 l 1
 436 729 l 1
 345 903 l 1
EndSplineSet
Refer: 52 84 S 1 0 0 1 0 0 2
EndChar
StartChar: tcaron
Encoding: 357 357 308
Width: 404
Flags: MW
LayerCount: 2
Fore
SplineSet
383 533 m 1
 435 607 l 1
 396 607 l 1
 419 738 l 1
 551 738 l 1
 530 620 l 1
 528 607 l 1
 448 533 l 1
 383 533 l 1
EndSplineSet
Refer: 84 116 N 1 0 0 1 0 0 2
EndChar
StartChar: Tbar
Encoding: 358 358 358
Width: 733
Flags: MW
LayerCount: 2
Fore
SplineSet
141.974609375 584 m 1
 160.489257812 689 l 1
 814.489257812 689 l 1
 795.974609375 584 l 1
 543.680664062 588 l 1
 502.772460938 356 l 1
 650.772460938 356 l 1
 637.900390625 283 l 1
 489.900390625 283 l 1
 440 0 l 1
 292 0 l 1
 341.900390625 283 l 1
 183.900390625 283 l 1
 196.772460938 356 l 1
 354.772460938 356 l 1
 395.680664062 588 l 1
 141.974609375 584 l 1
EndSplineSet
EndChar
StartChar: tbar
Encoding: 359 359 363
Width: 404
Flags: MW
LayerCount: 2
Fore
SplineSet
91 400 m 1
 103 472 l 1
 173 472 l 1
 197 607 l 1
 325 607 l 1
 301 472 l 1
 438 472 l 1
 426 400 l 1
 289 400 l 1
 270 294 l 1
 404 294 l 1
 391 221 l 1
 257 221 l 1
 246 158 l 2
 240 126 239 102 246 86 c 0
 252 74 263 67 282 67 c 0
 333 67 370 103 373 103 c 2
 379 33 l 1
 319 7 259 -11 185 -11 c 0
 153 -11 133 0 121 16 c 0
 97 49 106 106 112 142 c 2
 126 221 l 1
 58 221 l 1
 71 294 l 1
 139 294 l 1
 158 400 l 1
 91 400 l 1
EndSplineSet
EndChar
StartChar: Utilde
Encoding: 360 360 275
Width: 764
Flags: MW
LayerCount: 2
Fore
SplineSet
343 813 m 1xd3
 359 892 417 946 478 946 c 0xcb
 547 946 563 892 606 886 c 0xd3
 620 885 623 888 627 889 c 1
 644 900 654 910 661 946 c 1xe3
 734 946 l 1xcb
 718 867 661 813 599 813 c 0xd3
 531 813 514 867 471 872 c 0xcb
 458 874 458 871 450 869 c 1
 434 858 424 849 416 813 c 1xe3
 343 813 l 1xd3
EndSplineSet
Refer: 53 85 S 1 0 0 1 0 0 2
EndChar
StartChar: Umacron
Encoding: 362 362 238
Width: 764
Flags: MW
LayerCount: 2
Fore
SplineSet
189 809 m 0
 192 825 205 851 245 851 c 2
 812 851 l 2
 859 851 862 826 859 809 c 0
 856 794 844 767 799 767 c 2
 231 767 l 2
 186 767 187 795 189 809 c 0
EndSplineSet
Refer: 53 85 N 1 0 0 1 0 0 3
EndChar
StartChar: umacron
Encoding: 363 363 233
Width: 561
Flags: MW
LayerCount: 2
Fore
SplineSet
183.26953125 580 m 1
 198.2578125 665 l 1
 595.2578125 665 l 1
 580.26953125 580 l 1
 183.26953125 580 l 1
EndSplineSet
Refer: 85 117 N 1 0 0 1 0 0 3
EndChar
StartChar: Ubreve
Encoding: 364 364 343
Width: 764
Flags: MW
LayerCount: 2
Fore
SplineSet
356 930 m 5
 429 930 l 5
 424 866 504 861 534 861 c 4
 562 861 644 867 661 930 c 5
 734 930 l 5
 713 826 610 767 516 767 c 4
 424 767 341 826 356 930 c 5
EndSplineSet
Refer: 53 85 N 1 0 0 1 0 0 3
EndChar
StartChar: ubreve
Encoding: 365 365 349
Width: 561
Flags: MW
LayerCount: 2
Fore
SplineSet
214.78125 702 m 5
 287.78125 702 l 5
 282.497070312 638 362.615234375 633 392.615234375 633 c 4
 420.615234375 633 502.672851562 639 519.78125 702 c 5
 592.78125 702 l 5
 571.443359375 598 469.040039062 539 375.040039062 539 c 4
 283.040039062 539 199.443359375 598 214.78125 702 c 5
EndSplineSet
Refer: 85 117 N 1 0 0 1 0 0 3
EndChar
StartChar: Uring
Encoding: 366 366 274
Width: 764
Flags: MW
LayerCount: 2
Fore
SplineSet
399 781 m 0
 410 843 445 903 544 903 c 0
 614 903 659 870 643 779 c 0
 632 716 597 657 499 657 c 0
 428 657 383 689 399 781 c 0
461 780 m 0
 457 758 459 745 467 738 c 0
 475 729 492 729 510 729 c 2
 511 729 l 2
 531 730 550 730 564 741 c 0
 572 748 578 759 582 779 c 0
 586 800 584 812 577 819 c 0
 568 829 552 830 532 830 c 2xdf
 530 830 l 2
 507 830 492 829 480 820 c 0
 471 813 465 800 461 780 c 0
EndSplineSet
Refer: 53 85 N 1 0 0 1 0 0 2
EndChar
StartChar: Uhungarumlaut
Encoding: 368 368 322
Width: 764
Flags: MW
LayerCount: 2
Fore
SplineSet
514.890625 765 m 1
 654.169921875 863 l 1
 847.169921875 863 l 1
 633.948242188 771 l 1
 620.243164062 767 l 1
 604.890625 765 l 9
 544.890625 765 l 1
 514.890625 765 l 1
331.890625 765 m 1
 471.169921875 863 l 1
 664.169921875 863 l 1
 450.948242188 771 l 1
 437.243164062 767 l 1
 421.890625 765 l 9
 361.890625 765 l 1
 331.890625 765 l 1
EndSplineSet
Refer: 53 85 N 1 0 0 1 0 0 2
EndChar
StartChar: Uogonek
Encoding: 370 370 376
Width: 764
Flags: MW
LayerCount: 2
Fore
SplineSet
494 0 m 17
 462 0 380 -49 378 -80 c 1
 379 -87 l 1
 381 -93 l 1
 390 -103 399 -107 418 -107 c 0
 447 -107 478 -97 493 -92 c 1
 499 -162 l 1
 465 -176 425 -189 379 -189 c 0
 315 -189 270 -161 278 -118 c 0
 286 -71 353 -25 400 0 c 1
 494 0 l 17
EndSplineSet
Refer: 53 85 N 1 0 0 1 0 0 2
EndChar
StartChar: uogonek
Encoding: 371 371 394
Width: 561
Flags: MW
LayerCount: 2
Fore
SplineSet
500 0 m 17
 468 0 386 -49 384 -80 c 1
 385 -87 l 1
 387 -93 l 1
 396 -103 405 -107 424 -107 c 0
 453 -107 484 -97 499 -92 c 1
 505 -162 l 1
 471 -176 431 -189 385 -189 c 0
 321 -189 276 -161 284 -118 c 0
 292 -71 359 -25 406 0 c 1
 500 0 l 17
EndSplineSet
Refer: 85 117 N 1 0 0 1 0 0 2
EndChar
StartChar: Zacute
Encoding: 377 377 302
Width: 672
Flags: MW
LayerCount: 2
Fore
SplineSet
346.713867188 764 m 1
 485.994140625 862 l 1
 678.994140625 862 l 1
 465.771484375 770 l 1
 452.06640625 766 l 1
 436.713867188 764 l 9
 376.713867188 764 l 1
 346.713867188 764 l 1
EndSplineSet
Refer: 58 90 N 1 0 0 1 0 0 2
EndChar
StartChar: Zdotaccent
Encoding: 379 379 303
Width: 672
Flags: MW
LayerCount: 2
Fore
SplineSet
431 786 m 5
 457 934 l 5
 605 934 l 5
 579 786 l 5
 431 786 l 5
EndSplineSet
Refer: 58 90 N 1 0 0 1 0 0 2
EndChar
StartChar: zdotaccent
Encoding: 380 380 310
Width: 476
Flags: MW
LayerCount: 2
Fore
SplineSet
281.451171875 547 m 5
 307.546875 695 l 5
 455.546875 695 l 5
 429.451171875 547 l 5
 281.451171875 547 l 5
EndSplineSet
Refer: 90 122 N 1 0 0 1 0 0 2
EndChar
StartChar: Zcaron
Encoding: 381 381 219
Width: 672
Flags: MW
LayerCount: 2
Fore
SplineSet
316 903 m 1
 388 903 l 1
 478 800 l 1
 602 903 l 1
 675 903 l 1x0c
 525 729 l 1
 406 729 l 1
 316 903 l 1
EndSplineSet
Refer: 58 90 S 1 0 0 1 0 0 2
EndChar
StartChar: zcaron
Encoding: 382 382 222
Width: 476
Flags: MW
LayerCount: 2
Fore
SplineSet
177 680 m 5
 250 680 l 5
 348 594 l 5
 475 680 l 5
 522 680 l 5
 548 680 l 5
 392 541 l 5
 283 541 l 5
 177 680 l 5
EndSplineSet
Refer: 90 122 S 1 0 0 1 0 0 2
EndChar
StartChar: florin
Encoding: 402 402 104
Width: 630
Flags: MW
LayerCount: 2
Fore
SplineSet
-29 -148 m 1
 26 -76 l 1
 46 -87 61 -93 91 -93 c 0
 149 -93 162 -75 170 -53 c 2
 346 400 l 1
 290 400 l 1
 318 472 l 1
 373 472 l 1
 391 516 404 554 424 588 c 0
 437 611 454 631 477 650 c 0
 496 665 525 683 572 695 c 0
 598 702 630 706 668 706 c 0
 705 706 725 702 756 695 c 1
 717 594 l 1
 706 608 693 633 639 633 c 0
 602 633 581 624 564 604 c 0
 542 578 529 535 504 472 c 1
 603 472 l 1
 575 400 l 1
 481 400 l 1
 313 -28 l 2
 302 -57 288 -90 264 -118 c 0
 250 -134 233 -148 211 -158 c 4
 185 -170 152 -178 109 -178 c 0
 52 -178 12 -168 -29 -148 c 1
EndSplineSet
EndChar
StartChar: Acaron
Encoding: 461 461 264
Width: 733
Flags: MW
LayerCount: 2
Fore
SplineSet
346.223632812 903 m 1
 419.223632812 903 l 1
 508.061523438 800 l 1
 633.223632812 903 l 1
 706.223632812 903 l 1xf4
 554.541992188 729 l 1
 436.541992188 729 l 1
 346.223632812 903 l 1
EndSplineSet
Refer: 33 65 N 1 0 0 1 0 0 3
EndChar
StartChar: acaron
Encoding: 462 462 276
Width: 525
Flags: MW
LayerCount: 2
Fore
SplineSet
181.549804688 678 m 5
 254.549804688 678 l 5
 352.385742188 592 l 5
 479.549804688 678 l 5
 526.549804688 678 l 5
 552.549804688 678 l 5
 397.040039062 539 l 5
 288.040039062 539 l 5
 181.549804688 678 l 5
EndSplineSet
Refer: 65 97 N 1 0 0 1 0 0 3
EndChar
StartChar: Icaron
Encoding: 463 463 268
Width: 331
Flags: MW
LayerCount: 2
Fore
SplineSet
144 903 m 1
 217 903 l 1
 306 800 l 1
 431 903 l 1
 504 903 l 1xf4
 353 729 l 1
 235 729 l 1
 144 903 l 1
EndSplineSet
Refer: 41 73 N 1 0 0 1 0 0 3
EndChar
StartChar: icaron
Encoding: 464 464 280
Width: 374
Flags: MW
LayerCount: 2
Fore
SplineSet
180 678 m 5
 253 678 l 5
 350 592 l 5
 478 678 l 5
 525 678 l 5
 551 678 l 5
 395 539 l 5
 286 539 l 5
 180 678 l 5
EndSplineSet
Refer: 137 305 N 1 0 0 1 119 0 2
EndChar
StartChar: Ocaron
Encoding: 465 465 271
Width: 794
Flags: MW
LayerCount: 2
Fore
SplineSet
376.223632812 903 m 1
 449.223632812 903 l 1
 538.061523438 800 l 1
 663.223632812 903 l 1
 736.223632812 903 l 1xf4
 584.541992188 729 l 1
 466.541992188 729 l 1
 376.223632812 903 l 1
EndSplineSet
Refer: 47 79 N 1 0 0 1 0 0 3
EndChar
StartChar: ocaron
Encoding: 466 466 283
Width: 550
Flags: MW
LayerCount: 2
Fore
SplineSet
208.549804688 678 m 5
 281.549804688 678 l 5
 379.385742188 592 l 5
 506.549804688 678 l 5
 553.549804688 678 l 5
 579.549804688 678 l 5
 424.040039062 539 l 5
 315.040039062 539 l 5
 208.549804688 678 l 5
EndSplineSet
Refer: 79 111 N 1 0 0 1 0 0 3
EndChar
StartChar: Ucaron
Encoding: 467 467 273
Width: 764
Flags: MW
LayerCount: 2
Fore
SplineSet
360 903 m 1
 433 903 l 1
 522 800 l 1
 647 903 l 1
 720 903 l 1xf4
 569 729 l 1
 451 729 l 1
 360 903 l 1
EndSplineSet
Refer: 53 85 N 1 0 0 1 0 0 3
EndChar
StartChar: ucaron
Encoding: 468 468 285
Width: 561
Flags: MW
LayerCount: 2
Fore
SplineSet
213.549804688 678 m 5
 286.549804688 678 l 5
 384.385742188 592 l 5
 511.549804688 678 l 5
 558.549804688 678 l 5
 584.549804688 678 l 5
 429.040039062 539 l 5
 320.040039062 539 l 5
 213.549804688 678 l 5
EndSplineSet
Refer: 85 117 N 1 0 0 1 0 0 3
EndChar
StartChar: Udieresismacron
Encoding: 469 469 380
Width: 764
Flags: MW
LayerCount: 2
Fore
SplineSet
224 1009 m 4
 227 1025 240 1051 280 1051 c 6
 847 1051 l 6
 894 1051 897 1026 894 1009 c 4
 891 994 880 967 835 967 c 6
 267 967 l 6
 222 967 222 995 224 1009 c 4
EndSplineSet
Refer: 181 220 N 1 0 0 1 0 0 2
EndChar
StartChar: udieresismacron
Encoding: 470 470 293
Width: 561
Flags: MW
LayerCount: 2
Fore
SplineSet
219 780 m 5
 234 865 l 5
 631 865 l 5
 616 780 l 5
 219 780 l 5
EndSplineSet
Refer: 210 252 N 1 0 0 1 0 0 2
EndChar
StartChar: Udieresisacute
Encoding: 471 471 377
Width: 764
Flags: MW
LayerCount: 2
Fore
SplineSet
459.155273438 965 m 5
 598.435546875 1063 l 5
 791.435546875 1063 l 5
 578.213867188 971 l 5
 564.5078125 967 l 5
 549.155273438 965 l 13
 489.155273438 965 l 5
 459.155273438 965 l 5
EndSplineSet
Refer: 181 220 N 1 0 0 1 0 0 2
EndChar
StartChar: Udieresiscaron
Encoding: 473 473 379
Width: 764
Flags: MW
LayerCount: 2
Fore
SplineSet
390 1106 m 5
 463 1106 l 5
 561 1020 l 5
 688 1106 l 5
 735 1106 l 5
 761 1106 l 5
 606 967 l 5
 497 967 l 5
 390 1106 l 5
EndSplineSet
Refer: 181 220 N 1 0 0 1 0 0 2
EndChar
StartChar: udieresiscaron
Encoding: 474 474 295
Width: 561
Flags: MW
LayerCount: 2
Fore
SplineSet
248.815429688 878 m 5
 321.815429688 878 l 5
 419.651367188 792 l 5
 546.815429688 878 l 5
 593.815429688 878 l 5
 619.815429688 878 l 5
 464.305664062 739 l 5
 355.305664062 739 l 5
 248.815429688 878 l 5
EndSplineSet
Refer: 210 252 N 1 0 0 1 0 0 2
EndChar
StartChar: Udieresisgrave
Encoding: 475 475 378
Width: 764
Flags: MW
LayerCount: 2
Fore
SplineSet
392.435546875 1063 m 5
 585.435546875 1063 l 5
 689.979492188 964 l 5
 602.979492188 964 l 5
 587.155273438 965 l 5
 574.037109375 970 l 5
 392.435546875 1063 l 5
EndSplineSet
Refer: 181 220 N 1 0 0 1 0 0 2
EndChar
StartChar: Ngrave
Encoding: 504 504 291
Width: 794
Flags: MW
LayerCount: 2
Fore
SplineSet
391.69921875 866 m 1
 584.69921875 866 l 1
 689.243164062 767 l 1
 602.243164062 767 l 1
 586.418945312 768 l 1
 573.30078125 773 l 1
 391.69921875 866 l 1
EndSplineSet
Refer: 46 78 N 1 0 0 1 0 0 3
EndChar
StartChar: commaturnedmod
Encoding: 699 699 99
Width: 306
Flags: MW
LayerCount: 2
Fore
SplineSet
166 452 m 1
 186 565 l 29
 186 565 188 580 191 584 c 0
 195 592 274 695 274 695 c 1
 340 695 l 1
 281 583 l 1
 320 583 l 1
 297 452 l 1
 166 452 l 1
EndSplineSet
EndChar
StartChar: apostrophemod
Encoding: 700 700 98
Width: 306
Flags: MW
LayerCount: 2
Fore
SplineSet
185.272460938 563 m 1
 208.37109375 694 l 1
 339.37109375 694 l 1
 319.622070312 582 l 25
 319.622070312 582 316.153320312 568 314.272460938 563 c 0
 311.038085938 556 231.700195312 452 231.700195312 452 c 1
 165.700195312 452 l 1
 225.272460938 563 l 1
 185.272460938 563 l 1
EndSplineSet
EndChar
StartChar: circumflex
Encoding: 710 710 126
Width: 550
Flags: MW
LayerCount: 2
Fore
SplineSet
196.392578125 541 m 1
 342.018554688 692 l 1
 451.018554688 692 l 1
 544.392578125 541 l 1
 471.392578125 541 l 1
 386.262695312 631 l 1
 269.392578125 541 l 1
 196.392578125 541 l 1
EndSplineSet
EndChar
StartChar: ring
Encoding: 730 730 128
Width: 733
Flags: MW
LayerCount: 2
Fore
SplineSet
348 593 m 0
 353 622 368 642 387 656 c 4
 413 674 448 680 487 680 c 2
 492 680 l 2
 531 680 556 672 571 660 c 0
 595 642 597 615 593 594 c 0
 588 564 572 544 553 530 c 0
 527 512 492 506 454 506 c 2
 448 506 l 2
 407 507 382 516 367 528 c 0
 345 546 344 572 348 593 c 0
410 594 m 0
 406 573 408 561 416 553 c 0
 424 544 438 542 458 541 c 2
 460 541 l 2
 486 541 503 545 514 556 c 0
 522 564 528 576 531 593 c 0
 535 614 532 626 524 634 c 0
 515 642 502 645 482 645 c 2
 480 645 l 2
 457 645 442 643 430 634 c 0
 420 626 414 614 410 594 c 0
EndSplineSet
EndChar
StartChar: tilde
Encoding: 732 732 97
Width: 550
Flags: MW
LayerCount: 2
Fore
SplineSet
182.866210938 521 m 1x58
 199.267578125 597 256.907226562 646 315.907226562 646 c 0x38
 384.907226562 646 413.73828125 594 449.73828125 594 c 0x58
 465.73828125 594 488.501953125 604 498.907226562 646 c 1x98
 570.907226562 646 l 1x38
 556.740234375 577 503.866210938 521 436.866210938 521 c 0x58
 365.866210938 521 345.03515625 573 304.03515625 573 c 0x38
 288.03515625 573 266.448242188 564 255.866210938 521 c 1x98
 182.866210938 521 l 1x58
EndSplineSet
EndChar
StartChar: brevecmb
Encoding: 774 774 403
Width: 0
VWidth: 1136
Flags: MW
LayerCount: 2
Fore
SplineSet
-321.1171875 816 m 5
 -248.1171875 816 l 5
 -253.40234375 752 -173.284179688 747 -143.284179688 747 c 4
 -115.284179688 747 -33.2255859375 753 -16.1171875 816 c 5
 56.8828125 816 l 5
 35.544921875 712 -66.8583984375 653 -160.858398438 653 c 4
 -252.858398438 653 -336.455078125 712 -321.1171875 816 c 5
EndSplineSet
EndChar
StartChar: dotaccentcmb
Encoding: 775 775 404
Width: 0
VWidth: 1139
Flags: MW
LayerCount: 2
Fore
SplineSet
-91.0400390625 686 m 5
 -64.943359375 834 l 5
 83.056640625 834 l 5
 56.9599609375 686 l 5
 -91.0400390625 686 l 5
EndSplineSet
EndChar
StartChar: hungarumlautcmb
Encoding: 779 779 405
Width: 0
VWidth: 1136
Flags: MW
LayerCount: 2
Fore
SplineSet
-131.450195312 678 m 1
 -7.9404296875 817 l 1
 128.059570312 817 l 1
 -58.4501953125 678 l 1
 -131.450195312 678 l 1
-314.450195312 678 m 1
 -190.940429688 817 l 1
 -54.9404296875 817 l 1
 -241.450195312 678 l 1
 -314.450195312 678 l 1
EndSplineSet
EndChar
StartChar: caroncmb
Encoding: 780 780 407
Width: 0
VWidth: 1136
Flags: MW
LayerCount: 2
Fore
SplineSet
-317.1171875 816 m 5
 -244.1171875 816 l 5
 -146.28125 730 l 5
 -19.1171875 816 l 5
 27.8828125 816 l 5
 53.8828125 816 l 5
 -101.626953125 677 l 5
 -210.626953125 677 l 5
 -317.1171875 816 l 5
EndSplineSet
EndChar
StartChar: ogonekcmb
Encoding: 808 808 406
Width: 0
Flags: MW
LayerCount: 2
Fore
SplineSet
-386.51171875 -122 m 4
 -372.934570312 -45 -283.173828125 -18 -206.473632812 20 c 5
 -192.239257812 27 -179.004882812 34 -166.594726562 42 c 5
 -159.712890625 47 -152.831054688 52 -145.94921875 57 c 5
 -123 0 l 5
 -178.58203125 -43 -206.463867188 -48 -232.811523438 -84 c 4
 -238.221679688 -92 -240.927734375 -96 -241.280273438 -98 c 4
 -241.6328125 -100 -241.80859375 -101 -242.162109375 -103 c 5
 -241.219726562 -109 -237.749023438 -112 -234.27734375 -115 c 4
 -230.806640625 -118 -225.983398438 -119 -220.983398438 -119 c 4
 -198.983398438 -119 -172.456054688 -99 -152.047851562 -74 c 5
 -99.27734375 -115 l 5
 -134.565429688 -162 -197.14453125 -222 -278.321289062 -223 c 4
 -341.321289062 -223 -397.091796875 -182 -386.51171875 -122 c 4
EndSplineSet
EndChar
StartChar: tonos
Encoding: 900 900 350
Width: 183
Flags: MW
LayerCount: 2
Fore
SplineSet
87.1611328125 517 m 5
 175.546875 695 l 5
 312.546875 695 l 5
 160.161132812 517 l 5
 87.1611328125 517 l 5
EndSplineSet
EndChar
StartChar: dieresistonos
Encoding: 901 901 351
Width: 306
Flags: MW
LayerCount: 2
Fore
SplineSet
177 517 m 5
 266 695 l 5
 403 695 l 5
 250 517 l 5
 177 517 l 5
58 520 m 1
 69 583 l 1
 168 583 l 1
 157 520 l 1
 58 520 l 1
333 520 m 1xe8
 344 583 l 1
 442 583 l 1
 431 520 l 1
 333 520 l 1xe8
EndSplineSet
EndChar
StartChar: Macute
Encoding: 7742 7742 289
Width: 978
Flags: MW
LayerCount: 2
Fore
SplineSet
466.243164062 767 m 1
 605.522460938 865 l 1
 798.522460938 865 l 1
 585.30078125 773 l 1
 571.595703125 769 l 1
 556.243164062 767 l 9
 496.243164062 767 l 1
 466.243164062 767 l 1
EndSplineSet
Refer: 45 77 N 1 0 0 1 0 0 3
EndChar
StartChar: Etilde
Encoding: 7868 7868 267
Width: 642
Flags: MW
LayerCount: 2
Fore
SplineSet
295 767 m 1xd7
 311 846 368 900 430 900 c 0xcf
 499 900 515 846 558 840 c 0xd7
 571 839 575 842 579 843 c 1
 596 854 606 864 613 900 c 1xe7
 686 900 l 1xcf
 670 821 613 767 551 767 c 0xd7
 482 767 466 821 423 826 c 0xcf
 409 828 410 825 402 823 c 1
 385 812 375 803 368 767 c 1xe7
 295 767 l 1xd7
EndSplineSet
Refer: 37 69 N 1 0 0 1 0 0 3
EndChar
StartChar: figuredash
Encoding: 8210 8210 113
Width: 550
Flags: MW
LayerCount: 2
Fore
SplineSet
45.1396484375 256 m 5
 57.8349609375 328 l 5
 607.834960938 328 l 5
 595.139648438 256 l 5
 45.1396484375 256 l 5
EndSplineSet
EndChar
StartChar: emdash
Encoding: 8212 8212 408
Width: 1100
Flags: MW
LayerCount: 2
Fore
SplineSet
45.1396484375 256 m 1
 57.8349609375 328 l 1
 1157.83496094 328 l 1
 1145.13964844 256 l 1
 45.1396484375 256 l 1
EndSplineSet
EndChar
StartChar: dagger
Encoding: 8224 8224 114
Width: 489
Flags: MW
LayerCount: 2
Fore
SplineSet
143.2265625 472 m 0
 150.631835938 514 188.216796875 540 222.216796875 540 c 0
 263.216796875 540 274.516601562 502 315.87109375 487 c 1
 312.979492188 550 278.151367188 585 287.3203125 637 c 0
 295.079101562 681 331.487304688 706 368.487304688 706 c 0
 405.487304688 706 431.725585938 679 424.3203125 637 c 0
 415.151367188 585 367.626953125 548 342.87109375 487 c 1
 389.516601562 502 413.216796875 540 455.216796875 540 c 0
 495.216796875 540 516.926757812 510 510.2265625 472 c 0
 503.526367188 434 470.412109375 405 431.236328125 404 c 0
 390.236328125 404 378.11328125 443 337.7578125 458 c 1
 333.00390625 380 373.185546875 347 357.31640625 257 c 2
 278.673828125 -189 l 1
 141.673828125 -189 l 1
 220.31640625 257 l 2
 236.008789062 346 288.356445312 382 310.7578125 458 c 1
 265.11328125 443 238.236328125 404 197.236328125 404 c 3
 159.236328125 404 136.526367188 434 143.2265625 472 c 0
EndSplineSet
EndChar
StartChar: daggerdbl
Encoding: 8225 8225 115
Width: 489
Flags: MW
LayerCount: 2
Fore
SplineSet
67.4052734375 42 m 0
 74.1064453125 80 106.572265625 111 146.572265625 111 c 0
 186.572265625 111 195.400390625 76 239.05078125 57 c 1
 238.572265625 111 200.390625 144 209.383789062 195 c 0
 217.142578125 239 254.374023438 263 289.374023438 263 c 0
 327.374023438 263 353.61328125 236 346.560546875 196 c 0
 337.567382812 145 287.395507812 110 268.05078125 57 c 1
 312.047851562 74 341.572265625 111 379.572265625 111 c 0
 417.572265625 111 441.106445312 80 434.405273438 42 c 0
 427.881835938 5 394.591796875 -25 355.591796875 -25 c 0
 314.591796875 -25 306.586914062 9 262.9375 28 c 1
 263.415039062 -26 300.7734375 -58 291.604492188 -110 c 0
 284.021484375 -153 247.614257812 -178 212.614257812 -178 c 0
 174.614257812 -178 148.375 -151 155.604492188 -110 c 0
 164.596679688 -59 213.415039062 -26 233.9375 28 c 1
 182.586914062 9 165.591796875 -25 122.591796875 -25 c 0
 80.591796875 -25 61.0576171875 6 67.4052734375 42 c 0
145.518554688 485 m 0
 152.21875 523 185.508789062 553 224.508789062 553 c 0
 265.508789062 553 274.984375 516 317.163085938 500 c 1
 311.625 565 278.50390625 587 287.497070312 638 c 0
 294.725585938 679 330.487304688 706 367.487304688 706 c 0
 405.487304688 706 431.725585938 679 424.497070312 638 c 0
 415.151367188 585 366.861328125 555 346.163085938 500 c 1
 391.984375 516 415.508789062 553 457.508789062 553 c 0
 497.508789062 553 519.04296875 522 512.341796875 484 c 0
 505.818359375 447 472.528320312 417 433.528320312 417 c 0
 392.528320312 417 383.052734375 454 340.874023438 470 c 1
 346.412109375 405 378.533203125 383 369.541015625 332 c 0
 362.311523438 291 327.55078125 264 290.55078125 264 c 0
 252.55078125 264 226.311523438 291 233.541015625 332 c 0
 242.885742188 385 290.999023438 414 311.874023438 470 c 1
 266.052734375 454 241.528320312 417 199.528320312 417 c 0
 160.528320312 417 138.994140625 448 145.518554688 485 c 0
EndSplineSet
EndChar
StartChar: bullet
Encoding: 8226 8226 118
Width: 550
Flags: MW
LayerCount: 2
Fore
SplineSet
106 263 m 0
 132 412 230 478 359 478 c 0
 457 478 565 435 535 264 c 0
 509 116 411 50 282 50 c 0
 138 50 83 134 106 263 c 0
EndSplineSet
EndChar
StartChar: perthousand
Encoding: 8240 8240 124
Width: 1396
Flags: MW
LayerCount: 2
Fore
SplineSet
157 549 m 0
 175 653 229 750 375 750 c 0
 525 750 535 641 518 547 c 0
 498 436 439 347 302 347 c 0
 193 347 131 403 157 549 c 0
275 541 m 24
 266 488 252 420 315 420 c 0
 376 420 396 504 404 549 c 0
 414 608 419 677 360 677 c 0
 295 677 285 599 275 541 c 24
199 -14 m 0
 202 1 211 12 220 21 c 2
 873 723 l 2
 877 727 894 750 919 750 c 0
 944 750 957 729 953 708 c 0
 951 696 944 687 934 677 c 2
 275 -32 l 2
 271 -36 255 -55 232 -55 c 0
 209 -55 195 -37 199 -14 c 0
631 147 m 0
 651 259 709 347 848 347 c 0
 999 347 1008 239 991 144 c 0
 965 -4 880 -56 776 -56 c 0
 631 -56 613 44 631 147 c 0
752 152 m 4
 735 56 741 7 787 7 c 0
 837 7 866 85 877 146 c 0
 889 216 882 274 834 274 c 0
 791 274 766 229 752 152 c 4
997 147 m 0
 1023 292 1105 347 1215 347 c 0
 1365 347 1375 239 1358 144 c 0
 1338 33 1280 -56 1142 -56 c 0
 1034 -56 971 0 997 147 c 0
1116 138 m 0
 1102 60 1110 17 1155 17 c 0
 1203 17 1232 77 1244 146 c 0
 1260 234 1245 274 1200 274 c 0
 1150 274 1131 224 1116 138 c 0
EndSplineSet
EndChar
StartChar: minute
Encoding: 8242 8242 226
Width: 214
Flags: MW
LayerCount: 2
Fore
SplineSet
110.161132812 517 m 1
 198.546875 695 l 1
 335.546875 695 l 1
 183.161132812 517 l 1
 110.161132812 517 l 1
EndSplineSet
EndChar
StartChar: guilsinglleft
Encoding: 8249 8249 109
Width: 428
Flags: MW
LayerCount: 2
Fore
SplineSet
165 250 m 1
 307 427 l 1
 379 427 l 1
 320 292 306 262 303 247 c 0
 302 239 303 246 317 73 c 1
 245 73 l 1
 165 250 l 1
EndSplineSet
EndChar
StartChar: guilsinglright
Encoding: 8250 8250 110
Width: 428
Flags: MW
LayerCount: 2
Fore
SplineSet
134 73 m 1
 197 216 208 239 210 251 c 0
 211 258 210 263 196 427 c 1
 269 427 l 1
 348 250 l 1
 207 73 l 1
 134 73 l 1
EndSplineSet
EndChar
StartChar: overline
Encoding: 8254 8254 409
Width: 856
Flags: MW
LayerCount: 2
Fore
SplineSet
227.948242188 771 m 0
 230.76953125 787 244.353515625 813 284.353515625 813 c 2
 851.353515625 813 l 2
 898.353515625 813 900.9453125 788 897.948242188 771 c 0
 895.302734375 756 883.541992188 729 838.541992188 729 c 2
 270.541992188 729 l 2
 225.541992188 729 225.479492188 757 227.948242188 771 c 0
EndSplineSet
EndChar
StartChar: fraction
Encoding: 8260 8260 103
Width: 550
Flags: MW
LayerCount: 2
Fore
SplineSet
28.0849609375 -181 m 0
 30.201171875 -169 38.4931640625 -156 41.375 -151 c 2
 522.958007812 703 l 2
 534.484375 723 548.245117188 750 578.245117188 750 c 0
 599.245117188 750 616.071289062 732 612.015625 709 c 0
 610.252929688 699 605.841796875 691 601.254882812 682 c 2
 118.495117188 -173 l 2
 107.96875 -193 93.85546875 -222 62.85546875 -222 c 0
 42.85546875 -222 23.6767578125 -206 28.0849609375 -181 c 0
EndSplineSet
EndChar
StartChar: zero.superior
Encoding: 8304 8304 247
Width: 489
VWidth: 950
Flags: MW
LayerCount: 2
Fore
SplineSet
135.977539062 567 m 1
 137.916992188 578 138.622070312 582 140.561523438 593 c 1
 158.90234375 680 190.713867188 764 308.592773438 786 c 0
 331.297851562 790 355.651367188 792 383.651367188 792 c 0
 434.651367188 792 491.240234375 784 524.950195312 754 c 0
 581.133789062 704 559.20703125 608 551.153320312 568 c 1
 551.859375 572 550.80078125 566 551.330078125 569 c 1
 540.044921875 505 535.416992188 371 375.303710938 342 c 0
 352.774414062 339 329.421875 337 302.421875 337 c 0
 55.421875 337 125.044921875 505 135.977539062 567 c 1
279.03515625 573 m 1
 258.7578125 458 243.762695312 424 289.588867188 406 c 0
 295.412109375 405 303.70703125 401 314.70703125 401 c 0
 313.70703125 401 335.53125 400 358.17578125 415 c 0
 400.936523438 442 392.047851562 488 410.740234375 577 c 1
 412.327148438 586 413.09375 579 415.033203125 590 c 1
 421.028320312 624 432.254882812 682 422.60546875 701 c 0
 418.544921875 712 401.189453125 727 372.189453125 727 c 0
 274.189453125 727 289.438476562 632 282.385742188 592 c 1
 280.26953125 580 280.974609375 584 279.03515625 573 c 1
EndSplineSet
EndChar
StartChar: four.superior
Encoding: 8308 8308 248
Width: 489
VWidth: 950
Flags: MW
LayerCount: 2
Fore
SplineSet
104 436 m 1
 118 516 l 1
 117 512 116 511 111 507 c 1
 366 779 l 1
 525 779 l 1
 478 512 l 1
 551 512 l 1
 538 436 l 1
 465 436 l 1
 450 350 l 1
 326 350 l 1
 341 436 l 1
 104 436 l 1
218 512 m 1
 358 512 l 1
 389 687 l 1
 367 657 336 631 218 512 c 1
EndSplineSet
EndChar
StartChar: five.superior
Encoding: 8309 8309 249
Width: 489
VWidth: 950
Flags: MW
LayerCount: 2
Fore
SplineSet
101 401 m 1
 165 465 l 1
 170 459 173 453 179 447 c 0
 190 436 205 427 222 421 c 0
 239 415 261 412 285 412 c 0
 328 412 344 419 353 428 c 0
 370 443 371 465 375 487 c 1
 374 484 378 504 377 501 c 1
 383 521 391 545 382 560 c 0
 380 566 373 572 352 572 c 0
 294 572 266 527 265 527 c 1
 164 527 l 1
 208 779 l 1
 544 779 l 1
 531 702 l 1
 331 702 l 1
 318 629 l 1
 329 630 342 631 367 631 c 0
 420 631 463 626 491 610 c 0
 525 591 537 547 526 486 c 0
 516 429 490 396 455 375 c 0
 405 344 337 337 276 337 c 0
 242 337 215 341 195 346 c 0
 135 362 109 391 101 401 c 1
EndSplineSet
EndChar
StartChar: six.superior
Encoding: 8310 8310 250
Width: 489
Flags: MW
LayerCount: 2
Fore
SplineSet
139 561 m 0
 159 674 193 705 211 724 c 0
 262 772 343 792 436 792 c 0
 463 792 479 791 512 779 c 1
 500 709 l 1
 474 719 456 722 427 722 c 0
 358 722 326 699 321 692 c 0
 313 681 299 659 289 595 c 1
 303 621 331 655 399 655 c 0
 485 655 513 631 526 616 c 0
 554 585 545 543 537 503 c 1
 537 505 537 500 537 502 c 1
 532 476 531 436 502 402 c 0
 432 333 342 337 305 337 c 0
 228 337 194 356 172 372 c 0
 110 429 133 526 139 561 c 0
273 504 m 0
 272 500 272 496 271 492 c 0
 261 446 261 413 324 413 c 0
 373 413 381 431 386 462 c 0
 388 475 389 489 392 501 c 1
 391 497 397 522 396 519 c 1
 400 540 408 563 404 577 c 0
 405 585 397 597 356 597 c 0
 302 597 284 560 276 523 c 0
 275 516 274 511 273 504 c 0
EndSplineSet
EndChar
StartChar: seven.superior
Encoding: 8311 8311 251
Width: 489
VWidth: 950
Flags: MW
LayerCount: 2
Fore
SplineSet
161.841796875 691 m 1
 177.358398438 779 l 1
 585.358398438 779 l 1
 570.723632812 696 l 1
 427.033203125 590 344.344726562 467 322.48046875 343 c 1
 177.48046875 343 l 1
 202.6953125 486 318.030273438 607 498.018554688 692 c 1
 161.841796875 691 l 1
EndSplineSet
EndChar
StartChar: eight.superior
Encoding: 8312 8312 252
Width: 489
Flags: MW
LayerCount: 2
Fore
SplineSet
124 477 m 0
 134 534 170 570 241 581 c 1
 246 582 156 584 171 670 c 0
 181 729 213 792 384 792 c 1
 383 792 384 792 383 792 c 1
 558 793 564 729 553 669 c 0
 536 572 414 575 451 581 c 1
 532 565 540 525 532 477 c 0
 520 408 486 337 303 337 c 0
 120 337 112 409 124 477 c 0
267 468 m 1
 265 451 256 432 268 421 c 0
 275 415 288 411 315 411 c 0
 339 411 353 414 360 417 c 0
 394 432 386 463 389 474 c 1
 389 472 391 486 391 484 c 1
 396 508 400 528 387 540 c 0
 381 546 367 550 341 550 c 0
 310 550 297 545 289 539 c 0
 262 521 270 489 269 480 c 1
 269 482 267 466 267 468 c 1
303 660 m 1
 300 641 298 628 306 620 c 0
 312 614 326 611 351 611 c 0
 379 611 392 614 401 620 c 0
 416 631 416 647 418 661 c 1
 417 658 419 670 420 668 c 1
 426 687 429 699 426 708 c 0
 422 719 405 723 372 723 c 0
 345 723 333 720 324 716 c 0
 302 705 306 684 304 670 c 1
 304 671 303 658 303 660 c 1
EndSplineSet
EndChar
StartChar: nine.superior
Encoding: 8313 8313 253
Width: 489
VWidth: 950
Flags: MW
LayerCount: 2
Fore
SplineSet
148.969726562 618 m 0
 156.19921875 659 154.723632812 696 193.248046875 733 c 0
 226.890625 765 275.651367188 792 384.651367188 792 c 0
 452.651367188 792 490.830078125 776 513.008789062 760 c 0
 583.310546875 705 554.501953125 604 549.03515625 573 c 0
 538.456054688 513 525.762695312 424 434.59375 372 c 0
 384.833007812 345 318.421875 337 260.421875 337 c 0
 207.421875 337 173.008789062 346 134.536132812 366 c 1
 193.8203125 430 l 1
 220.3515625 416 239.470703125 411 273.470703125 411 c 0
 314.470703125 411 350.41015625 422 364.87890625 436 c 0
 378.346679688 450 393.166015625 483 399.51171875 536 c 1
 398.982421875 533 398.864257812 538 398.334960938 535 c 1
 392.984375 516 361.579101562 474 286.579101562 474 c 0
 201.579101562 474 171.987304688 499 159.80859375 515 c 0
 135.921875 544 142.798828125 583 148.969726562 618 c 0
293.204101562 625 m 1
 282.274414062 546 285.745117188 543 292.864257812 538 c 0
 302.805664062 532 319.629882812 531 329.629882812 531 c 0
 343.629882812 531 369.158203125 534 389.56640625 559 c 0
 399.03515625 573 408.73828125 594 415.0859375 630 c 0
 423.020507812 675 437.779296875 719 368.779296875 719 c 0
 351.779296875 719 338.602539062 718 329.897460938 714 c 0
 289.076171875 698 297.670898438 656 292.262695312 631 c 1
 296.3203125 637 291.969726562 618 293.204101562 625 c 1
EndSplineSet
EndChar
StartChar: euro
Encoding: 8364 8364 224
Width: 794
Flags: MW
LayerCount: 2
Fore
SplineSet
33 187 m 1
 107 313 l 1
 208 313 l 1
 209 325 211 336 213 347 c 0
 215 359 217 370 220 381 c 1
 67 381 l 1
 142 508 l 1
 281 508 l 1
 346 600 468 695 621 695 c 0
 717 695 781 658 829 608 c 1
 756 484 l 1
 713 537 648 558 597 558 c 0
 549 558 500 543 452 508 c 1
 771 508 l 1
 696 381 l 1
 358 381 l 1
 354 369 351 358 349 345 c 0
 347 333 347 320 346 313 c 1
 655 313 l 1
 581 187 l 1
 395 187 l 1
 426 159 464 137 525 137 c 0
 659 137 758 218 760 218 c 1
 736 82 l 1
 673 36 592 0 499 0 c 0
 353 0 259 86 224 187 c 1
 33 187 l 1
EndSplineSet
EndChar
StartChar: numero
Encoding: 8470 8470 352
Width: 917
Flags: MW
LayerCount: 2
Fore
SplineSet
91 0 m 1
 214 695 l 1
 406 695 l 1
 417 546 417 125 417 125 c 1
 518 695 l 1
 641 695 l 1
 518 0 l 1
 326 0 l 1
 314 167 299 441 305 518 c 1
 214 0 l 1
 91 0 l 1
608 158 m 1
 621 231 l 1
 865 231 l 1
 852 158 l 1
 608 158 l 1
650 399 m 0
 668 502 735 528 795 528 c 0
 856 528 913 502 894 395 c 0
 879 312 827 278 749 278 c 0
 653 278 639 334 650 399 c 0
758 402 m 4
 751 362 755 356 764 356 c 0
 776 356 781 365 788 404 c 0
 795 446 794 455 782 455 c 0
 771 455 766 446 758 402 c 4
EndSplineSet
EndChar
StartChar: trademark
Encoding: 8482 8482 221
Width: 733
Flags: MW
LayerCount: 2
Fore
SplineSet
127.426757812 717 m 0
 128.836914062 725 146.245117188 750 210.245117188 750 c 2
 420.245117188 750 l 2
 462.245117188 750 499.715820312 747 494.07421875 715 c 0
 487.90234375 680 452.549804688 678 406.549804688 678 c 2
 371.549804688 678 l 1
 322.354492188 399 l 2
 315.830078125 362 274.243164062 353 246.243164062 353 c 0
 219.243164062 353 178.654296875 361 185.354492188 399 c 2
 234.549804688 678 l 1
 198.549804688 678 l 2
 119.549804688 678 125.663085938 707 127.426757812 717 c 0
429.001953125 397 m 6
 487.895507812 731 l 2
 494.418945312 768 545.30078125 773 564.30078125 773 c 0
 589.30078125 773 615.418945312 768 621.421875 751 c 2
 662.5546875 644 l 1
 745.774414062 753 l 2
 758.771484375 770 779.30078125 773 808.30078125 773 c 0
 838.30078125 773 874.537109375 763 868.013671875 726 c 2
 810.001953125 397 l 2
 803.301757812 359 757.243164062 353 734.243164062 353 c 0
 703.243164062 353 667.182617188 364 673.53125 400 c 2
 689.752929688 492 l 1
 685.223632812 489 666.284179688 478 634.284179688 478 c 0
 608.284179688 478 595.341796875 484 582.752929688 492 c 1
 566.354492188 399 l 2
 559.477539062 360 516.243164062 353 489.243164062 353 c 0
 464.243164062 353 422.477539062 360 429.001953125 397 c 6
EndSplineSet
EndChar
StartChar: Omega.math
Encoding: 8486 8486 225
Width: 794
Flags: MW
LayerCount: 2
Fore
SplineSet
48 0 m 5
 67.04296875 108 l 5
 263.690429688 106 l 5
 215.729492188 248 117.834960938 328 141.9921875 465 c 4
 174.7890625 651 360.426757812 717 518.426757812 717 c 4
 694.426757812 717 847.141601562 653 813.9921875 465 c 4
 789.834960938 328 663.552734375 247 566.690429688 106 c 5
 764.04296875 108 l 5
 745 0 l 5
 450 0 l 5
 482.504882812 173 637.016601562 295 666.9921875 465 c 4
 686.387695312 575 655.5546875 644 509.5546875 644 c 4
 405.5546875 644 315.735351562 611 290.344726562 467 c 4
 260.016601562 295 371.504882812 173 343 0 c 5
 48 0 l 5
EndSplineSet
EndChar
StartChar: mho
Encoding: 8487 8487 410
Width: 794
Flags: MW
LayerCount: 2
Fore
SplineSet
151.50390625 587 m 1
 170.546875 695 l 1
 465.546875 695 l 1
 432.866210938 521 278.53125 400 248.555664062 230 c 0
 229.51171875 122 257.81640625 50 405.81640625 50 c 0
 555.81640625 50 606.393554688 127 624.37890625 229 c 0
 654.177734375 398 544.395507812 524 572.546875 695 c 1
 867.546875 695 l 1
 848.50390625 587 l 1
 769.50390625 587 l 1
 651.680664062 588 l 1
 698.818359375 447 796.536132812 366 772.555664062 230 c 0
 729.708007812 -13 490.12109375 -22 387.12109375 -22 c 0
 150.12109375 -22 73.75390625 78 100.37890625 229 c 0
 124.711914062 367 251.994140625 448 348.680664062 588 c 1
 230.50390625 587 l 1
 151.50390625 587 l 1
EndSplineSet
EndChar
StartChar: estimated
Encoding: 8494 8494 400
Width: 761
Flags: MW
LayerCount: 2
Fore
SplineSet
91.5380859375 349 m 0
 124.6875 537 228.544921875 712 519.544921875 712 c 0
 787.544921875 712 828.80078125 566 792.654296875 361 c 1
 237.654296875 361 l 1
 235.008789062 346 l 2
 198.685546875 140 280.755859375 61 424.755859375 61 c 0
 565.755859375 61 675.337890625 104 737.74609375 129 c 1
 729.700195312 38 l 1
 605 0 497.060546875 -11 412.060546875 -11 c 0
 209.060546875 -11 40.755859375 61 91.5380859375 349 c 0
249.17578125 415 m 1
 665.17578125 415 l 1
 677.336914062 518 665.672851562 639 507.672851562 639 c 0
 428.672851562 639 303.559570312 610 249.17578125 415 c 1
EndSplineSet
EndChar
StartChar: onethird
Encoding: 8531 8531 245
Width: 489
Flags: MW
LayerCount: 2
Fore
SplineSet
20.1376953125 -141 m 1
 48.71484375 -64 l 1
 48.71484375 -64 105.130859375 -90 155.130859375 -90 c 2
 203.130859375 -90 l 0
 229.130859375 -90 249.306640625 -89 263.541015625 -82 c 0
 274.422851562 -77 282.009765625 -68 284.831054688 -52 c 0
 287.475585938 -37 283.239257812 -27 274.296875 -21 c 4
 265.35546875 -15 250.53125 -14 232.53125 -14 c 2
 179.53125 -14 l 1
 190.111328125 46 l 1
 226.639648438 49 247.639648438 49 269.637695312 66 c 0
 279.872070312 73 285.634765625 83 287.221679688 92 c 0
 291.1015625 114 274.806640625 118 252.806640625 118 c 0
 203.806640625 118 169.395507812 110 127.103515625 97 c 1
 88.5654296875 162 l 1
 148.091796875 182 202.854492188 192 265.854492188 192 c 0
 393.854492188 192 437.801757812 152 427.045898438 91 c 0
 419.287109375 47 377.9375 28 354.998046875 17 c 1
 390.763671875 10 439.413085938 -9 431.654296875 -53 c 0
 428.48046875 -71 413.016601562 -119 350.432617188 -145 c 0
 296.376953125 -168 238.376953125 -168 182.376953125 -168 c 2
 132.376953125 -168 l 2
 82.376953125 -168 20.1376953125 -141 20.1376953125 -141 c 1
41.4873046875 292 m 0
 43.4267578125 303 49.013671875 312 56.248046875 319 c 0
 64.6591796875 327 76.541015625 332 88.716796875 333 c 2
 114.893554688 334 l 1
 498.893554688 334 l 2
 514.893554688 334 529.716796875 333 539.482421875 326 c 0
 544.77734375 322 547.895507812 317 550.485351562 309 c 0
 551.426757812 303 551.545898438 298 550.487304688 292 c 0
 548.900390625 283 543.608398438 270 532.021484375 261 c 0
 523.963867188 255 511.08203125 250 494.08203125 250 c 2
 83.08203125 250 l 2
 66.08203125 250 55.9638671875 255 50.021484375 261 c 0
 39.7841796875 271 40.2529296875 285 41.4873046875 292 c 0
194.610351562 667 m 1
 207.482421875 740 l 1
 281.482421875 740 393.950195312 754 443.30078125 773 c 9
 462.30078125 773 l 1
 412.400390625 490 l 1
 499.400390625 490 l 1
 486.528320312 417 l 1
 165.528320312 417 l 1
 178.400390625 490 l 1
 274.400390625 490 l 1
 306.4921875 672 l 1xfc
 271.962890625 669 216.610351562 667 194.610351562 667 c 1
EndSplineSet
EndChar
StartChar: twothirds
Encoding: 8532 8532 246
Width: 489
Flags: MW
LayerCount: 2
Fore
SplineSet
20.1376953125 -141 m 1
 48.71484375 -64 l 1
 48.71484375 -64 105.130859375 -90 155.130859375 -90 c 2
 203.130859375 -90 l 0
 229.130859375 -90 249.306640625 -89 263.541015625 -82 c 0
 274.422851562 -77 282.009765625 -68 284.831054688 -52 c 0
 287.475585938 -37 283.239257812 -27 274.296875 -21 c 4
 265.35546875 -15 250.53125 -14 232.53125 -14 c 2
 179.53125 -14 l 1
 190.111328125 46 l 1
 226.639648438 49 247.639648438 49 269.637695312 66 c 0
 279.872070312 73 285.634765625 83 287.221679688 92 c 0
 291.1015625 114 274.806640625 118 252.806640625 118 c 0
 203.806640625 118 169.395507812 110 127.103515625 97 c 1
 88.5654296875 162 l 1
 148.091796875 182 202.854492188 192 265.854492188 192 c 4
 393.854492188 192 437.801757812 152 427.045898438 91 c 0
 419.287109375 47 377.9375 28 354.998046875 17 c 1
 390.763671875 10 439.413085938 -9 431.654296875 -53 c 0
 428.48046875 -71 413.016601562 -119 350.432617188 -145 c 0
 296.376953125 -168 238.376953125 -168 182.376953125 -168 c 6
 132.376953125 -168 l 2
 82.376953125 -168 20.1376953125 -141 20.1376953125 -141 c 1
173.189453125 727 m 1
 234.126953125 755 287.124023438 772 362.124023438 772 c 0
 483.124023438 772 558.602539062 718 544.849609375 640 c 0
 533.03515625 573 436.03515625 573 359.979492188 550 c 0
 334.569335938 542 334.392578125 541 235.044921875 505 c 1
 369.044921875 505 l 1
 391.221679688 506 l 1
 521.221679688 506 l 1
 505.3515625 416 l 1
 127.3515625 416 l 1
 143.044921875 505 l 1
 249.803710938 549 l 2
 325.387695312 575 394.856445312 589 403.3203125 637 c 0
 408.43359375 666 380.13671875 687 332.13671875 687 c 0
 273.13671875 687 238.375976562 660 225.7890625 651 c 1
 173.189453125 727 l 1
41.4873046875 292 m 0
 43.4267578125 303 49.013671875 312 56.248046875 319 c 0
 64.6591796875 327 76.541015625 332 88.716796875 333 c 2
 114.893554688 334 l 1
 498.893554688 334 l 2
 514.893554688 334 529.716796875 333 539.482421875 326 c 0
 544.77734375 322 547.895507812 317 550.485351562 309 c 0
 551.426757812 303 551.545898438 298 550.487304688 292 c 0
 548.900390625 283 543.608398438 270 532.021484375 261 c 0
 523.963867188 255 511.08203125 250 494.08203125 250 c 2
 83.08203125 250 l 2
 66.08203125 250 55.9638671875 255 50.021484375 261 c 0
 39.7841796875 271 40.2529296875 285 41.4873046875 292 c 0
EndSplineSet
EndChar
StartChar: onefifth
Encoding: 8533 8533 288
Width: 489
Flags: MW
LayerCount: 2
Fore
SplineSet
10 -112 m 1
 72 -60 l 1
 77 -65 81 -70 87 -75 c 0
 98 -84 114 -91 131 -96 c 0
 148 -101 170 -103 194 -103 c 0
 237 -103 254 -97 262 -90 c 0
 278 -78 278 -60 281 -43 c 1
 281 -45 283 -30 283 -32 c 1
 288 -16 296 3 286 15 c 0
 284 20 276 25 255 25 c 0
 197 25 171 -11 170 -11 c 1
 69 -11 l 1
 105 190 l 1
 441 190 l 1
 430 129 l 1
 230 129 l 1
 219 70 l 1
 230 70 244 72 269 72 c 0
 322 72 364 68 393 55 c 0
 427 40 441 5 432 -44 c 0
 424 -90 400 -116 366 -133 c 0
 317 -157 249 -163 188 -163 c 0
 154 -163 126 -160 106 -156 c 0
 45 -143 19 -120 10 -112 c 1
41 292 m 0
 43 303 49 312 56 319 c 0
 64 327 77 332 89 333 c 2
 115 334 l 1
 499 334 l 2
 515 334 529 333 539 326 c 0
 544 322 547 317 550 309 c 0
 551 303 551 298 550 292 c 0
 548 283 544 270 532 261 c 0
 524 255 511 250 494 250 c 2
 83 250 l 2
 66 250 56 255 50 261 c 0
 40 271 40 285 41 292 c 0
195 667 m 1
 207 740 l 1
 281 740 394 754 443 773 c 9
 462 773 l 1
 412 490 l 1
 499 490 l 1
 487 417 l 1
 166 417 l 1
 178 490 l 1
 274 490 l 1
 306 672 l 1xfc
 271 669 217 667 195 667 c 1
EndSplineSet
EndChar
StartChar: oneeighth
Encoding: 8539 8539 241
Width: 489
Flags: MW
LayerCount: 2
Fore
SplineSet
30 -54 m 0
 38 -10 73 19 144 28 c 1
 149 29 58 30 70 97 c 0
 78 143 107 192 278 192 c 1
 277 192 278 192 277 192 c 1
 452 192 460 143 452 96 c 0
 439 20 317 24 354 28 c 1
 436 16 445 -16 438 -54 c 0
 428 -108 398 -163 215 -163 c 0
 32 -163 21 -107 30 -54 c 0
173 -61 m 1
 172 -74 165 -88 177 -97 c 0
 184 -102 197 -105 224 -105 c 0
 248 -105 262 -102 268 -100 c 0
 301 -88 292 -65 295 -56 c 1
 295 -58 298 -46 298 -48 c 1
 302 -29 304 -13 291 -4 c 0
 285 1 271 4 245 4 c 0
 214 4 201 0 193 -5 c 0
 167 -19 175 -44 175 -51 c 1
 175 -49 173 -63 173 -61 c 1
203 89 m 1
 200 74 199 64 207 57 c 0
 213 52 227 51 252 51 c 0
 280 51 293 53 302 58 c 0
 316 66 315 79 317 90 c 1
 317 88 318 97 319 95 c 1
 325 110 327 120 323 127 c 0
 318 135 302 138 269 138 c 0
 242 138 230 136 221 133 c 0
 199 124 205 108 203 97 c 1
 203 98 203 88 203 89 c 1
41 292 m 0
 43 303 49 312 56 319 c 0
 64 327 77 332 89 333 c 2
 115 334 l 1
 499 334 l 2
 515 334 529 333 539 326 c 0
 544 322 547 317 550 309 c 0
 551 303 551 298 550 292 c 0
 548 283 544 270 532 261 c 0
 524 255 511 250 494 250 c 2
 83 250 l 2
 66 250 56 255 50 261 c 0
 40 271 40 285 41 292 c 0
195 667 m 1
 207 740 l 1
 281 740 394 754 443 773 c 9
 462 773 l 1
 412 490 l 1
 499 490 l 1
 487 417 l 1
 166 417 l 1
 178 490 l 1
 274 490 l 1
 306 672 l 1xfc
 271 669 217 667 195 667 c 1
EndSplineSet
EndChar
StartChar: threeeighths
Encoding: 8540 8540 242
Width: 489
Flags: MW
LayerCount: 2
Fore
SplineSet
30.478515625 -54 m 0
 38.236328125 -10 73.3505859375 19 143.9375 28 c 1
 149.11328125 29 58.2900390625 30 70.103515625 97 c 0
 78.21484375 143 106.854492188 192 277.854492188 192 c 1
 276.854492188 192 277.854492188 192 276.854492188 192 c 1
 451.854492188 192 460.21484375 143 451.927734375 96 c 0
 438.526367188 20 317.231445312 24 353.9375 28 c 1
 435.821289062 16 445.178710938 -16 438.478515625 -54 c 0
 428.95703125 -108 398.258789062 -163 215.258789062 -163 c 0
 32.2587890625 -163 21.1328125 -107 30.478515625 -54 c 0
173.244140625 -61 m 1
 171.952148438 -74 164.483398438 -88 176.896484375 -97 c 0
 184.014648438 -102 197.485351562 -105 224.485351562 -105 c 0
 248.485351562 -105 262.014648438 -102 268.3671875 -100 c 0
 301.483398438 -88 292.5390625 -65 295.125976562 -56 c 1
 294.7734375 -58 297.888671875 -46 297.536132812 -48 c 1
 301.88671875 -29 304.708007812 -13 291.294921875 -4 c 0
 285.176757812 1 270.705078125 4 244.705078125 4 c 0
 213.705078125 4 201 0 193.118164062 -5 c 0
 166.649414062 -19 175.241210938 -44 175.006835938 -51 c 1
 175.360351562 -49 172.891601562 -63 173.244140625 -61 c 1
202.693359375 89 m 1
 200.047851562 74 199.28515625 64 207.05078125 57 c 0
 213.168945312 52 226.993164062 51 251.993164062 51 c 0
 279.993164062 51 293.345703125 53 302.2265625 58 c 0
 316.637695312 66 314.9296875 79 316.869140625 90 c 1
 316.516601562 88 318.103515625 97 318.750976562 95 c 1
 324.395507812 110 327.159179688 120 323.393554688 127 c 0
 318.803710938 135 302.333007812 138 269.333007812 138 c 0
 242.333007812 138 229.98046875 136 221.451171875 133 c 0
 199.864257812 124 205.04296875 108 203.103515625 97 c 1
 203.280273438 98 202.516601562 88 202.693359375 89 c 1
119.41015625 422 m 1
 148.516601562 502 l 1
 148.516601562 502 204.754882812 475 254.754882812 475 c 2
 302.754882812 475 l 0
 328.754882812 475 348.931640625 476 363.166015625 483 c 0
 374.223632812 489 381.810546875 498 384.80859375 515 c 0
 387.629882812 531 383.569335938 542 374.626953125 548 c 0
 365.685546875 554 351.038085938 556 333.038085938 556 c 2
 280.038085938 556 l 1
 291.146484375 619 l 1
 327.67578125 622 348.67578125 622 370.849609375 640 c 0
 381.259765625 648 387.0234375 658 388.786132812 668 c 0
 392.841796875 691 376.546875 695 354.546875 695 c 0
 305.546875 695 271.13671875 687 228.66796875 673 c 1
 190.658203125 741 l 1
 250.361328125 762 305.30078125 773 368.30078125 773 c 0
 496.30078125 773 539.71875 730 528.43359375 666 c 0
 520.146484375 619 478.620117188 599 455.680664062 588 c 1
 491.26953125 580 539.919921875 561 531.631835938 514 c 0
 528.282226562 495 512.465820312 445 449.528320312 417 c 0
 395.296875 393 337.296875 393 281.296875 393 c 2
 231.296875 393 l 2
 181.296875 393 119.41015625 422 119.41015625 422 c 1
41.4873046875 292 m 0
 43.4267578125 303 49.013671875 312 56.248046875 319 c 0
 64.6591796875 327 76.541015625 332 88.716796875 333 c 2
 114.893554688 334 l 1
 498.893554688 334 l 2
 514.893554688 334 529.716796875 333 539.482421875 326 c 0
 544.77734375 322 547.895507812 317 550.485351562 309 c 0
 551.426757812 303 551.545898438 298 550.487304688 292 c 0
 548.900390625 283 543.608398438 270 532.021484375 261 c 0
 523.963867188 255 511.08203125 250 494.08203125 250 c 2
 83.08203125 250 l 2
 66.08203125 250 55.9638671875 255 50.021484375 261 c 0
 39.7841796875 271 40.2529296875 285 41.4873046875 292 c 0
EndSplineSet
EndChar
StartChar: fiveeighths
Encoding: 8541 8541 243
Width: 489
Flags: MW
LayerCount: 2
Fore
SplineSet
108.465820312 445 m 1
 171.33984375 501 l 1
 176.458007812 496 179.576171875 491 185.518554688 485 c 0
 196.754882812 475 212.521484375 468 229.639648438 463 c 0
 246.7578125 458 268.052734375 454 292.052734375 454 c 0
 335.052734375 454 352.110351562 460 360.521484375 468 c 0
 376.813476562 481 377.163085938 500 380.513671875 519 c 1
 379.984375 516 383.158203125 534 382.805664062 532 c 1
 387.803710938 549 395.506835938 570 385.798828125 583 c 0
 383.680664062 588 376.73828125 594 355.73828125 594 c 0
 297.73828125 594 270.685546875 554 269.685546875 554 c 1
 168.685546875 554 l 1
 207.30078125 773 l 1
 543.30078125 773 l 1
 531.487304688 706 l 1
 331.487304688 706 l 1
 320.377929688 643 l 1
 331.377929688 643 344.73046875 645 369.73046875 645 c 0
 422.73046875 645 465.025390625 641 493.556640625 627 c 0
 527.559570312 610 540.682617188 571 531.336914062 518 c 0
 522.521484375 468 497.583984375 440 463.41015625 422 c 0
 413.649414062 395 346.590820312 389 285.590820312 389 c 4
 251.590820312 389 224.296875 393 204.001953125 397 c 0
 143.470703125 411 116.87890625 436 108.465820312 445 c 1
41.4873046875 292 m 0
 43.4267578125 303 49.013671875 312 56.248046875 319 c 0
 64.6591796875 327 76.541015625 332 88.716796875 333 c 2
 114.893554688 334 l 1
 498.893554688 334 l 2
 514.893554688 334 529.716796875 333 539.482421875 326 c 0
 544.77734375 322 547.895507812 317 550.485351562 309 c 0
 551.426757812 303 551.545898438 298 550.487304688 292 c 0
 548.900390625 283 543.608398438 270 532.021484375 261 c 0
 523.963867188 255 511.08203125 250 494.08203125 250 c 2
 83.08203125 250 l 2
 66.08203125 250 55.9638671875 255 50.021484375 261 c 0
 39.7841796875 271 40.2529296875 285 41.4873046875 292 c 0
30.478515625 -54 m 0
 38.236328125 -10 73.3505859375 19 143.9375 28 c 1
 149.11328125 29 58.2900390625 30 70.103515625 97 c 0
 78.21484375 143 106.854492188 192 277.854492188 192 c 1
 276.854492188 192 277.854492188 192 276.854492188 192 c 1
 451.854492188 192 460.21484375 143 451.927734375 96 c 0
 438.526367188 20 317.231445312 24 353.9375 28 c 1
 435.821289062 16 445.178710938 -16 438.478515625 -54 c 0
 428.95703125 -108 398.258789062 -163 215.258789062 -163 c 0
 32.2587890625 -163 21.1328125 -107 30.478515625 -54 c 0
173.244140625 -61 m 1
 171.952148438 -74 164.483398438 -88 176.896484375 -97 c 0
 184.014648438 -102 197.485351562 -105 224.485351562 -105 c 0
 248.485351562 -105 262.014648438 -102 268.3671875 -100 c 0
 301.483398438 -88 292.5390625 -65 295.125976562 -56 c 1
 294.7734375 -58 297.888671875 -46 297.536132812 -48 c 1
 301.88671875 -29 304.708007812 -13 291.294921875 -4 c 0
 285.176757812 1 270.705078125 4 244.705078125 4 c 0
 213.705078125 4 201 0 193.118164062 -5 c 0
 166.649414062 -19 175.241210938 -44 175.006835938 -51 c 1
 175.360351562 -49 172.891601562 -63 173.244140625 -61 c 1
202.693359375 89 m 1
 200.047851562 74 199.28515625 64 207.05078125 57 c 0
 213.168945312 52 226.993164062 51 251.993164062 51 c 0
 279.993164062 51 293.345703125 53 302.2265625 58 c 0
 316.637695312 66 314.9296875 79 316.869140625 90 c 1
 316.516601562 88 318.103515625 97 318.750976562 95 c 1
 324.395507812 110 327.159179688 120 323.393554688 127 c 0
 318.803710938 135 302.333007812 138 269.333007812 138 c 0
 242.333007812 138 229.98046875 136 221.451171875 133 c 0
 199.864257812 124 205.04296875 108 203.103515625 97 c 1
 203.280273438 98 202.516601562 88 202.693359375 89 c 1
EndSplineSet
EndChar
StartChar: seveneighths
Encoding: 8542 8542 244
Width: 489
Flags: MW
LayerCount: 2
Fore
SplineSet
162.546875 695 m 1
 175.948242188 771 l 1
 583.948242188 771 l 1
 571.252929688 699 l 1
 430.030273438 607 350.33984375 501 331.296875 393 c 1
 186.296875 393 l 1
 208.161132812 517 320.67578125 622 498.723632812 696 c 1
 162.546875 695 l 1
41.4873046875 292 m 0
 43.4267578125 303 49.013671875 312 56.248046875 319 c 0
 64.6591796875 327 76.541015625 332 88.716796875 333 c 2
 114.893554688 334 l 1
 498.893554688 334 l 2
 514.893554688 334 529.716796875 333 539.482421875 326 c 0
 544.77734375 322 547.895507812 317 550.485351562 309 c 0
 551.426757812 303 551.545898438 298 550.487304688 292 c 0
 548.900390625 283 543.608398438 270 532.021484375 261 c 0
 523.963867188 255 511.08203125 250 494.08203125 250 c 2
 83.08203125 250 l 2
 66.08203125 250 55.9638671875 255 50.021484375 261 c 0
 39.7841796875 271 40.2529296875 285 41.4873046875 292 c 0
30.478515625 -54 m 0
 38.236328125 -10 73.3505859375 19 143.9375 28 c 1
 149.11328125 29 58.2900390625 30 70.103515625 97 c 0
 78.21484375 143 106.854492188 192 277.854492188 192 c 1
 276.854492188 192 277.854492188 192 276.854492188 192 c 1
 451.854492188 192 460.21484375 143 451.927734375 96 c 0
 438.526367188 20 317.231445312 24 353.9375 28 c 1
 435.821289062 16 445.178710938 -16 438.478515625 -54 c 0
 428.95703125 -108 398.258789062 -163 215.258789062 -163 c 0
 32.2587890625 -163 21.1328125 -107 30.478515625 -54 c 0
173.244140625 -61 m 1
 171.952148438 -74 164.483398438 -88 176.896484375 -97 c 0
 184.014648438 -102 197.485351562 -105 224.485351562 -105 c 0
 248.485351562 -105 262.014648438 -102 268.3671875 -100 c 0
 301.483398438 -88 292.5390625 -65 295.125976562 -56 c 1
 294.7734375 -58 297.888671875 -46 297.536132812 -48 c 1
 301.88671875 -29 304.708007812 -13 291.294921875 -4 c 0
 285.176757812 1 270.705078125 4 244.705078125 4 c 0
 213.705078125 4 201 0 193.118164062 -5 c 0
 166.649414062 -19 175.241210938 -44 175.006835938 -51 c 1
 175.360351562 -49 172.891601562 -63 173.244140625 -61 c 1
202.693359375 89 m 1
 200.047851562 74 199.28515625 64 207.05078125 57 c 0
 213.168945312 52 226.993164062 51 251.993164062 51 c 0
 279.993164062 51 293.345703125 53 302.2265625 58 c 0
 316.637695312 66 314.9296875 79 316.869140625 90 c 1
 316.516601562 88 318.103515625 97 318.750976562 95 c 1
 324.395507812 110 327.159179688 120 323.393554688 127 c 0
 318.803710938 135 302.333007812 138 269.333007812 138 c 0
 242.333007812 138 229.98046875 136 221.451171875 133 c 0
 199.864257812 124 205.04296875 108 203.103515625 97 c 1
 203.280273438 98 202.516601562 88 202.693359375 89 c 1
EndSplineSet
EndChar
StartChar: Delta
Encoding: 8710 8710 397
Width: 917
Flags: MW
LayerCount: 2
Fore
SplineSet
45 0 m 1
 485 695 l 1
 676 695 l 1
 869 0 l 1
 45 0 l 1
269 133 m 1
 669 133 l 1
 547 571 l 1
 269 133 l 1
EndSplineSet
EndChar
StartChar: product
Encoding: 8719 8719 401
Width: 794
Flags: MW
LayerCount: 2
Fore
SplineSet
55.734375 -200 m 1
 213.018554688 692 l 1
 824.018554688 692 l 1
 666.734375 -200 l 1
 518.734375 -200 l 1
 659.267578125 597 l 1
 344.267578125 597 l 1
 203.734375 -200 l 1
 55.734375 -200 l 1
EndSplineSet
EndChar
StartChar: lessequal
Encoding: 8804 8804 398
Width: 672
Flags: MW
LayerCount: 2
Fore
SplineSet
146 313 m 1
 150 327 150 332 181 354 c 2
 620 611 l 2
 628 615 639 624 653 624 c 0
 671 624 687 610 683 589 c 0
 680 570 666 560 654 553 c 2
 241 313 l 1
 260 299 275 286 294 273 c 2
 569 75 l 2
 576 69 589 58 586 39 c 0
 582 17 562 3 544 3 c 0
 532 3 525 8 516 16 c 2
 168 273 l 2
 136 296 148 305 146 313 c 1
50 -61 m 0
 52 -47 59 -39 67 -34 c 0
 82 -24 100 -26 100 -25 c 1
 110 -25 l 1
 561 -25 l 2
 571 -26 581 -27 589 -32 c 0
 596 -37 601 -46 598 -61 c 0
 595 -76 587 -85 578 -90 c 0
 564 -98 547 -96 547 -97 c 1
 88 -97 l 2
 77 -96 65 -94 57 -87 c 0
 51 -82 48 -74 50 -61 c 0
EndSplineSet
EndChar
StartChar: greaterequal
Encoding: 8805 8805 399
Width: 672
Flags: MW
LayerCount: 2
Fore
SplineSet
98 39 m 0
 101 57 114 66 127 75 c 2
 539 314 l 1
 521 328 503 337 487 353 c 2
 211 552 l 2
 196 562 192 574 195 589 c 0
 199 610 219 624 238 624 c 0
 250 624 255 618 265 611 c 2
 613 354 l 2
 641 328 632 322 634 314 c 1
 631 301 631 293 599 274 c 2
 161 16 l 2
 150 9 141 3 129 3 c 0
 110 3 94 17 98 39 c 0
50 -61 m 0
 52 -47 59 -39 67 -34 c 0
 82 -24 100 -26 100 -25 c 1
 110 -25 l 1
 561 -25 l 2
 571 -26 581 -27 589 -32 c 0
 596 -37 601 -46 598 -61 c 0
 595 -76 587 -85 578 -90 c 0
 564 -98 547 -96 547 -97 c 1
 88 -97 l 2
 77 -96 65 -94 57 -87 c 0
 51 -82 48 -74 50 -61 c 0
EndSplineSet
EndChar
StartChar: lozenge
Encoding: 9674 9674 402
Width: 648
Flags: MW
LayerCount: 2
Fore
SplineSet
168 264 m 0
 169 272 174 279 178 287 c 2
 403 705 l 1
 413 726 428 750 456 750 c 0
 489 750 491 719 494 705 c 2
 573 287 l 2
 575 279 575 272 573 263 c 0
 572 255 568 248 564 240 c 2
 339 -178 l 2
 330 -196 313 -222 286 -222 c 3
 255 -222 250 -194 247 -178 c 2
 169 240 l 2
 167 248 166 255 168 264 c 0
314 -60 m 1
 489 264 l 1
 428 587 l 1
 253 263 l 1
 314 -60 l 1
EndSplineSet
EndChar
StartChar: dblhyphenkana
Encoding: 12448 12448 414
Width: 600
Flags: W
LayerCount: 2
Fore
SplineSet
72 125 m 1
 91 232 l 1
 591 232 l 1
 572 125 l 1
 72 125 l 1
115 368 m 1
 134 475 l 1
 634 475 l 1
 615 368 l 1
 115 368 l 1
EndSplineSet
Colour: ff
EndChar
StartChar: zero.slash
Encoding: 63032 63032 223
Width: 550
Flags: MW
LayerCount: 2
Fore
SplineSet
103 344 m 0
 105 356 107 368 109 380 c 0
 134 509 177 664 319 706 c 0
 343 713 370 717 400 717 c 0
 457 717 516 700 550 654 c 0
 607 576 582 431 570 362 c 2
 568 352 l 2
 543 213 510 32 349 -12 c 0
 325 -18 299 -22 269 -22 c 0
 48 -22 74 180 103 344 c 0
241 352 m 0
 234 310 227 275 223 244 c 1
 438 622 l 1
 425 636 408 644 388 644 c 0
 294 644 270 516 249 396 c 0
 246 381 243 366 241 352 c 0
224 87 m 1
 230 75 238 67 249 60 c 0
 258 55 269 50 283 50 c 0
 289 50 315 51 342 76 c 0
 391 120 402 200 432 357 c 0
 434 368 437 380 439 393 c 0
 445 425 450 460 454 492 c 1
 224 87 l 1
EndSplineSet
EndChar
StartChar: f_f
Encoding: 64256 64256 228
Width: 642
Flags: MW
LayerCount: 2
Fore
SplineSet
391 0 m 1
 486.040039062 539 l 2
 503.672851562 639 564.487304688 706 717.487304688 706 c 0
 751.487304688 706 772.958007812 703 809.546875 695 c 1
 791.73828125 594 l 1
 768.969726562 618 749.615234375 633 704.615234375 633 c 0
 636.615234375 633 626.208984375 591 621.977539062 567 c 2
 605.2265625 472 l 1
 703.2265625 472 l 1
 690.53125 400 l 1
 595.53125 400 l 1
 525 0 l 1
 391 0 l 1
EndSplineSet
Refer: 70 102 S 1 0 0 1 0 0 2
EndChar
StartChar: f_i
Encoding: 64257 64257 111
Width: 586
Flags: MW
LayerCount: 2
Fore
SplineSet
101 400 m 1
 113 472 l 1
 169 472 l 1
 179 530 l 1
 201 642 266 706 379 706 c 0xce
 405 706 421 703 447 695 c 1x96
 428 588 l 1
 422 607 409 633 369 633 c 0x8e
 335 633 322 603 317 574 c 2
 299 472 l 1xae
 407 472 l 1
 395 400 l 1
 290 400 l 1
 219 0 l 1
 86 0 l 1
 157 400 l 1
 101 400 l 1
490 561 m 1x96
 514 695 l 1
 648 695 l 1
 624 561 l 1
 490 561 l 1x96
EndSplineSet
Refer: 137 305 N 1 0 0 1 331 0 2
EndChar
StartChar: f_l
Encoding: 64258 64258 112
Width: 586
Flags: MW
LayerCount: 2
Fore
SplineSet
101 400 m 1
 113 472 l 1
 169 472 l 1
 179 530 l 1
 201 641 265 706 379 706 c 0xec
 405 706 421 703 447 695 c 1xdc
 429 594 l 1
 423 606 409 633 369 633 c 0xec
 336 633 322 604 317 573 c 2
 299 472 l 1
 407 472 l 1
 395 400 l 1
 290 400 l 1
 219 0 l 1
 86 0 l 1
 157 400 l 1
 101 400 l 1
EndSplineSet
Refer: 76 108 N 1 0 0 1 331 0 2
EndChar
StartChar: f_f_i
Encoding: 64259 64259 229
Width: 892
Flags: MW
LayerCount: 2
Fore
SplineSet
100.53125 400 m 1
 113.2265625 472 l 1
 169.2265625 472 l 1
 179.27734375 529 l 2
 199.907226562 646 280.487304688 706 394.487304688 706 c 0xcf
 432.487304688 706 450.60546875 701 473.546875 695 c 1x97
 455.73828125 594 l 1
 449.325195312 603 431.615234375 633 384.615234375 633 c 0
 336.615234375 633 322.1484375 602 316.506835938 570 c 2
 299.2265625 472 l 1xb7
 407.2265625 472 l 1
 394.53125 400 l 1
 289.53125 400 l 1
 219 0 l 1
 86 0 l 1
 156.53125 400 l 1
 100.53125 400 l 1
391 0 m 1
 486.040039062 539 l 2
 502.0859375 630 547.310546875 705 681.487304688 706 c 0
 710.487304688 706 725.133789062 704 752.076171875 698 c 1
 733.208984375 591 l 1
 728.1484375 602 719.438476562 632 682.438476562 632 c 0
 648.438476562 632 632.733398438 628 623.211914062 574 c 2
 605.2265625 472 l 1xaf
 712.2265625 472 l 1
 699.53125 400 l 1
 595.53125 400 l 1xc7
 525 0 l 1
 391 0 l 1
794.919921875 561 m 1x97
 818.546875 695 l 1
 952.546875 695 l 1
 928.919921875 561 l 1
 794.919921875 561 l 1x97
EndSplineSet
Refer: 137 305 N 1 0 0 1 636 0 2
EndChar
StartChar: f_f_l
Encoding: 64260 64260 230
Width: 892
Flags: MW
LayerCount: 2
Fore
SplineSet
101 400 m 1
 113 472 l 1
 169 472 l 1
 179 529 l 2
 200 646 280 706 394 706 c 0xee
 424 706 443 703 474 695 c 1xde
 456 594 l 1
 450 603 432 633 385 633 c 0
 337 633 323 602 317 570 c 2
 299 472 l 1
 407 472 l 1
 395 400 l 1
 290 400 l 1
 219 0 l 1
 86 0 l 1
 157 400 l 1
 101 400 l 1
391 0 m 1
 486 539 l 2xee
 502 628 545 706 684 706 c 0xee
 710 706 726 703 752 695 c 1xde
 734 594 l 1
 728 606 714 633 675 633 c 0
 642 633 628 604 623 573 c 2
 605 472 l 1
 712 472 l 1
 700 400 l 1
 596 400 l 1
 525 0 l 1
 391 0 l 1
EndSplineSet
Refer: 76 108 N 1 0 0 1 636 0 2
EndChar
StartChar: Ering
Encoding: 65536 -1 266
Width: 642
Flags: MW
LayerCount: 2
Fore
SplineSet
378 781 m 4
 389 843 424 903 523 903 c 4
 593 903 638 870 622 779 c 4
 611 716 576 657 478 657 c 4
 407 657 362 689 378 781 c 4
440 780 m 4
 436 758 438 745 446 738 c 4
 454 729 471 729 489 729 c 6
 490 729 l 6
 510 730 529 730 543 741 c 4
 551 748 557 759 561 779 c 4
 565 800 563 812 556 819 c 4
 547 829 531 830 511 830 c 6xdf
 509 830 l 6
 486 830 471 829 459 820 c 4
 450 813 444 800 440 780 c 4
EndSplineSet
Refer: 37 69 N 1 0 0 1 0 0 2
EndChar
StartChar: Iring
Encoding: 65537 -1 269
Width: 331
Flags: MW
LayerCount: 2
Fore
SplineSet
181 781 m 0
 192 843 227 903 326 903 c 0
 396 903 441 870 425 779 c 0
 414 716 379 657 281 657 c 0
 210 657 165 689 181 781 c 0
243 780 m 0
 239 758 241 745 249 738 c 0
 257 729 274 729 292 729 c 2
 293 729 l 2
 313 730 332 730 346 741 c 0
 354 748 360 759 364 779 c 0
 368 800 366 812 359 819 c 0
 350 829 334 830 314 830 c 2xdf
 312 830 l 2
 289 830 274 829 262 820 c 0
 253 813 247 800 243 780 c 0
EndSplineSet
Refer: 41 73 N 1 0 0 1 0 0 2
EndChar
StartChar: Lcaron.alt
Encoding: 65542 -1 372
Width: 581
Flags: MW
LayerCount: 2
Fore
SplineSet
304.223632812 903 m 1
 376.223632812 903 l 1
 466.061523438 800 l 1
 591.223632812 903 l 1
 663.223632812 903 l 1x25
 512.541992188 729 l 1
 393.541992188 729 l 1
 304.223632812 903 l 1
EndSplineSet
Refer: 44 76 N 1 0 0 1 0 0 2
EndChar
StartChar: Oring
Encoding: 65538 -1 272
Width: 794
Flags: MW
LayerCount: 2
Fore
SplineSet
408.7109375 781 m 0
 419.643554688 843 455.223632812 903 554.223632812 903 c 0
 624.223632812 903 669.404296875 870 653.358398438 779 c 0
 642.25 716 606.846679688 657 508.846679688 657 c 0
 437.846679688 657 392.489257812 689 408.7109375 781 c 0
470.53515625 780 m 0
 466.65625 758 469.36328125 745 477.12890625 738 c 0
 485.541992188 729 501.541992188 729 519.541992188 729 c 2
 520.541992188 729 l 2
 540.71875 730 559.71875 730 573.658203125 741 c 0
 581.892578125 748 588.83203125 759 592.358398438 779 c 0
 596.061523438 800 594.177734375 812 587.412109375 819 c 0
 578.174804688 829 562.3515625 830 542.3515625 830 c 2xdf
 540.3515625 830 l 2
 517.3515625 830 501.174804688 829 489.587890625 820 c 0
 480.353515625 813 474.061523438 800 470.53515625 780 c 0
EndSplineSet
Refer: 47 79 N 1 0 0 1 0 0 2
EndChar
StartChar: lcaron.alt
Encoding: 65543 -1 390
Width: 256
Flags: MW
LayerCount: 2
Fore
SplineSet
60 0 m 1
 182.546875 695 l 1
 316.546875 695 l 1
 194 0 l 1
 60 0 l 1
103.399414062 904 m 1
 176.399414062 904 l 1
 274.235351562 818 l 1
 401.399414062 904 l 1
 448.399414062 904 l 1
 474.399414062 904 l 1
 318.890625 765 l 1
 209.890625 765 l 1
 103.399414062 904 l 1
EndSplineSet
EndChar
StartChar: ordfeminine.alt
Encoding: 65545 -1 412
Width: 489
Flags: MW
LayerCount: 2
Fore
SplineSet
68.9638671875 255 m 0
 71.7841796875 271 86.4296875 286 102.134765625 290 c 0
 110.487304688 292 119.487304688 292 127.487304688 292 c 2
 470.487304688 292 l 2
 508.487304688 292 509.079101562 267 506.963867188 255 c 0
 504.495117188 241 494.791992188 220 457.615234375 219 c 2
 106.615234375 219 l 2
 101.615234375 219 96.615234375 219 92.7919921875 220 c 0
 67.849609375 226 67.552734375 247 68.9638671875 255 c 0
111.110351562 460 m 0
 117.282226562 495 159.33984375 501 184.044921875 505 c 0
 262.690429688 520 323.336914062 518 357.690429688 520 c 1
 370.73828125 594 l 2
 388.018554688 692 367.60546875 701 344.60546875 701 c 0
 257.60546875 701 199.146484375 619 199.146484375 619 c 1
 208.779296875 719 l 1
 259.421875 751 302.243164062 767 366.243164062 767 c 0
 537.243164062 767 514.615234375 633 502.977539062 567 c 2
 469.123046875 375 l 1
 335.123046875 375 l 1
 346.407226562 439 l 1
 292.59375 372 228.182617188 364 204.182617188 364 c 0
 131.182617188 364 104.41015625 422 111.110351562 460 c 0
243.639648438 463 m 0
 241.700195312 452 251.0546875 437 275.0546875 437 c 0
 308.0546875 437 332.16796875 466 342.63671875 480 c 9
 342.63671875 480 l 17
 278.931640625 476 257.579101562 474 248.874023438 470 c 0
 244.521484375 468 244.16796875 466 243.639648438 463 c 0
EndSplineSet
EndChar
StartChar: ordmasculine.alt
Encoding: 65544 -1 411
Width: 489
Flags: MW
LayerCount: 2
Fore
SplineSet
68.9638671875 255 m 0
 71.7841796875 271 86.4296875 286 102.134765625 290 c 0
 110.487304688 292 119.487304688 292 127.487304688 292 c 2
 470.487304688 292 l 2
 485.487304688 292 494.782226562 288 499.900390625 283 c 4
 508.490234375 275 508.197265625 262 506.963867188 255 c 0
 505.375976562 246 501.436523438 235 489.026367188 227 c 0
 482.14453125 222 471.615234375 219 457.615234375 219 c 2
 106.615234375 219 l 2
 104.615234375 219 101.615234375 219 99.615234375 219 c 0
 67.14453125 222 67.552734375 247 68.9638671875 255 c 0
128.390625 558 m 0
 157.836914062 725 268.243164062 767 380.243164062 767 c 0
 486.243164062 767 585.013671875 726 555.390625 558 c 0
 528.412109375 405 422.888671875 368 324.182617188 364 c 2
 291.182617188 364 l 2
 196.888671875 368 101.059570312 403 128.390625 558 c 0
264.743164062 560 m 2
 257.513671875 519 255.223632812 489 263.697265625 469 c 0
 271.5234375 451 289.936523438 442 320.936523438 442 c 0
 347.936523438 442 366.994140625 448 380.287109375 461 c 0
 404.166015625 483 412.21875 523 422.26953125 580 c 0
 430.733398438 628 431.375976562 660 416.373046875 677 c 0
 406.489257812 689 390.37109375 694 365.37109375 694 c 0
 337.37109375 694 317.959960938 686 304.66796875 673 c 0
 284.141601562 653 275.322265625 620 268.446289062 581 c 2
 264.743164062 560 l 2
EndSplineSet
EndChar
